%TF.GenerationSoftware,KiCad,Pcbnew,9.0.0*%
%TF.CreationDate,2025-08-07T09:37:02-07:00*%
%TF.ProjectId,pieceAB_v-score,70696563-6541-4425-9f76-2d73636f7265,rev?*%
%TF.SameCoordinates,Original*%
%TF.FileFunction,Legend,Top*%
%TF.FilePolarity,Positive*%
%FSLAX46Y46*%
G04 Gerber Fmt 4.6, Leading zero omitted, Abs format (unit mm)*
G04 Created by KiCad (PCBNEW 9.0.0) date 2025-08-07 09:37:02*
%MOMM*%
%LPD*%
G01*
G04 APERTURE LIST*
%ADD10C,0.125000*%
%ADD11C,0.100000*%
%ADD12C,0.150000*%
%ADD13C,0.400000*%
%ADD14C,0.098425*%
%ADD15C,0.203200*%
%ADD16C,0.254000*%
%ADD17C,0.223600*%
%ADD18C,0.127000*%
G04 APERTURE END LIST*
D10*
X348862611Y-159344944D02*
X348862611Y-158844944D01*
X348862611Y-158844944D02*
X348981659Y-158844944D01*
X348981659Y-158844944D02*
X349053087Y-158868754D01*
X349053087Y-158868754D02*
X349100706Y-158916373D01*
X349100706Y-158916373D02*
X349124516Y-158963992D01*
X349124516Y-158963992D02*
X349148325Y-159059230D01*
X349148325Y-159059230D02*
X349148325Y-159130658D01*
X349148325Y-159130658D02*
X349124516Y-159225896D01*
X349124516Y-159225896D02*
X349100706Y-159273515D01*
X349100706Y-159273515D02*
X349053087Y-159321135D01*
X349053087Y-159321135D02*
X348981659Y-159344944D01*
X348981659Y-159344944D02*
X348862611Y-159344944D01*
X349457849Y-158844944D02*
X349553087Y-158844944D01*
X349553087Y-158844944D02*
X349600706Y-158868754D01*
X349600706Y-158868754D02*
X349648325Y-158916373D01*
X349648325Y-158916373D02*
X349672135Y-159011611D01*
X349672135Y-159011611D02*
X349672135Y-159178277D01*
X349672135Y-159178277D02*
X349648325Y-159273515D01*
X349648325Y-159273515D02*
X349600706Y-159321135D01*
X349600706Y-159321135D02*
X349553087Y-159344944D01*
X349553087Y-159344944D02*
X349457849Y-159344944D01*
X349457849Y-159344944D02*
X349410230Y-159321135D01*
X349410230Y-159321135D02*
X349362611Y-159273515D01*
X349362611Y-159273515D02*
X349338802Y-159178277D01*
X349338802Y-159178277D02*
X349338802Y-159011611D01*
X349338802Y-159011611D02*
X349362611Y-158916373D01*
X349362611Y-158916373D02*
X349410230Y-158868754D01*
X349410230Y-158868754D02*
X349457849Y-158844944D01*
X366911438Y-144330865D02*
X366411438Y-144330865D01*
X366411438Y-144330865D02*
X366411438Y-144211817D01*
X366411438Y-144211817D02*
X366435248Y-144140389D01*
X366435248Y-144140389D02*
X366482867Y-144092770D01*
X366482867Y-144092770D02*
X366530486Y-144068960D01*
X366530486Y-144068960D02*
X366625724Y-144045151D01*
X366625724Y-144045151D02*
X366697152Y-144045151D01*
X366697152Y-144045151D02*
X366792390Y-144068960D01*
X366792390Y-144068960D02*
X366840009Y-144092770D01*
X366840009Y-144092770D02*
X366887629Y-144140389D01*
X366887629Y-144140389D02*
X366911438Y-144211817D01*
X366911438Y-144211817D02*
X366911438Y-144330865D01*
X366411438Y-143735627D02*
X366411438Y-143640389D01*
X366411438Y-143640389D02*
X366435248Y-143592770D01*
X366435248Y-143592770D02*
X366482867Y-143545151D01*
X366482867Y-143545151D02*
X366578105Y-143521341D01*
X366578105Y-143521341D02*
X366744771Y-143521341D01*
X366744771Y-143521341D02*
X366840009Y-143545151D01*
X366840009Y-143545151D02*
X366887629Y-143592770D01*
X366887629Y-143592770D02*
X366911438Y-143640389D01*
X366911438Y-143640389D02*
X366911438Y-143735627D01*
X366911438Y-143735627D02*
X366887629Y-143783246D01*
X366887629Y-143783246D02*
X366840009Y-143830865D01*
X366840009Y-143830865D02*
X366744771Y-143854674D01*
X366744771Y-143854674D02*
X366578105Y-143854674D01*
X366578105Y-143854674D02*
X366482867Y-143830865D01*
X366482867Y-143830865D02*
X366435248Y-143783246D01*
X366435248Y-143783246D02*
X366411438Y-143735627D01*
D11*
X355851062Y-145261712D02*
X355851062Y-144880760D01*
X356041538Y-145071236D02*
X355660586Y-145071236D01*
X356041538Y-144380759D02*
X356041538Y-144666473D01*
X356041538Y-144523616D02*
X355541538Y-144523616D01*
X355541538Y-144523616D02*
X355612967Y-144571235D01*
X355612967Y-144571235D02*
X355660586Y-144618854D01*
X355660586Y-144618854D02*
X355684395Y-144666473D01*
X355589157Y-144190283D02*
X355565348Y-144166474D01*
X355565348Y-144166474D02*
X355541538Y-144118855D01*
X355541538Y-144118855D02*
X355541538Y-143999807D01*
X355541538Y-143999807D02*
X355565348Y-143952188D01*
X355565348Y-143952188D02*
X355589157Y-143928379D01*
X355589157Y-143928379D02*
X355636776Y-143904569D01*
X355636776Y-143904569D02*
X355684395Y-143904569D01*
X355684395Y-143904569D02*
X355755824Y-143928379D01*
X355755824Y-143928379D02*
X356041538Y-144214093D01*
X356041538Y-144214093D02*
X356041538Y-143904569D01*
X355541538Y-143761712D02*
X356041538Y-143595046D01*
X356041538Y-143595046D02*
X355541538Y-143428379D01*
D12*
X99239558Y-129696168D02*
X99239558Y-128696168D01*
X99715748Y-129696168D02*
X99715748Y-128696168D01*
X99715748Y-128696168D02*
X100287176Y-129696168D01*
X100287176Y-129696168D02*
X100287176Y-128696168D01*
X100763367Y-129696168D02*
X100763367Y-128696168D01*
X100763367Y-128696168D02*
X101144319Y-128696168D01*
X101144319Y-128696168D02*
X101239557Y-128743787D01*
X101239557Y-128743787D02*
X101287176Y-128791406D01*
X101287176Y-128791406D02*
X101334795Y-128886644D01*
X101334795Y-128886644D02*
X101334795Y-129029501D01*
X101334795Y-129029501D02*
X101287176Y-129124739D01*
X101287176Y-129124739D02*
X101239557Y-129172358D01*
X101239557Y-129172358D02*
X101144319Y-129219977D01*
X101144319Y-129219977D02*
X100763367Y-129219977D01*
X101763367Y-128696168D02*
X101763367Y-129505691D01*
X101763367Y-129505691D02*
X101810986Y-129600929D01*
X101810986Y-129600929D02*
X101858605Y-129648549D01*
X101858605Y-129648549D02*
X101953843Y-129696168D01*
X101953843Y-129696168D02*
X102144319Y-129696168D01*
X102144319Y-129696168D02*
X102239557Y-129648549D01*
X102239557Y-129648549D02*
X102287176Y-129600929D01*
X102287176Y-129600929D02*
X102334795Y-129505691D01*
X102334795Y-129505691D02*
X102334795Y-128696168D01*
X102668129Y-128696168D02*
X103239557Y-128696168D01*
X102953843Y-129696168D02*
X102953843Y-128696168D01*
D10*
X95700811Y-163027944D02*
X95700811Y-162527944D01*
X95700811Y-162527944D02*
X95819859Y-162527944D01*
X95819859Y-162527944D02*
X95891287Y-162551754D01*
X95891287Y-162551754D02*
X95938906Y-162599373D01*
X95938906Y-162599373D02*
X95962716Y-162646992D01*
X95962716Y-162646992D02*
X95986525Y-162742230D01*
X95986525Y-162742230D02*
X95986525Y-162813658D01*
X95986525Y-162813658D02*
X95962716Y-162908896D01*
X95962716Y-162908896D02*
X95938906Y-162956515D01*
X95938906Y-162956515D02*
X95891287Y-163004135D01*
X95891287Y-163004135D02*
X95819859Y-163027944D01*
X95819859Y-163027944D02*
X95700811Y-163027944D01*
X96296049Y-162527944D02*
X96391287Y-162527944D01*
X96391287Y-162527944D02*
X96438906Y-162551754D01*
X96438906Y-162551754D02*
X96486525Y-162599373D01*
X96486525Y-162599373D02*
X96510335Y-162694611D01*
X96510335Y-162694611D02*
X96510335Y-162861277D01*
X96510335Y-162861277D02*
X96486525Y-162956515D01*
X96486525Y-162956515D02*
X96438906Y-163004135D01*
X96438906Y-163004135D02*
X96391287Y-163027944D01*
X96391287Y-163027944D02*
X96296049Y-163027944D01*
X96296049Y-163027944D02*
X96248430Y-163004135D01*
X96248430Y-163004135D02*
X96200811Y-162956515D01*
X96200811Y-162956515D02*
X96177002Y-162861277D01*
X96177002Y-162861277D02*
X96177002Y-162694611D01*
X96177002Y-162694611D02*
X96200811Y-162599373D01*
X96200811Y-162599373D02*
X96248430Y-162551754D01*
X96248430Y-162551754D02*
X96296049Y-162527944D01*
D11*
X349438269Y-150538854D02*
X349390650Y-150515044D01*
X349390650Y-150515044D02*
X349319221Y-150515044D01*
X349319221Y-150515044D02*
X349247793Y-150538854D01*
X349247793Y-150538854D02*
X349200174Y-150586473D01*
X349200174Y-150586473D02*
X349176364Y-150634092D01*
X349176364Y-150634092D02*
X349152555Y-150729330D01*
X349152555Y-150729330D02*
X349152555Y-150800758D01*
X349152555Y-150800758D02*
X349176364Y-150895996D01*
X349176364Y-150895996D02*
X349200174Y-150943615D01*
X349200174Y-150943615D02*
X349247793Y-150991235D01*
X349247793Y-150991235D02*
X349319221Y-151015044D01*
X349319221Y-151015044D02*
X349366840Y-151015044D01*
X349366840Y-151015044D02*
X349438269Y-150991235D01*
X349438269Y-150991235D02*
X349462078Y-150967425D01*
X349462078Y-150967425D02*
X349462078Y-150800758D01*
X349462078Y-150800758D02*
X349366840Y-150800758D01*
X349676364Y-151015044D02*
X349676364Y-150515044D01*
X349676364Y-150515044D02*
X349962078Y-151015044D01*
X349962078Y-151015044D02*
X349962078Y-150515044D01*
X350200174Y-151015044D02*
X350200174Y-150515044D01*
X350200174Y-150515044D02*
X350319222Y-150515044D01*
X350319222Y-150515044D02*
X350390650Y-150538854D01*
X350390650Y-150538854D02*
X350438269Y-150586473D01*
X350438269Y-150586473D02*
X350462079Y-150634092D01*
X350462079Y-150634092D02*
X350485888Y-150729330D01*
X350485888Y-150729330D02*
X350485888Y-150800758D01*
X350485888Y-150800758D02*
X350462079Y-150895996D01*
X350462079Y-150895996D02*
X350438269Y-150943615D01*
X350438269Y-150943615D02*
X350390650Y-150991235D01*
X350390650Y-150991235D02*
X350319222Y-151015044D01*
X350319222Y-151015044D02*
X350200174Y-151015044D01*
D12*
X366595557Y-150901254D02*
X366595557Y-149901254D01*
X367071747Y-150901254D02*
X367071747Y-149901254D01*
X367071747Y-149901254D02*
X367643175Y-150901254D01*
X367643175Y-150901254D02*
X367643175Y-149901254D01*
X368119366Y-150901254D02*
X368119366Y-149901254D01*
X368119366Y-149901254D02*
X368500318Y-149901254D01*
X368500318Y-149901254D02*
X368595556Y-149948873D01*
X368595556Y-149948873D02*
X368643175Y-149996492D01*
X368643175Y-149996492D02*
X368690794Y-150091730D01*
X368690794Y-150091730D02*
X368690794Y-150234587D01*
X368690794Y-150234587D02*
X368643175Y-150329825D01*
X368643175Y-150329825D02*
X368595556Y-150377444D01*
X368595556Y-150377444D02*
X368500318Y-150425063D01*
X368500318Y-150425063D02*
X368119366Y-150425063D01*
X369119366Y-149901254D02*
X369119366Y-150710777D01*
X369119366Y-150710777D02*
X369166985Y-150806015D01*
X369166985Y-150806015D02*
X369214604Y-150853635D01*
X369214604Y-150853635D02*
X369309842Y-150901254D01*
X369309842Y-150901254D02*
X369500318Y-150901254D01*
X369500318Y-150901254D02*
X369595556Y-150853635D01*
X369595556Y-150853635D02*
X369643175Y-150806015D01*
X369643175Y-150806015D02*
X369690794Y-150710777D01*
X369690794Y-150710777D02*
X369690794Y-149901254D01*
X370024128Y-149901254D02*
X370595556Y-149901254D01*
X370309842Y-150901254D02*
X370309842Y-149901254D01*
D11*
X92726831Y-160811539D02*
X92798259Y-160835349D01*
X92798259Y-160835349D02*
X92822069Y-160859158D01*
X92822069Y-160859158D02*
X92845878Y-160906777D01*
X92845878Y-160906777D02*
X92845878Y-160978206D01*
X92845878Y-160978206D02*
X92822069Y-161025825D01*
X92822069Y-161025825D02*
X92798259Y-161049635D01*
X92798259Y-161049635D02*
X92750640Y-161073444D01*
X92750640Y-161073444D02*
X92560164Y-161073444D01*
X92560164Y-161073444D02*
X92560164Y-160573444D01*
X92560164Y-160573444D02*
X92726831Y-160573444D01*
X92726831Y-160573444D02*
X92774450Y-160597254D01*
X92774450Y-160597254D02*
X92798259Y-160621063D01*
X92798259Y-160621063D02*
X92822069Y-160668682D01*
X92822069Y-160668682D02*
X92822069Y-160716301D01*
X92822069Y-160716301D02*
X92798259Y-160763920D01*
X92798259Y-160763920D02*
X92774450Y-160787730D01*
X92774450Y-160787730D02*
X92726831Y-160811539D01*
X92726831Y-160811539D02*
X92560164Y-160811539D01*
X93060164Y-161073444D02*
X93060164Y-160573444D01*
X93298259Y-161073444D02*
X93298259Y-160573444D01*
X93298259Y-160573444D02*
X93583973Y-161073444D01*
X93583973Y-161073444D02*
X93583973Y-160573444D01*
X85452565Y-130229082D02*
X85833518Y-130229082D01*
X85643041Y-130419558D02*
X85643041Y-130038606D01*
X86333518Y-130419558D02*
X86047804Y-130419558D01*
X86190661Y-130419558D02*
X86190661Y-129919558D01*
X86190661Y-129919558D02*
X86143042Y-129990987D01*
X86143042Y-129990987D02*
X86095423Y-130038606D01*
X86095423Y-130038606D02*
X86047804Y-130062415D01*
X86523994Y-129967177D02*
X86547803Y-129943368D01*
X86547803Y-129943368D02*
X86595422Y-129919558D01*
X86595422Y-129919558D02*
X86714470Y-129919558D01*
X86714470Y-129919558D02*
X86762089Y-129943368D01*
X86762089Y-129943368D02*
X86785898Y-129967177D01*
X86785898Y-129967177D02*
X86809708Y-130014796D01*
X86809708Y-130014796D02*
X86809708Y-130062415D01*
X86809708Y-130062415D02*
X86785898Y-130133844D01*
X86785898Y-130133844D02*
X86500184Y-130419558D01*
X86500184Y-130419558D02*
X86809708Y-130419558D01*
X86952565Y-129919558D02*
X87119231Y-130419558D01*
X87119231Y-130419558D02*
X87285898Y-129919558D01*
X350624164Y-148640168D02*
X351005117Y-148640168D01*
X350814640Y-148830644D02*
X350814640Y-148449692D01*
X351505117Y-148830644D02*
X351219403Y-148830644D01*
X351362260Y-148830644D02*
X351362260Y-148330644D01*
X351362260Y-148330644D02*
X351314641Y-148402073D01*
X351314641Y-148402073D02*
X351267022Y-148449692D01*
X351267022Y-148449692D02*
X351219403Y-148473501D01*
X351695593Y-148378263D02*
X351719402Y-148354454D01*
X351719402Y-148354454D02*
X351767021Y-148330644D01*
X351767021Y-148330644D02*
X351886069Y-148330644D01*
X351886069Y-148330644D02*
X351933688Y-148354454D01*
X351933688Y-148354454D02*
X351957497Y-148378263D01*
X351957497Y-148378263D02*
X351981307Y-148425882D01*
X351981307Y-148425882D02*
X351981307Y-148473501D01*
X351981307Y-148473501D02*
X351957497Y-148544930D01*
X351957497Y-148544930D02*
X351671783Y-148830644D01*
X351671783Y-148830644D02*
X351981307Y-148830644D01*
X352124164Y-148330644D02*
X352290830Y-148830644D01*
X352290830Y-148830644D02*
X352457497Y-148330644D01*
X363044033Y-144333045D02*
X363067843Y-144261617D01*
X363067843Y-144261617D02*
X363091652Y-144237807D01*
X363091652Y-144237807D02*
X363139271Y-144213998D01*
X363139271Y-144213998D02*
X363210700Y-144213998D01*
X363210700Y-144213998D02*
X363258319Y-144237807D01*
X363258319Y-144237807D02*
X363282129Y-144261617D01*
X363282129Y-144261617D02*
X363305938Y-144309236D01*
X363305938Y-144309236D02*
X363305938Y-144499712D01*
X363305938Y-144499712D02*
X362805938Y-144499712D01*
X362805938Y-144499712D02*
X362805938Y-144333045D01*
X362805938Y-144333045D02*
X362829748Y-144285426D01*
X362829748Y-144285426D02*
X362853557Y-144261617D01*
X362853557Y-144261617D02*
X362901176Y-144237807D01*
X362901176Y-144237807D02*
X362948795Y-144237807D01*
X362948795Y-144237807D02*
X362996414Y-144261617D01*
X362996414Y-144261617D02*
X363020224Y-144285426D01*
X363020224Y-144285426D02*
X363044033Y-144333045D01*
X363044033Y-144333045D02*
X363044033Y-144499712D01*
X363305938Y-143999712D02*
X362805938Y-143999712D01*
X363305938Y-143761617D02*
X362805938Y-143761617D01*
X362805938Y-143761617D02*
X363305938Y-143475903D01*
X363305938Y-143475903D02*
X362805938Y-143475903D01*
D12*
X348927967Y-129077168D02*
X349118443Y-129077168D01*
X349118443Y-129077168D02*
X349213681Y-129124787D01*
X349213681Y-129124787D02*
X349308919Y-129220025D01*
X349308919Y-129220025D02*
X349356538Y-129410501D01*
X349356538Y-129410501D02*
X349356538Y-129743834D01*
X349356538Y-129743834D02*
X349308919Y-129934310D01*
X349308919Y-129934310D02*
X349213681Y-130029549D01*
X349213681Y-130029549D02*
X349118443Y-130077168D01*
X349118443Y-130077168D02*
X348927967Y-130077168D01*
X348927967Y-130077168D02*
X348832729Y-130029549D01*
X348832729Y-130029549D02*
X348737491Y-129934310D01*
X348737491Y-129934310D02*
X348689872Y-129743834D01*
X348689872Y-129743834D02*
X348689872Y-129410501D01*
X348689872Y-129410501D02*
X348737491Y-129220025D01*
X348737491Y-129220025D02*
X348832729Y-129124787D01*
X348832729Y-129124787D02*
X348927967Y-129077168D01*
X349785110Y-129077168D02*
X349785110Y-129886691D01*
X349785110Y-129886691D02*
X349832729Y-129981929D01*
X349832729Y-129981929D02*
X349880348Y-130029549D01*
X349880348Y-130029549D02*
X349975586Y-130077168D01*
X349975586Y-130077168D02*
X350166062Y-130077168D01*
X350166062Y-130077168D02*
X350261300Y-130029549D01*
X350261300Y-130029549D02*
X350308919Y-129981929D01*
X350308919Y-129981929D02*
X350356538Y-129886691D01*
X350356538Y-129886691D02*
X350356538Y-129077168D01*
X350689872Y-129077168D02*
X351261300Y-129077168D01*
X350975586Y-130077168D02*
X350975586Y-129077168D01*
X351594634Y-130077168D02*
X351594634Y-129077168D01*
X351594634Y-129077168D02*
X351975586Y-129077168D01*
X351975586Y-129077168D02*
X352070824Y-129124787D01*
X352070824Y-129124787D02*
X352118443Y-129172406D01*
X352118443Y-129172406D02*
X352166062Y-129267644D01*
X352166062Y-129267644D02*
X352166062Y-129410501D01*
X352166062Y-129410501D02*
X352118443Y-129505739D01*
X352118443Y-129505739D02*
X352070824Y-129553358D01*
X352070824Y-129553358D02*
X351975586Y-129600977D01*
X351975586Y-129600977D02*
X351594634Y-129600977D01*
X352594634Y-129077168D02*
X352594634Y-129886691D01*
X352594634Y-129886691D02*
X352642253Y-129981929D01*
X352642253Y-129981929D02*
X352689872Y-130029549D01*
X352689872Y-130029549D02*
X352785110Y-130077168D01*
X352785110Y-130077168D02*
X352975586Y-130077168D01*
X352975586Y-130077168D02*
X353070824Y-130029549D01*
X353070824Y-130029549D02*
X353118443Y-129981929D01*
X353118443Y-129981929D02*
X353166062Y-129886691D01*
X353166062Y-129886691D02*
X353166062Y-129077168D01*
X353499396Y-129077168D02*
X354070824Y-129077168D01*
X353785110Y-130077168D02*
X353785110Y-129077168D01*
D11*
X350054231Y-155426739D02*
X350125659Y-155450549D01*
X350125659Y-155450549D02*
X350149469Y-155474358D01*
X350149469Y-155474358D02*
X350173278Y-155521977D01*
X350173278Y-155521977D02*
X350173278Y-155593406D01*
X350173278Y-155593406D02*
X350149469Y-155641025D01*
X350149469Y-155641025D02*
X350125659Y-155664835D01*
X350125659Y-155664835D02*
X350078040Y-155688644D01*
X350078040Y-155688644D02*
X349887564Y-155688644D01*
X349887564Y-155688644D02*
X349887564Y-155188644D01*
X349887564Y-155188644D02*
X350054231Y-155188644D01*
X350054231Y-155188644D02*
X350101850Y-155212454D01*
X350101850Y-155212454D02*
X350125659Y-155236263D01*
X350125659Y-155236263D02*
X350149469Y-155283882D01*
X350149469Y-155283882D02*
X350149469Y-155331501D01*
X350149469Y-155331501D02*
X350125659Y-155379120D01*
X350125659Y-155379120D02*
X350101850Y-155402930D01*
X350101850Y-155402930D02*
X350054231Y-155426739D01*
X350054231Y-155426739D02*
X349887564Y-155426739D01*
X350387564Y-155688644D02*
X350387564Y-155188644D01*
X350625659Y-155688644D02*
X350625659Y-155188644D01*
X350625659Y-155188644D02*
X350911373Y-155688644D01*
X350911373Y-155688644D02*
X350911373Y-155188644D01*
D13*
X86701970Y-150866673D02*
X86951970Y-148866673D01*
X86951970Y-148866673D02*
X87713875Y-148866673D01*
X87713875Y-148866673D02*
X87892446Y-148961911D01*
X87892446Y-148961911D02*
X87975780Y-149057149D01*
X87975780Y-149057149D02*
X88047208Y-149247625D01*
X88047208Y-149247625D02*
X88011494Y-149533339D01*
X88011494Y-149533339D02*
X87892446Y-149723815D01*
X87892446Y-149723815D02*
X87785304Y-149819054D01*
X87785304Y-149819054D02*
X87582923Y-149914292D01*
X87582923Y-149914292D02*
X86821018Y-149914292D01*
X88701970Y-150866673D02*
X88951970Y-148866673D01*
X89785304Y-149819054D02*
X90451970Y-149819054D01*
X90606732Y-150866673D02*
X89654351Y-150866673D01*
X89654351Y-150866673D02*
X89904351Y-148866673D01*
X89904351Y-148866673D02*
X90856732Y-148866673D01*
X92630542Y-150676196D02*
X92523399Y-150771435D01*
X92523399Y-150771435D02*
X92225780Y-150866673D01*
X92225780Y-150866673D02*
X92035304Y-150866673D01*
X92035304Y-150866673D02*
X91761494Y-150771435D01*
X91761494Y-150771435D02*
X91594828Y-150580958D01*
X91594828Y-150580958D02*
X91523399Y-150390482D01*
X91523399Y-150390482D02*
X91475780Y-150009530D01*
X91475780Y-150009530D02*
X91511494Y-149723815D01*
X91511494Y-149723815D02*
X91654351Y-149342863D01*
X91654351Y-149342863D02*
X91773399Y-149152387D01*
X91773399Y-149152387D02*
X91987685Y-148961911D01*
X91987685Y-148961911D02*
X92285304Y-148866673D01*
X92285304Y-148866673D02*
X92475780Y-148866673D01*
X92475780Y-148866673D02*
X92749590Y-148961911D01*
X92749590Y-148961911D02*
X92832923Y-149057149D01*
X93594828Y-149819054D02*
X94261494Y-149819054D01*
X94416256Y-150866673D02*
X93463875Y-150866673D01*
X93463875Y-150866673D02*
X93713875Y-148866673D01*
X93713875Y-148866673D02*
X94666256Y-148866673D01*
X96773400Y-150295244D02*
X97725781Y-150295244D01*
X96511495Y-150866673D02*
X97428162Y-148866673D01*
X97428162Y-148866673D02*
X97844828Y-150866673D01*
D10*
X96822812Y-130443658D02*
X96822812Y-129943658D01*
X96822812Y-129943658D02*
X96941860Y-129943658D01*
X96941860Y-129943658D02*
X97013288Y-129967468D01*
X97013288Y-129967468D02*
X97060907Y-130015087D01*
X97060907Y-130015087D02*
X97084717Y-130062706D01*
X97084717Y-130062706D02*
X97108526Y-130157944D01*
X97108526Y-130157944D02*
X97108526Y-130229372D01*
X97108526Y-130229372D02*
X97084717Y-130324610D01*
X97084717Y-130324610D02*
X97060907Y-130372229D01*
X97060907Y-130372229D02*
X97013288Y-130419849D01*
X97013288Y-130419849D02*
X96941860Y-130443658D01*
X96941860Y-130443658D02*
X96822812Y-130443658D01*
X97418050Y-129943658D02*
X97513288Y-129943658D01*
X97513288Y-129943658D02*
X97560907Y-129967468D01*
X97560907Y-129967468D02*
X97608526Y-130015087D01*
X97608526Y-130015087D02*
X97632336Y-130110325D01*
X97632336Y-130110325D02*
X97632336Y-130276991D01*
X97632336Y-130276991D02*
X97608526Y-130372229D01*
X97608526Y-130372229D02*
X97560907Y-130419849D01*
X97560907Y-130419849D02*
X97513288Y-130443658D01*
X97513288Y-130443658D02*
X97418050Y-130443658D01*
X97418050Y-130443658D02*
X97370431Y-130419849D01*
X97370431Y-130419849D02*
X97322812Y-130372229D01*
X97322812Y-130372229D02*
X97299003Y-130276991D01*
X97299003Y-130276991D02*
X97299003Y-130110325D01*
X97299003Y-130110325D02*
X97322812Y-130015087D01*
X97322812Y-130015087D02*
X97370431Y-129967468D01*
X97370431Y-129967468D02*
X97418050Y-129943658D01*
D11*
X359248348Y-144517207D02*
X359224538Y-144564826D01*
X359224538Y-144564826D02*
X359224538Y-144636255D01*
X359224538Y-144636255D02*
X359248348Y-144707683D01*
X359248348Y-144707683D02*
X359295967Y-144755302D01*
X359295967Y-144755302D02*
X359343586Y-144779112D01*
X359343586Y-144779112D02*
X359438824Y-144802921D01*
X359438824Y-144802921D02*
X359510252Y-144802921D01*
X359510252Y-144802921D02*
X359605490Y-144779112D01*
X359605490Y-144779112D02*
X359653109Y-144755302D01*
X359653109Y-144755302D02*
X359700729Y-144707683D01*
X359700729Y-144707683D02*
X359724538Y-144636255D01*
X359724538Y-144636255D02*
X359724538Y-144588636D01*
X359724538Y-144588636D02*
X359700729Y-144517207D01*
X359700729Y-144517207D02*
X359676919Y-144493398D01*
X359676919Y-144493398D02*
X359510252Y-144493398D01*
X359510252Y-144493398D02*
X359510252Y-144588636D01*
X359724538Y-144279112D02*
X359224538Y-144279112D01*
X359224538Y-144279112D02*
X359724538Y-143993398D01*
X359724538Y-143993398D02*
X359224538Y-143993398D01*
X359724538Y-143755302D02*
X359224538Y-143755302D01*
X359224538Y-143755302D02*
X359224538Y-143636254D01*
X359224538Y-143636254D02*
X359248348Y-143564826D01*
X359248348Y-143564826D02*
X359295967Y-143517207D01*
X359295967Y-143517207D02*
X359343586Y-143493397D01*
X359343586Y-143493397D02*
X359438824Y-143469588D01*
X359438824Y-143469588D02*
X359510252Y-143469588D01*
X359510252Y-143469588D02*
X359605490Y-143493397D01*
X359605490Y-143493397D02*
X359653109Y-143517207D01*
X359653109Y-143517207D02*
X359700729Y-143564826D01*
X359700729Y-143564826D02*
X359724538Y-143636254D01*
X359724538Y-143636254D02*
X359724538Y-143755302D01*
X93290032Y-130132253D02*
X93361460Y-130156063D01*
X93361460Y-130156063D02*
X93385270Y-130179872D01*
X93385270Y-130179872D02*
X93409079Y-130227491D01*
X93409079Y-130227491D02*
X93409079Y-130298920D01*
X93409079Y-130298920D02*
X93385270Y-130346539D01*
X93385270Y-130346539D02*
X93361460Y-130370349D01*
X93361460Y-130370349D02*
X93313841Y-130394158D01*
X93313841Y-130394158D02*
X93123365Y-130394158D01*
X93123365Y-130394158D02*
X93123365Y-129894158D01*
X93123365Y-129894158D02*
X93290032Y-129894158D01*
X93290032Y-129894158D02*
X93337651Y-129917968D01*
X93337651Y-129917968D02*
X93361460Y-129941777D01*
X93361460Y-129941777D02*
X93385270Y-129989396D01*
X93385270Y-129989396D02*
X93385270Y-130037015D01*
X93385270Y-130037015D02*
X93361460Y-130084634D01*
X93361460Y-130084634D02*
X93337651Y-130108444D01*
X93337651Y-130108444D02*
X93290032Y-130132253D01*
X93290032Y-130132253D02*
X93123365Y-130132253D01*
X93623365Y-130394158D02*
X93623365Y-129894158D01*
X93861460Y-130394158D02*
X93861460Y-129894158D01*
X93861460Y-129894158D02*
X94147174Y-130394158D01*
X94147174Y-130394158D02*
X94147174Y-129894158D01*
X89753070Y-129943368D02*
X89705451Y-129919558D01*
X89705451Y-129919558D02*
X89634022Y-129919558D01*
X89634022Y-129919558D02*
X89562594Y-129943368D01*
X89562594Y-129943368D02*
X89514975Y-129990987D01*
X89514975Y-129990987D02*
X89491165Y-130038606D01*
X89491165Y-130038606D02*
X89467356Y-130133844D01*
X89467356Y-130133844D02*
X89467356Y-130205272D01*
X89467356Y-130205272D02*
X89491165Y-130300510D01*
X89491165Y-130300510D02*
X89514975Y-130348129D01*
X89514975Y-130348129D02*
X89562594Y-130395749D01*
X89562594Y-130395749D02*
X89634022Y-130419558D01*
X89634022Y-130419558D02*
X89681641Y-130419558D01*
X89681641Y-130419558D02*
X89753070Y-130395749D01*
X89753070Y-130395749D02*
X89776879Y-130371939D01*
X89776879Y-130371939D02*
X89776879Y-130205272D01*
X89776879Y-130205272D02*
X89681641Y-130205272D01*
X89991165Y-130419558D02*
X89991165Y-129919558D01*
X89991165Y-129919558D02*
X90276879Y-130419558D01*
X90276879Y-130419558D02*
X90276879Y-129919558D01*
X90514975Y-130419558D02*
X90514975Y-129919558D01*
X90514975Y-129919558D02*
X90634023Y-129919558D01*
X90634023Y-129919558D02*
X90705451Y-129943368D01*
X90705451Y-129943368D02*
X90753070Y-129990987D01*
X90753070Y-129990987D02*
X90776880Y-130038606D01*
X90776880Y-130038606D02*
X90800689Y-130133844D01*
X90800689Y-130133844D02*
X90800689Y-130205272D01*
X90800689Y-130205272D02*
X90776880Y-130300510D01*
X90776880Y-130300510D02*
X90753070Y-130348129D01*
X90753070Y-130348129D02*
X90705451Y-130395749D01*
X90705451Y-130395749D02*
X90634023Y-130419558D01*
X90634023Y-130419558D02*
X90514975Y-130419558D01*
X86235564Y-157047568D02*
X86616517Y-157047568D01*
X86426040Y-157238044D02*
X86426040Y-156857092D01*
X87116517Y-157238044D02*
X86830803Y-157238044D01*
X86973660Y-157238044D02*
X86973660Y-156738044D01*
X86973660Y-156738044D02*
X86926041Y-156809473D01*
X86926041Y-156809473D02*
X86878422Y-156857092D01*
X86878422Y-156857092D02*
X86830803Y-156880901D01*
X87306993Y-156785663D02*
X87330802Y-156761854D01*
X87330802Y-156761854D02*
X87378421Y-156738044D01*
X87378421Y-156738044D02*
X87497469Y-156738044D01*
X87497469Y-156738044D02*
X87545088Y-156761854D01*
X87545088Y-156761854D02*
X87568897Y-156785663D01*
X87568897Y-156785663D02*
X87592707Y-156833282D01*
X87592707Y-156833282D02*
X87592707Y-156880901D01*
X87592707Y-156880901D02*
X87568897Y-156952330D01*
X87568897Y-156952330D02*
X87283183Y-157238044D01*
X87283183Y-157238044D02*
X87592707Y-157238044D01*
X87735564Y-156738044D02*
X87902230Y-157238044D01*
X87902230Y-157238044D02*
X88068897Y-156738044D01*
D13*
X88532871Y-141494087D02*
X88782871Y-139494087D01*
X88782871Y-139494087D02*
X89544776Y-139494087D01*
X89544776Y-139494087D02*
X89723347Y-139589325D01*
X89723347Y-139589325D02*
X89806681Y-139684563D01*
X89806681Y-139684563D02*
X89878109Y-139875039D01*
X89878109Y-139875039D02*
X89842395Y-140160753D01*
X89842395Y-140160753D02*
X89723347Y-140351229D01*
X89723347Y-140351229D02*
X89616205Y-140446468D01*
X89616205Y-140446468D02*
X89413824Y-140541706D01*
X89413824Y-140541706D02*
X88651919Y-140541706D01*
X90532871Y-141494087D02*
X90782871Y-139494087D01*
X91616205Y-140446468D02*
X92282871Y-140446468D01*
X92437633Y-141494087D02*
X91485252Y-141494087D01*
X91485252Y-141494087D02*
X91735252Y-139494087D01*
X91735252Y-139494087D02*
X92687633Y-139494087D01*
X94461443Y-141303610D02*
X94354300Y-141398849D01*
X94354300Y-141398849D02*
X94056681Y-141494087D01*
X94056681Y-141494087D02*
X93866205Y-141494087D01*
X93866205Y-141494087D02*
X93592395Y-141398849D01*
X93592395Y-141398849D02*
X93425729Y-141208372D01*
X93425729Y-141208372D02*
X93354300Y-141017896D01*
X93354300Y-141017896D02*
X93306681Y-140636944D01*
X93306681Y-140636944D02*
X93342395Y-140351229D01*
X93342395Y-140351229D02*
X93485252Y-139970277D01*
X93485252Y-139970277D02*
X93604300Y-139779801D01*
X93604300Y-139779801D02*
X93818586Y-139589325D01*
X93818586Y-139589325D02*
X94116205Y-139494087D01*
X94116205Y-139494087D02*
X94306681Y-139494087D01*
X94306681Y-139494087D02*
X94580491Y-139589325D01*
X94580491Y-139589325D02*
X94663824Y-139684563D01*
X95425729Y-140446468D02*
X96092395Y-140446468D01*
X96247157Y-141494087D02*
X95294776Y-141494087D01*
X95294776Y-141494087D02*
X95544776Y-139494087D01*
X95544776Y-139494087D02*
X96497157Y-139494087D01*
X99425729Y-140446468D02*
X99699539Y-140541706D01*
X99699539Y-140541706D02*
X99782872Y-140636944D01*
X99782872Y-140636944D02*
X99854301Y-140827420D01*
X99854301Y-140827420D02*
X99818586Y-141113134D01*
X99818586Y-141113134D02*
X99699539Y-141303610D01*
X99699539Y-141303610D02*
X99592396Y-141398849D01*
X99592396Y-141398849D02*
X99390015Y-141494087D01*
X99390015Y-141494087D02*
X98628110Y-141494087D01*
X98628110Y-141494087D02*
X98878110Y-139494087D01*
X98878110Y-139494087D02*
X99544777Y-139494087D01*
X99544777Y-139494087D02*
X99723348Y-139589325D01*
X99723348Y-139589325D02*
X99806682Y-139684563D01*
X99806682Y-139684563D02*
X99878110Y-139875039D01*
X99878110Y-139875039D02*
X99854301Y-140065515D01*
X99854301Y-140065515D02*
X99735253Y-140255991D01*
X99735253Y-140255991D02*
X99628110Y-140351229D01*
X99628110Y-140351229D02*
X99425729Y-140446468D01*
X99425729Y-140446468D02*
X98759063Y-140446468D01*
D11*
X89647069Y-158666854D02*
X89599450Y-158643044D01*
X89599450Y-158643044D02*
X89528021Y-158643044D01*
X89528021Y-158643044D02*
X89456593Y-158666854D01*
X89456593Y-158666854D02*
X89408974Y-158714473D01*
X89408974Y-158714473D02*
X89385164Y-158762092D01*
X89385164Y-158762092D02*
X89361355Y-158857330D01*
X89361355Y-158857330D02*
X89361355Y-158928758D01*
X89361355Y-158928758D02*
X89385164Y-159023996D01*
X89385164Y-159023996D02*
X89408974Y-159071615D01*
X89408974Y-159071615D02*
X89456593Y-159119235D01*
X89456593Y-159119235D02*
X89528021Y-159143044D01*
X89528021Y-159143044D02*
X89575640Y-159143044D01*
X89575640Y-159143044D02*
X89647069Y-159119235D01*
X89647069Y-159119235D02*
X89670878Y-159095425D01*
X89670878Y-159095425D02*
X89670878Y-158928758D01*
X89670878Y-158928758D02*
X89575640Y-158928758D01*
X89885164Y-159143044D02*
X89885164Y-158643044D01*
X89885164Y-158643044D02*
X90170878Y-159143044D01*
X90170878Y-159143044D02*
X90170878Y-158643044D01*
X90408974Y-159143044D02*
X90408974Y-158643044D01*
X90408974Y-158643044D02*
X90528022Y-158643044D01*
X90528022Y-158643044D02*
X90599450Y-158666854D01*
X90599450Y-158666854D02*
X90647069Y-158714473D01*
X90647069Y-158714473D02*
X90670879Y-158762092D01*
X90670879Y-158762092D02*
X90694688Y-158857330D01*
X90694688Y-158857330D02*
X90694688Y-158928758D01*
X90694688Y-158928758D02*
X90670879Y-159023996D01*
X90670879Y-159023996D02*
X90647069Y-159071615D01*
X90647069Y-159071615D02*
X90599450Y-159119235D01*
X90599450Y-159119235D02*
X90528022Y-159143044D01*
X90528022Y-159143044D02*
X90408974Y-159143044D01*
D12*
X100841766Y-161712254D02*
X101032242Y-161712254D01*
X101032242Y-161712254D02*
X101127480Y-161759873D01*
X101127480Y-161759873D02*
X101222718Y-161855111D01*
X101222718Y-161855111D02*
X101270337Y-162045587D01*
X101270337Y-162045587D02*
X101270337Y-162378920D01*
X101270337Y-162378920D02*
X101222718Y-162569396D01*
X101222718Y-162569396D02*
X101127480Y-162664635D01*
X101127480Y-162664635D02*
X101032242Y-162712254D01*
X101032242Y-162712254D02*
X100841766Y-162712254D01*
X100841766Y-162712254D02*
X100746528Y-162664635D01*
X100746528Y-162664635D02*
X100651290Y-162569396D01*
X100651290Y-162569396D02*
X100603671Y-162378920D01*
X100603671Y-162378920D02*
X100603671Y-162045587D01*
X100603671Y-162045587D02*
X100651290Y-161855111D01*
X100651290Y-161855111D02*
X100746528Y-161759873D01*
X100746528Y-161759873D02*
X100841766Y-161712254D01*
X101698909Y-161712254D02*
X101698909Y-162521777D01*
X101698909Y-162521777D02*
X101746528Y-162617015D01*
X101746528Y-162617015D02*
X101794147Y-162664635D01*
X101794147Y-162664635D02*
X101889385Y-162712254D01*
X101889385Y-162712254D02*
X102079861Y-162712254D01*
X102079861Y-162712254D02*
X102175099Y-162664635D01*
X102175099Y-162664635D02*
X102222718Y-162617015D01*
X102222718Y-162617015D02*
X102270337Y-162521777D01*
X102270337Y-162521777D02*
X102270337Y-161712254D01*
X102603671Y-161712254D02*
X103175099Y-161712254D01*
X102889385Y-162712254D02*
X102889385Y-161712254D01*
X103508433Y-162712254D02*
X103508433Y-161712254D01*
X103508433Y-161712254D02*
X103889385Y-161712254D01*
X103889385Y-161712254D02*
X103984623Y-161759873D01*
X103984623Y-161759873D02*
X104032242Y-161807492D01*
X104032242Y-161807492D02*
X104079861Y-161902730D01*
X104079861Y-161902730D02*
X104079861Y-162045587D01*
X104079861Y-162045587D02*
X104032242Y-162140825D01*
X104032242Y-162140825D02*
X103984623Y-162188444D01*
X103984623Y-162188444D02*
X103889385Y-162236063D01*
X103889385Y-162236063D02*
X103508433Y-162236063D01*
X104508433Y-161712254D02*
X104508433Y-162521777D01*
X104508433Y-162521777D02*
X104556052Y-162617015D01*
X104556052Y-162617015D02*
X104603671Y-162664635D01*
X104603671Y-162664635D02*
X104698909Y-162712254D01*
X104698909Y-162712254D02*
X104889385Y-162712254D01*
X104889385Y-162712254D02*
X104984623Y-162664635D01*
X104984623Y-162664635D02*
X105032242Y-162617015D01*
X105032242Y-162617015D02*
X105079861Y-162521777D01*
X105079861Y-162521777D02*
X105079861Y-161712254D01*
X105413195Y-161712254D02*
X105984623Y-161712254D01*
X105698909Y-162712254D02*
X105698909Y-161712254D01*
X276265981Y-136973233D02*
X276265981Y-137610654D01*
X276265981Y-137610654D02*
X276303477Y-137685644D01*
X276303477Y-137685644D02*
X276340972Y-137723140D01*
X276340972Y-137723140D02*
X276415963Y-137760635D01*
X276415963Y-137760635D02*
X276565944Y-137760635D01*
X276565944Y-137760635D02*
X276640935Y-137723140D01*
X276640935Y-137723140D02*
X276678430Y-137685644D01*
X276678430Y-137685644D02*
X276715925Y-137610654D01*
X276715925Y-137610654D02*
X276715925Y-136973233D01*
X277053383Y-137048224D02*
X277090878Y-137010728D01*
X277090878Y-137010728D02*
X277165869Y-136973233D01*
X277165869Y-136973233D02*
X277353346Y-136973233D01*
X277353346Y-136973233D02*
X277428336Y-137010728D01*
X277428336Y-137010728D02*
X277465832Y-137048224D01*
X277465832Y-137048224D02*
X277503327Y-137123214D01*
X277503327Y-137123214D02*
X277503327Y-137198205D01*
X277503327Y-137198205D02*
X277465832Y-137310691D01*
X277465832Y-137310691D02*
X277015888Y-137760635D01*
X277015888Y-137760635D02*
X277503327Y-137760635D01*
X278253234Y-137760635D02*
X277803290Y-137760635D01*
X278028262Y-137760635D02*
X278028262Y-136973233D01*
X278028262Y-136973233D02*
X277953271Y-137085719D01*
X277953271Y-137085719D02*
X277878281Y-137160710D01*
X277878281Y-137160710D02*
X277803290Y-137198205D01*
X353635995Y-143834567D02*
X353635995Y-144548852D01*
X353635995Y-144548852D02*
X353588376Y-144691709D01*
X353588376Y-144691709D02*
X353493138Y-144786948D01*
X353493138Y-144786948D02*
X353350281Y-144834567D01*
X353350281Y-144834567D02*
X353255043Y-144834567D01*
X354016948Y-143834567D02*
X354635995Y-143834567D01*
X354635995Y-143834567D02*
X354302662Y-144215519D01*
X354302662Y-144215519D02*
X354445519Y-144215519D01*
X354445519Y-144215519D02*
X354540757Y-144263138D01*
X354540757Y-144263138D02*
X354588376Y-144310757D01*
X354588376Y-144310757D02*
X354635995Y-144405995D01*
X354635995Y-144405995D02*
X354635995Y-144644090D01*
X354635995Y-144644090D02*
X354588376Y-144739328D01*
X354588376Y-144739328D02*
X354540757Y-144786948D01*
X354540757Y-144786948D02*
X354445519Y-144834567D01*
X354445519Y-144834567D02*
X354159805Y-144834567D01*
X354159805Y-144834567D02*
X354064567Y-144786948D01*
X354064567Y-144786948D02*
X354016948Y-144739328D01*
X170790212Y-137430737D02*
X170790212Y-138068158D01*
X170790212Y-138068158D02*
X170827708Y-138143148D01*
X170827708Y-138143148D02*
X170865203Y-138180644D01*
X170865203Y-138180644D02*
X170940194Y-138218139D01*
X170940194Y-138218139D02*
X171090175Y-138218139D01*
X171090175Y-138218139D02*
X171165166Y-138180644D01*
X171165166Y-138180644D02*
X171202661Y-138143148D01*
X171202661Y-138143148D02*
X171240156Y-138068158D01*
X171240156Y-138068158D02*
X171240156Y-137430737D01*
X172027558Y-138218139D02*
X171577614Y-138218139D01*
X171802586Y-138218139D02*
X171802586Y-137430737D01*
X171802586Y-137430737D02*
X171727595Y-137543223D01*
X171727595Y-137543223D02*
X171652605Y-137618214D01*
X171652605Y-137618214D02*
X171577614Y-137655709D01*
X172702474Y-137430737D02*
X172552493Y-137430737D01*
X172552493Y-137430737D02*
X172477502Y-137468232D01*
X172477502Y-137468232D02*
X172440007Y-137505728D01*
X172440007Y-137505728D02*
X172365016Y-137618214D01*
X172365016Y-137618214D02*
X172327521Y-137768195D01*
X172327521Y-137768195D02*
X172327521Y-138068158D01*
X172327521Y-138068158D02*
X172365016Y-138143148D01*
X172365016Y-138143148D02*
X172402512Y-138180644D01*
X172402512Y-138180644D02*
X172477502Y-138218139D01*
X172477502Y-138218139D02*
X172627484Y-138218139D01*
X172627484Y-138218139D02*
X172702474Y-138180644D01*
X172702474Y-138180644D02*
X172739970Y-138143148D01*
X172739970Y-138143148D02*
X172777465Y-138068158D01*
X172777465Y-138068158D02*
X172777465Y-137880681D01*
X172777465Y-137880681D02*
X172739970Y-137805690D01*
X172739970Y-137805690D02*
X172702474Y-137768195D01*
X172702474Y-137768195D02*
X172627484Y-137730700D01*
X172627484Y-137730700D02*
X172477502Y-137730700D01*
X172477502Y-137730700D02*
X172402512Y-137768195D01*
X172402512Y-137768195D02*
X172365016Y-137805690D01*
X172365016Y-137805690D02*
X172327521Y-137880681D01*
X340096181Y-136998633D02*
X340096181Y-137636054D01*
X340096181Y-137636054D02*
X340133677Y-137711044D01*
X340133677Y-137711044D02*
X340171172Y-137748540D01*
X340171172Y-137748540D02*
X340246163Y-137786035D01*
X340246163Y-137786035D02*
X340396144Y-137786035D01*
X340396144Y-137786035D02*
X340471135Y-137748540D01*
X340471135Y-137748540D02*
X340508630Y-137711044D01*
X340508630Y-137711044D02*
X340546125Y-137636054D01*
X340546125Y-137636054D02*
X340546125Y-136998633D01*
X340883583Y-137073624D02*
X340921078Y-137036128D01*
X340921078Y-137036128D02*
X340996069Y-136998633D01*
X340996069Y-136998633D02*
X341183546Y-136998633D01*
X341183546Y-136998633D02*
X341258536Y-137036128D01*
X341258536Y-137036128D02*
X341296032Y-137073624D01*
X341296032Y-137073624D02*
X341333527Y-137148614D01*
X341333527Y-137148614D02*
X341333527Y-137223605D01*
X341333527Y-137223605D02*
X341296032Y-137336091D01*
X341296032Y-137336091D02*
X340846088Y-137786035D01*
X340846088Y-137786035D02*
X341333527Y-137786035D01*
X342008443Y-137261100D02*
X342008443Y-137786035D01*
X341820967Y-136961138D02*
X341633490Y-137523568D01*
X341633490Y-137523568D02*
X342120929Y-137523568D01*
D14*
X125492771Y-159207654D02*
X125474023Y-159226402D01*
X125474023Y-159226402D02*
X125417780Y-159245149D01*
X125417780Y-159245149D02*
X125380285Y-159245149D01*
X125380285Y-159245149D02*
X125324042Y-159226402D01*
X125324042Y-159226402D02*
X125286547Y-159188906D01*
X125286547Y-159188906D02*
X125267799Y-159151411D01*
X125267799Y-159151411D02*
X125249051Y-159076420D01*
X125249051Y-159076420D02*
X125249051Y-159020177D01*
X125249051Y-159020177D02*
X125267799Y-158945187D01*
X125267799Y-158945187D02*
X125286547Y-158907691D01*
X125286547Y-158907691D02*
X125324042Y-158870196D01*
X125324042Y-158870196D02*
X125380285Y-158851448D01*
X125380285Y-158851448D02*
X125417780Y-158851448D01*
X125417780Y-158851448D02*
X125474023Y-158870196D01*
X125474023Y-158870196D02*
X125492771Y-158888944D01*
X125867724Y-159245149D02*
X125642752Y-159245149D01*
X125755238Y-159245149D02*
X125755238Y-158851448D01*
X125755238Y-158851448D02*
X125717743Y-158907691D01*
X125717743Y-158907691D02*
X125680248Y-158945187D01*
X125680248Y-158945187D02*
X125642752Y-158963934D01*
X126242677Y-159245149D02*
X126017705Y-159245149D01*
X126130191Y-159245149D02*
X126130191Y-158851448D01*
X126130191Y-158851448D02*
X126092696Y-158907691D01*
X126092696Y-158907691D02*
X126055201Y-158945187D01*
X126055201Y-158945187D02*
X126017705Y-158963934D01*
D12*
X149695058Y-136973233D02*
X149695058Y-137610654D01*
X149695058Y-137610654D02*
X149732554Y-137685644D01*
X149732554Y-137685644D02*
X149770049Y-137723140D01*
X149770049Y-137723140D02*
X149845040Y-137760635D01*
X149845040Y-137760635D02*
X149995021Y-137760635D01*
X149995021Y-137760635D02*
X150070012Y-137723140D01*
X150070012Y-137723140D02*
X150107507Y-137685644D01*
X150107507Y-137685644D02*
X150145002Y-137610654D01*
X150145002Y-137610654D02*
X150145002Y-136973233D01*
X150932404Y-137760635D02*
X150482460Y-137760635D01*
X150707432Y-137760635D02*
X150707432Y-136973233D01*
X150707432Y-136973233D02*
X150632441Y-137085719D01*
X150632441Y-137085719D02*
X150557451Y-137160710D01*
X150557451Y-137160710D02*
X150482460Y-137198205D01*
X151644816Y-136973233D02*
X151269862Y-136973233D01*
X151269862Y-136973233D02*
X151232367Y-137348186D01*
X151232367Y-137348186D02*
X151269862Y-137310691D01*
X151269862Y-137310691D02*
X151344853Y-137273196D01*
X151344853Y-137273196D02*
X151532330Y-137273196D01*
X151532330Y-137273196D02*
X151607320Y-137310691D01*
X151607320Y-137310691D02*
X151644816Y-137348186D01*
X151644816Y-137348186D02*
X151682311Y-137423177D01*
X151682311Y-137423177D02*
X151682311Y-137610654D01*
X151682311Y-137610654D02*
X151644816Y-137685644D01*
X151644816Y-137685644D02*
X151607320Y-137723140D01*
X151607320Y-137723140D02*
X151532330Y-137760635D01*
X151532330Y-137760635D02*
X151344853Y-137760635D01*
X151344853Y-137760635D02*
X151269862Y-137723140D01*
X151269862Y-137723140D02*
X151232367Y-137685644D01*
D14*
X319761900Y-133925667D02*
X319743152Y-133944415D01*
X319743152Y-133944415D02*
X319686909Y-133963162D01*
X319686909Y-133963162D02*
X319649414Y-133963162D01*
X319649414Y-133963162D02*
X319593171Y-133944415D01*
X319593171Y-133944415D02*
X319555676Y-133906919D01*
X319555676Y-133906919D02*
X319536928Y-133869424D01*
X319536928Y-133869424D02*
X319518180Y-133794433D01*
X319518180Y-133794433D02*
X319518180Y-133738190D01*
X319518180Y-133738190D02*
X319536928Y-133663200D01*
X319536928Y-133663200D02*
X319555676Y-133625704D01*
X319555676Y-133625704D02*
X319593171Y-133588209D01*
X319593171Y-133588209D02*
X319649414Y-133569461D01*
X319649414Y-133569461D02*
X319686909Y-133569461D01*
X319686909Y-133569461D02*
X319743152Y-133588209D01*
X319743152Y-133588209D02*
X319761900Y-133606957D01*
X319911881Y-133606957D02*
X319930629Y-133588209D01*
X319930629Y-133588209D02*
X319968124Y-133569461D01*
X319968124Y-133569461D02*
X320061863Y-133569461D01*
X320061863Y-133569461D02*
X320099358Y-133588209D01*
X320099358Y-133588209D02*
X320118106Y-133606957D01*
X320118106Y-133606957D02*
X320136853Y-133644452D01*
X320136853Y-133644452D02*
X320136853Y-133681947D01*
X320136853Y-133681947D02*
X320118106Y-133738190D01*
X320118106Y-133738190D02*
X319893134Y-133963162D01*
X319893134Y-133963162D02*
X320136853Y-133963162D01*
X320268087Y-133569461D02*
X320511806Y-133569461D01*
X320511806Y-133569461D02*
X320380573Y-133719443D01*
X320380573Y-133719443D02*
X320436816Y-133719443D01*
X320436816Y-133719443D02*
X320474311Y-133738190D01*
X320474311Y-133738190D02*
X320493059Y-133756938D01*
X320493059Y-133756938D02*
X320511806Y-133794433D01*
X320511806Y-133794433D02*
X320511806Y-133888172D01*
X320511806Y-133888172D02*
X320493059Y-133925667D01*
X320493059Y-133925667D02*
X320474311Y-133944415D01*
X320474311Y-133944415D02*
X320436816Y-133963162D01*
X320436816Y-133963162D02*
X320324330Y-133963162D01*
X320324330Y-133963162D02*
X320286834Y-133944415D01*
X320286834Y-133944415D02*
X320268087Y-133925667D01*
D12*
X252304071Y-155005000D02*
X252304071Y-155642421D01*
X252304071Y-155642421D02*
X252341567Y-155717411D01*
X252341567Y-155717411D02*
X252379062Y-155754907D01*
X252379062Y-155754907D02*
X252454053Y-155792402D01*
X252454053Y-155792402D02*
X252604034Y-155792402D01*
X252604034Y-155792402D02*
X252679025Y-155754907D01*
X252679025Y-155754907D02*
X252716520Y-155717411D01*
X252716520Y-155717411D02*
X252754015Y-155642421D01*
X252754015Y-155642421D02*
X252754015Y-155005000D01*
X253503922Y-155005000D02*
X253128968Y-155005000D01*
X253128968Y-155005000D02*
X253091473Y-155379953D01*
X253091473Y-155379953D02*
X253128968Y-155342458D01*
X253128968Y-155342458D02*
X253203959Y-155304963D01*
X253203959Y-155304963D02*
X253391436Y-155304963D01*
X253391436Y-155304963D02*
X253466426Y-155342458D01*
X253466426Y-155342458D02*
X253503922Y-155379953D01*
X253503922Y-155379953D02*
X253541417Y-155454944D01*
X253541417Y-155454944D02*
X253541417Y-155642421D01*
X253541417Y-155642421D02*
X253503922Y-155717411D01*
X253503922Y-155717411D02*
X253466426Y-155754907D01*
X253466426Y-155754907D02*
X253391436Y-155792402D01*
X253391436Y-155792402D02*
X253203959Y-155792402D01*
X253203959Y-155792402D02*
X253128968Y-155754907D01*
X253128968Y-155754907D02*
X253091473Y-155717411D01*
D14*
X231136429Y-159180454D02*
X231117681Y-159199202D01*
X231117681Y-159199202D02*
X231061438Y-159217949D01*
X231061438Y-159217949D02*
X231023943Y-159217949D01*
X231023943Y-159217949D02*
X230967700Y-159199202D01*
X230967700Y-159199202D02*
X230930205Y-159161706D01*
X230930205Y-159161706D02*
X230911457Y-159124211D01*
X230911457Y-159124211D02*
X230892709Y-159049220D01*
X230892709Y-159049220D02*
X230892709Y-158992977D01*
X230892709Y-158992977D02*
X230911457Y-158917987D01*
X230911457Y-158917987D02*
X230930205Y-158880491D01*
X230930205Y-158880491D02*
X230967700Y-158842996D01*
X230967700Y-158842996D02*
X231023943Y-158824248D01*
X231023943Y-158824248D02*
X231061438Y-158824248D01*
X231061438Y-158824248D02*
X231117681Y-158842996D01*
X231117681Y-158842996D02*
X231136429Y-158861744D01*
X231473887Y-158824248D02*
X231398896Y-158824248D01*
X231398896Y-158824248D02*
X231361401Y-158842996D01*
X231361401Y-158842996D02*
X231342653Y-158861744D01*
X231342653Y-158861744D02*
X231305158Y-158917987D01*
X231305158Y-158917987D02*
X231286410Y-158992977D01*
X231286410Y-158992977D02*
X231286410Y-159142959D01*
X231286410Y-159142959D02*
X231305158Y-159180454D01*
X231305158Y-159180454D02*
X231323906Y-159199202D01*
X231323906Y-159199202D02*
X231361401Y-159217949D01*
X231361401Y-159217949D02*
X231436392Y-159217949D01*
X231436392Y-159217949D02*
X231473887Y-159199202D01*
X231473887Y-159199202D02*
X231492635Y-159180454D01*
X231492635Y-159180454D02*
X231511382Y-159142959D01*
X231511382Y-159142959D02*
X231511382Y-159049220D01*
X231511382Y-159049220D02*
X231492635Y-159011725D01*
X231492635Y-159011725D02*
X231473887Y-158992977D01*
X231473887Y-158992977D02*
X231436392Y-158974230D01*
X231436392Y-158974230D02*
X231361401Y-158974230D01*
X231361401Y-158974230D02*
X231323906Y-158992977D01*
X231323906Y-158992977D02*
X231305158Y-159011725D01*
X231305158Y-159011725D02*
X231286410Y-159049220D01*
D12*
X210113764Y-155005000D02*
X210113764Y-155642421D01*
X210113764Y-155642421D02*
X210151260Y-155717411D01*
X210151260Y-155717411D02*
X210188755Y-155754907D01*
X210188755Y-155754907D02*
X210263746Y-155792402D01*
X210263746Y-155792402D02*
X210413727Y-155792402D01*
X210413727Y-155792402D02*
X210488718Y-155754907D01*
X210488718Y-155754907D02*
X210526213Y-155717411D01*
X210526213Y-155717411D02*
X210563708Y-155642421D01*
X210563708Y-155642421D02*
X210563708Y-155005000D01*
X210863671Y-155005000D02*
X211388605Y-155005000D01*
X211388605Y-155005000D02*
X211051147Y-155792402D01*
X336684686Y-155008600D02*
X336684686Y-155646021D01*
X336684686Y-155646021D02*
X336722182Y-155721011D01*
X336722182Y-155721011D02*
X336759677Y-155758507D01*
X336759677Y-155758507D02*
X336834668Y-155796002D01*
X336834668Y-155796002D02*
X336984649Y-155796002D01*
X336984649Y-155796002D02*
X337059640Y-155758507D01*
X337059640Y-155758507D02*
X337097135Y-155721011D01*
X337097135Y-155721011D02*
X337134630Y-155646021D01*
X337134630Y-155646021D02*
X337134630Y-155008600D01*
X337922032Y-155796002D02*
X337472088Y-155796002D01*
X337697060Y-155796002D02*
X337697060Y-155008600D01*
X337697060Y-155008600D02*
X337622069Y-155121086D01*
X337622069Y-155121086D02*
X337547079Y-155196077D01*
X337547079Y-155196077D02*
X337472088Y-155233572D01*
X146453349Y-155005000D02*
X146453349Y-155642421D01*
X146453349Y-155642421D02*
X146490845Y-155717411D01*
X146490845Y-155717411D02*
X146528340Y-155754907D01*
X146528340Y-155754907D02*
X146603331Y-155792402D01*
X146603331Y-155792402D02*
X146753312Y-155792402D01*
X146753312Y-155792402D02*
X146828303Y-155754907D01*
X146828303Y-155754907D02*
X146865798Y-155717411D01*
X146865798Y-155717411D02*
X146903293Y-155642421D01*
X146903293Y-155642421D02*
X146903293Y-155005000D01*
X147690695Y-155792402D02*
X147240751Y-155792402D01*
X147465723Y-155792402D02*
X147465723Y-155005000D01*
X147465723Y-155005000D02*
X147390732Y-155117486D01*
X147390732Y-155117486D02*
X147315742Y-155192477D01*
X147315742Y-155192477D02*
X147240751Y-155229972D01*
X148178135Y-155005000D02*
X148253125Y-155005000D01*
X148253125Y-155005000D02*
X148328116Y-155042495D01*
X148328116Y-155042495D02*
X148365611Y-155079991D01*
X148365611Y-155079991D02*
X148403107Y-155154981D01*
X148403107Y-155154981D02*
X148440602Y-155304963D01*
X148440602Y-155304963D02*
X148440602Y-155492439D01*
X148440602Y-155492439D02*
X148403107Y-155642421D01*
X148403107Y-155642421D02*
X148365611Y-155717411D01*
X148365611Y-155717411D02*
X148328116Y-155754907D01*
X148328116Y-155754907D02*
X148253125Y-155792402D01*
X148253125Y-155792402D02*
X148178135Y-155792402D01*
X148178135Y-155792402D02*
X148103144Y-155754907D01*
X148103144Y-155754907D02*
X148065649Y-155717411D01*
X148065649Y-155717411D02*
X148028153Y-155642421D01*
X148028153Y-155642421D02*
X147990658Y-155492439D01*
X147990658Y-155492439D02*
X147990658Y-155304963D01*
X147990658Y-155304963D02*
X148028153Y-155154981D01*
X148028153Y-155154981D02*
X148065649Y-155079991D01*
X148065649Y-155079991D02*
X148103144Y-155042495D01*
X148103144Y-155042495D02*
X148178135Y-155005000D01*
D14*
X172123246Y-133952867D02*
X172104498Y-133971615D01*
X172104498Y-133971615D02*
X172048255Y-133990362D01*
X172048255Y-133990362D02*
X172010760Y-133990362D01*
X172010760Y-133990362D02*
X171954517Y-133971615D01*
X171954517Y-133971615D02*
X171917022Y-133934119D01*
X171917022Y-133934119D02*
X171898274Y-133896624D01*
X171898274Y-133896624D02*
X171879526Y-133821633D01*
X171879526Y-133821633D02*
X171879526Y-133765390D01*
X171879526Y-133765390D02*
X171898274Y-133690400D01*
X171898274Y-133690400D02*
X171917022Y-133652904D01*
X171917022Y-133652904D02*
X171954517Y-133615409D01*
X171954517Y-133615409D02*
X172010760Y-133596661D01*
X172010760Y-133596661D02*
X172048255Y-133596661D01*
X172048255Y-133596661D02*
X172104498Y-133615409D01*
X172104498Y-133615409D02*
X172123246Y-133634157D01*
X172498199Y-133990362D02*
X172273227Y-133990362D01*
X172385713Y-133990362D02*
X172385713Y-133596661D01*
X172385713Y-133596661D02*
X172348218Y-133652904D01*
X172348218Y-133652904D02*
X172310723Y-133690400D01*
X172310723Y-133690400D02*
X172273227Y-133709147D01*
X172835657Y-133596661D02*
X172760666Y-133596661D01*
X172760666Y-133596661D02*
X172723171Y-133615409D01*
X172723171Y-133615409D02*
X172704423Y-133634157D01*
X172704423Y-133634157D02*
X172666928Y-133690400D01*
X172666928Y-133690400D02*
X172648180Y-133765390D01*
X172648180Y-133765390D02*
X172648180Y-133915372D01*
X172648180Y-133915372D02*
X172666928Y-133952867D01*
X172666928Y-133952867D02*
X172685676Y-133971615D01*
X172685676Y-133971615D02*
X172723171Y-133990362D01*
X172723171Y-133990362D02*
X172798162Y-133990362D01*
X172798162Y-133990362D02*
X172835657Y-133971615D01*
X172835657Y-133971615D02*
X172854405Y-133952867D01*
X172854405Y-133952867D02*
X172873152Y-133915372D01*
X172873152Y-133915372D02*
X172873152Y-133821633D01*
X172873152Y-133821633D02*
X172854405Y-133784138D01*
X172854405Y-133784138D02*
X172835657Y-133765390D01*
X172835657Y-133765390D02*
X172798162Y-133746643D01*
X172798162Y-133746643D02*
X172723171Y-133746643D01*
X172723171Y-133746643D02*
X172685676Y-133765390D01*
X172685676Y-133765390D02*
X172666928Y-133784138D01*
X172666928Y-133784138D02*
X172648180Y-133821633D01*
X167862720Y-159180454D02*
X167843972Y-159199202D01*
X167843972Y-159199202D02*
X167787729Y-159217949D01*
X167787729Y-159217949D02*
X167750234Y-159217949D01*
X167750234Y-159217949D02*
X167693991Y-159199202D01*
X167693991Y-159199202D02*
X167656496Y-159161706D01*
X167656496Y-159161706D02*
X167637748Y-159124211D01*
X167637748Y-159124211D02*
X167619000Y-159049220D01*
X167619000Y-159049220D02*
X167619000Y-158992977D01*
X167619000Y-158992977D02*
X167637748Y-158917987D01*
X167637748Y-158917987D02*
X167656496Y-158880491D01*
X167656496Y-158880491D02*
X167693991Y-158842996D01*
X167693991Y-158842996D02*
X167750234Y-158824248D01*
X167750234Y-158824248D02*
X167787729Y-158824248D01*
X167787729Y-158824248D02*
X167843972Y-158842996D01*
X167843972Y-158842996D02*
X167862720Y-158861744D01*
X168050197Y-159217949D02*
X168125187Y-159217949D01*
X168125187Y-159217949D02*
X168162683Y-159199202D01*
X168162683Y-159199202D02*
X168181430Y-159180454D01*
X168181430Y-159180454D02*
X168218926Y-159124211D01*
X168218926Y-159124211D02*
X168237673Y-159049220D01*
X168237673Y-159049220D02*
X168237673Y-158899239D01*
X168237673Y-158899239D02*
X168218926Y-158861744D01*
X168218926Y-158861744D02*
X168200178Y-158842996D01*
X168200178Y-158842996D02*
X168162683Y-158824248D01*
X168162683Y-158824248D02*
X168087692Y-158824248D01*
X168087692Y-158824248D02*
X168050197Y-158842996D01*
X168050197Y-158842996D02*
X168031449Y-158861744D01*
X168031449Y-158861744D02*
X168012701Y-158899239D01*
X168012701Y-158899239D02*
X168012701Y-158992977D01*
X168012701Y-158992977D02*
X168031449Y-159030473D01*
X168031449Y-159030473D02*
X168050197Y-159049220D01*
X168050197Y-159049220D02*
X168087692Y-159067968D01*
X168087692Y-159067968D02*
X168162683Y-159067968D01*
X168162683Y-159067968D02*
X168200178Y-159049220D01*
X168200178Y-159049220D02*
X168218926Y-159030473D01*
X168218926Y-159030473D02*
X168237673Y-158992977D01*
D12*
X234075674Y-136973234D02*
X234075674Y-137610655D01*
X234075674Y-137610655D02*
X234113170Y-137685645D01*
X234113170Y-137685645D02*
X234150665Y-137723141D01*
X234150665Y-137723141D02*
X234225656Y-137760636D01*
X234225656Y-137760636D02*
X234375637Y-137760636D01*
X234375637Y-137760636D02*
X234450628Y-137723141D01*
X234450628Y-137723141D02*
X234488123Y-137685645D01*
X234488123Y-137685645D02*
X234525618Y-137610655D01*
X234525618Y-137610655D02*
X234525618Y-136973234D01*
X235313020Y-137760636D02*
X234863076Y-137760636D01*
X235088048Y-137760636D02*
X235088048Y-136973234D01*
X235088048Y-136973234D02*
X235013057Y-137085720D01*
X235013057Y-137085720D02*
X234938067Y-137160711D01*
X234938067Y-137160711D02*
X234863076Y-137198206D01*
X235687974Y-137760636D02*
X235837955Y-137760636D01*
X235837955Y-137760636D02*
X235912946Y-137723141D01*
X235912946Y-137723141D02*
X235950441Y-137685645D01*
X235950441Y-137685645D02*
X236025432Y-137573159D01*
X236025432Y-137573159D02*
X236062927Y-137423178D01*
X236062927Y-137423178D02*
X236062927Y-137123215D01*
X236062927Y-137123215D02*
X236025432Y-137048225D01*
X236025432Y-137048225D02*
X235987936Y-137010729D01*
X235987936Y-137010729D02*
X235912946Y-136973234D01*
X235912946Y-136973234D02*
X235762964Y-136973234D01*
X235762964Y-136973234D02*
X235687974Y-137010729D01*
X235687974Y-137010729D02*
X235650478Y-137048225D01*
X235650478Y-137048225D02*
X235612983Y-137123215D01*
X235612983Y-137123215D02*
X235612983Y-137310692D01*
X235612983Y-137310692D02*
X235650478Y-137385683D01*
X235650478Y-137385683D02*
X235687974Y-137423178D01*
X235687974Y-137423178D02*
X235762964Y-137460673D01*
X235762964Y-137460673D02*
X235912946Y-137460673D01*
X235912946Y-137460673D02*
X235987936Y-137423178D01*
X235987936Y-137423178D02*
X236025432Y-137385683D01*
X236025432Y-137385683D02*
X236062927Y-137310692D01*
D14*
X151032009Y-133952867D02*
X151013261Y-133971615D01*
X151013261Y-133971615D02*
X150957018Y-133990362D01*
X150957018Y-133990362D02*
X150919523Y-133990362D01*
X150919523Y-133990362D02*
X150863280Y-133971615D01*
X150863280Y-133971615D02*
X150825785Y-133934119D01*
X150825785Y-133934119D02*
X150807037Y-133896624D01*
X150807037Y-133896624D02*
X150788289Y-133821633D01*
X150788289Y-133821633D02*
X150788289Y-133765390D01*
X150788289Y-133765390D02*
X150807037Y-133690400D01*
X150807037Y-133690400D02*
X150825785Y-133652904D01*
X150825785Y-133652904D02*
X150863280Y-133615409D01*
X150863280Y-133615409D02*
X150919523Y-133596661D01*
X150919523Y-133596661D02*
X150957018Y-133596661D01*
X150957018Y-133596661D02*
X151013261Y-133615409D01*
X151013261Y-133615409D02*
X151032009Y-133634157D01*
X151406962Y-133990362D02*
X151181990Y-133990362D01*
X151294476Y-133990362D02*
X151294476Y-133596661D01*
X151294476Y-133596661D02*
X151256981Y-133652904D01*
X151256981Y-133652904D02*
X151219486Y-133690400D01*
X151219486Y-133690400D02*
X151181990Y-133709147D01*
X151763168Y-133596661D02*
X151575691Y-133596661D01*
X151575691Y-133596661D02*
X151556943Y-133784138D01*
X151556943Y-133784138D02*
X151575691Y-133765390D01*
X151575691Y-133765390D02*
X151613186Y-133746643D01*
X151613186Y-133746643D02*
X151706925Y-133746643D01*
X151706925Y-133746643D02*
X151744420Y-133765390D01*
X151744420Y-133765390D02*
X151763168Y-133784138D01*
X151763168Y-133784138D02*
X151781915Y-133821633D01*
X151781915Y-133821633D02*
X151781915Y-133915372D01*
X151781915Y-133915372D02*
X151763168Y-133952867D01*
X151763168Y-133952867D02*
X151744420Y-133971615D01*
X151744420Y-133971615D02*
X151706925Y-133990362D01*
X151706925Y-133990362D02*
X151613186Y-133990362D01*
X151613186Y-133990362D02*
X151575691Y-133971615D01*
X151575691Y-133971615D02*
X151556943Y-133952867D01*
D12*
X255170828Y-137183006D02*
X255170828Y-137820427D01*
X255170828Y-137820427D02*
X255208324Y-137895417D01*
X255208324Y-137895417D02*
X255245819Y-137932913D01*
X255245819Y-137932913D02*
X255320810Y-137970408D01*
X255320810Y-137970408D02*
X255470791Y-137970408D01*
X255470791Y-137970408D02*
X255545782Y-137932913D01*
X255545782Y-137932913D02*
X255583277Y-137895417D01*
X255583277Y-137895417D02*
X255620772Y-137820427D01*
X255620772Y-137820427D02*
X255620772Y-137183006D01*
X255958230Y-137257997D02*
X255995725Y-137220501D01*
X255995725Y-137220501D02*
X256070716Y-137183006D01*
X256070716Y-137183006D02*
X256258193Y-137183006D01*
X256258193Y-137183006D02*
X256333183Y-137220501D01*
X256333183Y-137220501D02*
X256370679Y-137257997D01*
X256370679Y-137257997D02*
X256408174Y-137332987D01*
X256408174Y-137332987D02*
X256408174Y-137407978D01*
X256408174Y-137407978D02*
X256370679Y-137520464D01*
X256370679Y-137520464D02*
X255920735Y-137970408D01*
X255920735Y-137970408D02*
X256408174Y-137970408D01*
X256895614Y-137183006D02*
X256970604Y-137183006D01*
X256970604Y-137183006D02*
X257045595Y-137220501D01*
X257045595Y-137220501D02*
X257083090Y-137257997D01*
X257083090Y-137257997D02*
X257120586Y-137332987D01*
X257120586Y-137332987D02*
X257158081Y-137482969D01*
X257158081Y-137482969D02*
X257158081Y-137670445D01*
X257158081Y-137670445D02*
X257120586Y-137820427D01*
X257120586Y-137820427D02*
X257083090Y-137895417D01*
X257083090Y-137895417D02*
X257045595Y-137932913D01*
X257045595Y-137932913D02*
X256970604Y-137970408D01*
X256970604Y-137970408D02*
X256895614Y-137970408D01*
X256895614Y-137970408D02*
X256820623Y-137932913D01*
X256820623Y-137932913D02*
X256783128Y-137895417D01*
X256783128Y-137895417D02*
X256745632Y-137820427D01*
X256745632Y-137820427D02*
X256708137Y-137670445D01*
X256708137Y-137670445D02*
X256708137Y-137482969D01*
X256708137Y-137482969D02*
X256745632Y-137332987D01*
X256745632Y-137332987D02*
X256783128Y-137257997D01*
X256783128Y-137257997D02*
X256820623Y-137220501D01*
X256820623Y-137220501D02*
X256895614Y-137183006D01*
X189018610Y-154795227D02*
X189018610Y-155432648D01*
X189018610Y-155432648D02*
X189056106Y-155507638D01*
X189056106Y-155507638D02*
X189093601Y-155545134D01*
X189093601Y-155545134D02*
X189168592Y-155582629D01*
X189168592Y-155582629D02*
X189318573Y-155582629D01*
X189318573Y-155582629D02*
X189393564Y-155545134D01*
X189393564Y-155545134D02*
X189431059Y-155507638D01*
X189431059Y-155507638D02*
X189468554Y-155432648D01*
X189468554Y-155432648D02*
X189468554Y-154795227D01*
X189955993Y-155132685D02*
X189881003Y-155095190D01*
X189881003Y-155095190D02*
X189843507Y-155057694D01*
X189843507Y-155057694D02*
X189806012Y-154982704D01*
X189806012Y-154982704D02*
X189806012Y-154945208D01*
X189806012Y-154945208D02*
X189843507Y-154870218D01*
X189843507Y-154870218D02*
X189881003Y-154832722D01*
X189881003Y-154832722D02*
X189955993Y-154795227D01*
X189955993Y-154795227D02*
X190105975Y-154795227D01*
X190105975Y-154795227D02*
X190180965Y-154832722D01*
X190180965Y-154832722D02*
X190218461Y-154870218D01*
X190218461Y-154870218D02*
X190255956Y-154945208D01*
X190255956Y-154945208D02*
X190255956Y-154982704D01*
X190255956Y-154982704D02*
X190218461Y-155057694D01*
X190218461Y-155057694D02*
X190180965Y-155095190D01*
X190180965Y-155095190D02*
X190105975Y-155132685D01*
X190105975Y-155132685D02*
X189955993Y-155132685D01*
X189955993Y-155132685D02*
X189881003Y-155170180D01*
X189881003Y-155170180D02*
X189843507Y-155207676D01*
X189843507Y-155207676D02*
X189806012Y-155282666D01*
X189806012Y-155282666D02*
X189806012Y-155432648D01*
X189806012Y-155432648D02*
X189843507Y-155507638D01*
X189843507Y-155507638D02*
X189881003Y-155545134D01*
X189881003Y-155545134D02*
X189955993Y-155582629D01*
X189955993Y-155582629D02*
X190105975Y-155582629D01*
X190105975Y-155582629D02*
X190180965Y-155545134D01*
X190180965Y-155545134D02*
X190218461Y-155507638D01*
X190218461Y-155507638D02*
X190255956Y-155432648D01*
X190255956Y-155432648D02*
X190255956Y-155282666D01*
X190255956Y-155282666D02*
X190218461Y-155207676D01*
X190218461Y-155207676D02*
X190180965Y-155170180D01*
X190180965Y-155170180D02*
X190105975Y-155132685D01*
X167923456Y-155005000D02*
X167923456Y-155642421D01*
X167923456Y-155642421D02*
X167960952Y-155717411D01*
X167960952Y-155717411D02*
X167998447Y-155754907D01*
X167998447Y-155754907D02*
X168073438Y-155792402D01*
X168073438Y-155792402D02*
X168223419Y-155792402D01*
X168223419Y-155792402D02*
X168298410Y-155754907D01*
X168298410Y-155754907D02*
X168335905Y-155717411D01*
X168335905Y-155717411D02*
X168373400Y-155642421D01*
X168373400Y-155642421D02*
X168373400Y-155005000D01*
X168785849Y-155792402D02*
X168935830Y-155792402D01*
X168935830Y-155792402D02*
X169010821Y-155754907D01*
X169010821Y-155754907D02*
X169048316Y-155717411D01*
X169048316Y-155717411D02*
X169123307Y-155604925D01*
X169123307Y-155604925D02*
X169160802Y-155454944D01*
X169160802Y-155454944D02*
X169160802Y-155154981D01*
X169160802Y-155154981D02*
X169123307Y-155079991D01*
X169123307Y-155079991D02*
X169085811Y-155042495D01*
X169085811Y-155042495D02*
X169010821Y-155005000D01*
X169010821Y-155005000D02*
X168860839Y-155005000D01*
X168860839Y-155005000D02*
X168785849Y-155042495D01*
X168785849Y-155042495D02*
X168748353Y-155079991D01*
X168748353Y-155079991D02*
X168710858Y-155154981D01*
X168710858Y-155154981D02*
X168710858Y-155342458D01*
X168710858Y-155342458D02*
X168748353Y-155417449D01*
X168748353Y-155417449D02*
X168785849Y-155454944D01*
X168785849Y-155454944D02*
X168860839Y-155492439D01*
X168860839Y-155492439D02*
X169010821Y-155492439D01*
X169010821Y-155492439D02*
X169085811Y-155454944D01*
X169085811Y-155454944D02*
X169123307Y-155417449D01*
X169123307Y-155417449D02*
X169160802Y-155342458D01*
X231208917Y-155005000D02*
X231208917Y-155642421D01*
X231208917Y-155642421D02*
X231246413Y-155717411D01*
X231246413Y-155717411D02*
X231283908Y-155754907D01*
X231283908Y-155754907D02*
X231358899Y-155792402D01*
X231358899Y-155792402D02*
X231508880Y-155792402D01*
X231508880Y-155792402D02*
X231583871Y-155754907D01*
X231583871Y-155754907D02*
X231621366Y-155717411D01*
X231621366Y-155717411D02*
X231658861Y-155642421D01*
X231658861Y-155642421D02*
X231658861Y-155005000D01*
X232371272Y-155005000D02*
X232221291Y-155005000D01*
X232221291Y-155005000D02*
X232146300Y-155042495D01*
X232146300Y-155042495D02*
X232108805Y-155079991D01*
X232108805Y-155079991D02*
X232033814Y-155192477D01*
X232033814Y-155192477D02*
X231996319Y-155342458D01*
X231996319Y-155342458D02*
X231996319Y-155642421D01*
X231996319Y-155642421D02*
X232033814Y-155717411D01*
X232033814Y-155717411D02*
X232071310Y-155754907D01*
X232071310Y-155754907D02*
X232146300Y-155792402D01*
X232146300Y-155792402D02*
X232296282Y-155792402D01*
X232296282Y-155792402D02*
X232371272Y-155754907D01*
X232371272Y-155754907D02*
X232408768Y-155717411D01*
X232408768Y-155717411D02*
X232446263Y-155642421D01*
X232446263Y-155642421D02*
X232446263Y-155454944D01*
X232446263Y-155454944D02*
X232408768Y-155379953D01*
X232408768Y-155379953D02*
X232371272Y-155342458D01*
X232371272Y-155342458D02*
X232296282Y-155304963D01*
X232296282Y-155304963D02*
X232146300Y-155304963D01*
X232146300Y-155304963D02*
X232071310Y-155342458D01*
X232071310Y-155342458D02*
X232033814Y-155379953D01*
X232033814Y-155379953D02*
X231996319Y-155454944D01*
X98009061Y-152579711D02*
X97795727Y-152274949D01*
X97643346Y-152579711D02*
X97643346Y-151939711D01*
X97643346Y-151939711D02*
X97887156Y-151939711D01*
X97887156Y-151939711D02*
X97948108Y-151970187D01*
X97948108Y-151970187D02*
X97978585Y-152000663D01*
X97978585Y-152000663D02*
X98009061Y-152061615D01*
X98009061Y-152061615D02*
X98009061Y-152153044D01*
X98009061Y-152153044D02*
X97978585Y-152213996D01*
X97978585Y-152213996D02*
X97948108Y-152244473D01*
X97948108Y-152244473D02*
X97887156Y-152274949D01*
X97887156Y-152274949D02*
X97643346Y-152274949D01*
X98618585Y-152579711D02*
X98252870Y-152579711D01*
X98435727Y-152579711D02*
X98435727Y-151939711D01*
X98435727Y-151939711D02*
X98374775Y-152031139D01*
X98374775Y-152031139D02*
X98313823Y-152092092D01*
X98313823Y-152092092D02*
X98252870Y-152122568D01*
X350578316Y-161722645D02*
X350578316Y-162436930D01*
X350578316Y-162436930D02*
X350530697Y-162579787D01*
X350530697Y-162579787D02*
X350435459Y-162675026D01*
X350435459Y-162675026D02*
X350292602Y-162722645D01*
X350292602Y-162722645D02*
X350197364Y-162722645D01*
X351006888Y-161817883D02*
X351054507Y-161770264D01*
X351054507Y-161770264D02*
X351149745Y-161722645D01*
X351149745Y-161722645D02*
X351387840Y-161722645D01*
X351387840Y-161722645D02*
X351483078Y-161770264D01*
X351483078Y-161770264D02*
X351530697Y-161817883D01*
X351530697Y-161817883D02*
X351578316Y-161913121D01*
X351578316Y-161913121D02*
X351578316Y-162008359D01*
X351578316Y-162008359D02*
X351530697Y-162151216D01*
X351530697Y-162151216D02*
X350959269Y-162722645D01*
X350959269Y-162722645D02*
X351578316Y-162722645D01*
D14*
X294410138Y-159180454D02*
X294391390Y-159199202D01*
X294391390Y-159199202D02*
X294335147Y-159217949D01*
X294335147Y-159217949D02*
X294297652Y-159217949D01*
X294297652Y-159217949D02*
X294241409Y-159199202D01*
X294241409Y-159199202D02*
X294203914Y-159161706D01*
X294203914Y-159161706D02*
X294185166Y-159124211D01*
X294185166Y-159124211D02*
X294166418Y-159049220D01*
X294166418Y-159049220D02*
X294166418Y-158992977D01*
X294166418Y-158992977D02*
X294185166Y-158917987D01*
X294185166Y-158917987D02*
X294203914Y-158880491D01*
X294203914Y-158880491D02*
X294241409Y-158842996D01*
X294241409Y-158842996D02*
X294297652Y-158824248D01*
X294297652Y-158824248D02*
X294335147Y-158824248D01*
X294335147Y-158824248D02*
X294391390Y-158842996D01*
X294391390Y-158842996D02*
X294410138Y-158861744D01*
X294541372Y-158824248D02*
X294785091Y-158824248D01*
X294785091Y-158824248D02*
X294653858Y-158974230D01*
X294653858Y-158974230D02*
X294710101Y-158974230D01*
X294710101Y-158974230D02*
X294747596Y-158992977D01*
X294747596Y-158992977D02*
X294766344Y-159011725D01*
X294766344Y-159011725D02*
X294785091Y-159049220D01*
X294785091Y-159049220D02*
X294785091Y-159142959D01*
X294785091Y-159142959D02*
X294766344Y-159180454D01*
X294766344Y-159180454D02*
X294747596Y-159199202D01*
X294747596Y-159199202D02*
X294710101Y-159217949D01*
X294710101Y-159217949D02*
X294597615Y-159217949D01*
X294597615Y-159217949D02*
X294560119Y-159199202D01*
X294560119Y-159199202D02*
X294541372Y-159180454D01*
X146584008Y-159180454D02*
X146565260Y-159199202D01*
X146565260Y-159199202D02*
X146509017Y-159217949D01*
X146509017Y-159217949D02*
X146471522Y-159217949D01*
X146471522Y-159217949D02*
X146415279Y-159199202D01*
X146415279Y-159199202D02*
X146377784Y-159161706D01*
X146377784Y-159161706D02*
X146359036Y-159124211D01*
X146359036Y-159124211D02*
X146340288Y-159049220D01*
X146340288Y-159049220D02*
X146340288Y-158992977D01*
X146340288Y-158992977D02*
X146359036Y-158917987D01*
X146359036Y-158917987D02*
X146377784Y-158880491D01*
X146377784Y-158880491D02*
X146415279Y-158842996D01*
X146415279Y-158842996D02*
X146471522Y-158824248D01*
X146471522Y-158824248D02*
X146509017Y-158824248D01*
X146509017Y-158824248D02*
X146565260Y-158842996D01*
X146565260Y-158842996D02*
X146584008Y-158861744D01*
X146958961Y-159217949D02*
X146733989Y-159217949D01*
X146846475Y-159217949D02*
X146846475Y-158824248D01*
X146846475Y-158824248D02*
X146808980Y-158880491D01*
X146808980Y-158880491D02*
X146771485Y-158917987D01*
X146771485Y-158917987D02*
X146733989Y-158936734D01*
X147202681Y-158824248D02*
X147240176Y-158824248D01*
X147240176Y-158824248D02*
X147277671Y-158842996D01*
X147277671Y-158842996D02*
X147296419Y-158861744D01*
X147296419Y-158861744D02*
X147315167Y-158899239D01*
X147315167Y-158899239D02*
X147333914Y-158974230D01*
X147333914Y-158974230D02*
X147333914Y-159067968D01*
X147333914Y-159067968D02*
X147315167Y-159142959D01*
X147315167Y-159142959D02*
X147296419Y-159180454D01*
X147296419Y-159180454D02*
X147277671Y-159199202D01*
X147277671Y-159199202D02*
X147240176Y-159217949D01*
X147240176Y-159217949D02*
X147202681Y-159217949D01*
X147202681Y-159217949D02*
X147165185Y-159199202D01*
X147165185Y-159199202D02*
X147146438Y-159180454D01*
X147146438Y-159180454D02*
X147127690Y-159142959D01*
X147127690Y-159142959D02*
X147108942Y-159067968D01*
X147108942Y-159067968D02*
X147108942Y-158974230D01*
X147108942Y-158974230D02*
X147127690Y-158899239D01*
X147127690Y-158899239D02*
X147146438Y-158861744D01*
X147146438Y-158861744D02*
X147165185Y-158842996D01*
X147165185Y-158842996D02*
X147202681Y-158824248D01*
D12*
X125358196Y-155006800D02*
X125358196Y-155644221D01*
X125358196Y-155644221D02*
X125395692Y-155719211D01*
X125395692Y-155719211D02*
X125433187Y-155756707D01*
X125433187Y-155756707D02*
X125508178Y-155794202D01*
X125508178Y-155794202D02*
X125658159Y-155794202D01*
X125658159Y-155794202D02*
X125733150Y-155756707D01*
X125733150Y-155756707D02*
X125770645Y-155719211D01*
X125770645Y-155719211D02*
X125808140Y-155644221D01*
X125808140Y-155644221D02*
X125808140Y-155006800D01*
X126595542Y-155794202D02*
X126145598Y-155794202D01*
X126370570Y-155794202D02*
X126370570Y-155006800D01*
X126370570Y-155006800D02*
X126295579Y-155119286D01*
X126295579Y-155119286D02*
X126220589Y-155194277D01*
X126220589Y-155194277D02*
X126145598Y-155231772D01*
X127345449Y-155794202D02*
X126895505Y-155794202D01*
X127120477Y-155794202D02*
X127120477Y-155006800D01*
X127120477Y-155006800D02*
X127045486Y-155119286D01*
X127045486Y-155119286D02*
X126970496Y-155194277D01*
X126970496Y-155194277D02*
X126895505Y-155231772D01*
X363347024Y-131347168D02*
X363347024Y-130347168D01*
X363347024Y-130347168D02*
X363918452Y-131347168D01*
X363918452Y-131347168D02*
X363918452Y-130347168D01*
X364347024Y-130442406D02*
X364394643Y-130394787D01*
X364394643Y-130394787D02*
X364489881Y-130347168D01*
X364489881Y-130347168D02*
X364727976Y-130347168D01*
X364727976Y-130347168D02*
X364823214Y-130394787D01*
X364823214Y-130394787D02*
X364870833Y-130442406D01*
X364870833Y-130442406D02*
X364918452Y-130537644D01*
X364918452Y-130537644D02*
X364918452Y-130632882D01*
X364918452Y-130632882D02*
X364870833Y-130775739D01*
X364870833Y-130775739D02*
X364299405Y-131347168D01*
X364299405Y-131347168D02*
X364918452Y-131347168D01*
D14*
X340853136Y-133952868D02*
X340834388Y-133971616D01*
X340834388Y-133971616D02*
X340778145Y-133990363D01*
X340778145Y-133990363D02*
X340740650Y-133990363D01*
X340740650Y-133990363D02*
X340684407Y-133971616D01*
X340684407Y-133971616D02*
X340646912Y-133934120D01*
X340646912Y-133934120D02*
X340628164Y-133896625D01*
X340628164Y-133896625D02*
X340609416Y-133821634D01*
X340609416Y-133821634D02*
X340609416Y-133765391D01*
X340609416Y-133765391D02*
X340628164Y-133690401D01*
X340628164Y-133690401D02*
X340646912Y-133652905D01*
X340646912Y-133652905D02*
X340684407Y-133615410D01*
X340684407Y-133615410D02*
X340740650Y-133596662D01*
X340740650Y-133596662D02*
X340778145Y-133596662D01*
X340778145Y-133596662D02*
X340834388Y-133615410D01*
X340834388Y-133615410D02*
X340853136Y-133634158D01*
X341003117Y-133634158D02*
X341021865Y-133615410D01*
X341021865Y-133615410D02*
X341059360Y-133596662D01*
X341059360Y-133596662D02*
X341153099Y-133596662D01*
X341153099Y-133596662D02*
X341190594Y-133615410D01*
X341190594Y-133615410D02*
X341209342Y-133634158D01*
X341209342Y-133634158D02*
X341228089Y-133671653D01*
X341228089Y-133671653D02*
X341228089Y-133709148D01*
X341228089Y-133709148D02*
X341209342Y-133765391D01*
X341209342Y-133765391D02*
X340984370Y-133990363D01*
X340984370Y-133990363D02*
X341228089Y-133990363D01*
X341565547Y-133727896D02*
X341565547Y-133990363D01*
X341471809Y-133577915D02*
X341378070Y-133859130D01*
X341378070Y-133859130D02*
X341621790Y-133859130D01*
D12*
X273399225Y-154547497D02*
X273399225Y-155184918D01*
X273399225Y-155184918D02*
X273436721Y-155259908D01*
X273436721Y-155259908D02*
X273474216Y-155297404D01*
X273474216Y-155297404D02*
X273549207Y-155334899D01*
X273549207Y-155334899D02*
X273699188Y-155334899D01*
X273699188Y-155334899D02*
X273774179Y-155297404D01*
X273774179Y-155297404D02*
X273811674Y-155259908D01*
X273811674Y-155259908D02*
X273849169Y-155184918D01*
X273849169Y-155184918D02*
X273849169Y-154547497D01*
X274561580Y-154809964D02*
X274561580Y-155334899D01*
X274374104Y-154510002D02*
X274186627Y-155072432D01*
X274186627Y-155072432D02*
X274674066Y-155072432D01*
X110226181Y-136998633D02*
X110226181Y-137636054D01*
X110226181Y-137636054D02*
X110263677Y-137711044D01*
X110263677Y-137711044D02*
X110301172Y-137748540D01*
X110301172Y-137748540D02*
X110376163Y-137786035D01*
X110376163Y-137786035D02*
X110526144Y-137786035D01*
X110526144Y-137786035D02*
X110601135Y-137748540D01*
X110601135Y-137748540D02*
X110638630Y-137711044D01*
X110638630Y-137711044D02*
X110676125Y-137636054D01*
X110676125Y-137636054D02*
X110676125Y-136998633D01*
X111463527Y-137786035D02*
X111013583Y-137786035D01*
X111238555Y-137786035D02*
X111238555Y-136998633D01*
X111238555Y-136998633D02*
X111163564Y-137111119D01*
X111163564Y-137111119D02*
X111088574Y-137186110D01*
X111088574Y-137186110D02*
X111013583Y-137223605D01*
X111725995Y-136998633D02*
X112213434Y-136998633D01*
X112213434Y-136998633D02*
X111950967Y-137298596D01*
X111950967Y-137298596D02*
X112063453Y-137298596D01*
X112063453Y-137298596D02*
X112138443Y-137336091D01*
X112138443Y-137336091D02*
X112175939Y-137373586D01*
X112175939Y-137373586D02*
X112213434Y-137448577D01*
X112213434Y-137448577D02*
X112213434Y-137636054D01*
X112213434Y-137636054D02*
X112175939Y-137711044D01*
X112175939Y-137711044D02*
X112138443Y-137748540D01*
X112138443Y-137748540D02*
X112063453Y-137786035D01*
X112063453Y-137786035D02*
X111838481Y-137786035D01*
X111838481Y-137786035D02*
X111763490Y-137748540D01*
X111763490Y-137748540D02*
X111725995Y-137711044D01*
D14*
X277579427Y-133952867D02*
X277560679Y-133971615D01*
X277560679Y-133971615D02*
X277504436Y-133990362D01*
X277504436Y-133990362D02*
X277466941Y-133990362D01*
X277466941Y-133990362D02*
X277410698Y-133971615D01*
X277410698Y-133971615D02*
X277373203Y-133934119D01*
X277373203Y-133934119D02*
X277354455Y-133896624D01*
X277354455Y-133896624D02*
X277335707Y-133821633D01*
X277335707Y-133821633D02*
X277335707Y-133765390D01*
X277335707Y-133765390D02*
X277354455Y-133690400D01*
X277354455Y-133690400D02*
X277373203Y-133652904D01*
X277373203Y-133652904D02*
X277410698Y-133615409D01*
X277410698Y-133615409D02*
X277466941Y-133596661D01*
X277466941Y-133596661D02*
X277504436Y-133596661D01*
X277504436Y-133596661D02*
X277560679Y-133615409D01*
X277560679Y-133615409D02*
X277579427Y-133634157D01*
X277729408Y-133634157D02*
X277748156Y-133615409D01*
X277748156Y-133615409D02*
X277785651Y-133596661D01*
X277785651Y-133596661D02*
X277879390Y-133596661D01*
X277879390Y-133596661D02*
X277916885Y-133615409D01*
X277916885Y-133615409D02*
X277935633Y-133634157D01*
X277935633Y-133634157D02*
X277954380Y-133671652D01*
X277954380Y-133671652D02*
X277954380Y-133709147D01*
X277954380Y-133709147D02*
X277935633Y-133765390D01*
X277935633Y-133765390D02*
X277710661Y-133990362D01*
X277710661Y-133990362D02*
X277954380Y-133990362D01*
X278329333Y-133990362D02*
X278104361Y-133990362D01*
X278216847Y-133990362D02*
X278216847Y-133596661D01*
X278216847Y-133596661D02*
X278179352Y-133652904D01*
X278179352Y-133652904D02*
X278141857Y-133690400D01*
X278141857Y-133690400D02*
X278104361Y-133709147D01*
D12*
X101444549Y-155005000D02*
X101444549Y-155642421D01*
X101444549Y-155642421D02*
X101482045Y-155717411D01*
X101482045Y-155717411D02*
X101519540Y-155754907D01*
X101519540Y-155754907D02*
X101594531Y-155792402D01*
X101594531Y-155792402D02*
X101744512Y-155792402D01*
X101744512Y-155792402D02*
X101819503Y-155754907D01*
X101819503Y-155754907D02*
X101856998Y-155717411D01*
X101856998Y-155717411D02*
X101894493Y-155642421D01*
X101894493Y-155642421D02*
X101894493Y-155005000D01*
X102681895Y-155792402D02*
X102231951Y-155792402D01*
X102456923Y-155792402D02*
X102456923Y-155005000D01*
X102456923Y-155005000D02*
X102381932Y-155117486D01*
X102381932Y-155117486D02*
X102306942Y-155192477D01*
X102306942Y-155192477D02*
X102231951Y-155229972D01*
X102981858Y-155079991D02*
X103019353Y-155042495D01*
X103019353Y-155042495D02*
X103094344Y-155005000D01*
X103094344Y-155005000D02*
X103281821Y-155005000D01*
X103281821Y-155005000D02*
X103356811Y-155042495D01*
X103356811Y-155042495D02*
X103394307Y-155079991D01*
X103394307Y-155079991D02*
X103431802Y-155154981D01*
X103431802Y-155154981D02*
X103431802Y-155229972D01*
X103431802Y-155229972D02*
X103394307Y-155342458D01*
X103394307Y-155342458D02*
X102944363Y-155792402D01*
X102944363Y-155792402D02*
X103431802Y-155792402D01*
X294494379Y-155005000D02*
X294494379Y-155642421D01*
X294494379Y-155642421D02*
X294531875Y-155717411D01*
X294531875Y-155717411D02*
X294569370Y-155754907D01*
X294569370Y-155754907D02*
X294644361Y-155792402D01*
X294644361Y-155792402D02*
X294794342Y-155792402D01*
X294794342Y-155792402D02*
X294869333Y-155754907D01*
X294869333Y-155754907D02*
X294906828Y-155717411D01*
X294906828Y-155717411D02*
X294944323Y-155642421D01*
X294944323Y-155642421D02*
X294944323Y-155005000D01*
X295244286Y-155005000D02*
X295731725Y-155005000D01*
X295731725Y-155005000D02*
X295469258Y-155304963D01*
X295469258Y-155304963D02*
X295581744Y-155304963D01*
X295581744Y-155304963D02*
X295656734Y-155342458D01*
X295656734Y-155342458D02*
X295694230Y-155379953D01*
X295694230Y-155379953D02*
X295731725Y-155454944D01*
X295731725Y-155454944D02*
X295731725Y-155642421D01*
X295731725Y-155642421D02*
X295694230Y-155717411D01*
X295694230Y-155717411D02*
X295656734Y-155754907D01*
X295656734Y-155754907D02*
X295581744Y-155792402D01*
X295581744Y-155792402D02*
X295356772Y-155792402D01*
X295356772Y-155792402D02*
X295281781Y-155754907D01*
X295281781Y-155754907D02*
X295244286Y-155717411D01*
X191885366Y-136973233D02*
X191885366Y-137610654D01*
X191885366Y-137610654D02*
X191922862Y-137685644D01*
X191922862Y-137685644D02*
X191960357Y-137723140D01*
X191960357Y-137723140D02*
X192035348Y-137760635D01*
X192035348Y-137760635D02*
X192185329Y-137760635D01*
X192185329Y-137760635D02*
X192260320Y-137723140D01*
X192260320Y-137723140D02*
X192297815Y-137685644D01*
X192297815Y-137685644D02*
X192335310Y-137610654D01*
X192335310Y-137610654D02*
X192335310Y-136973233D01*
X193122712Y-137760635D02*
X192672768Y-137760635D01*
X192897740Y-137760635D02*
X192897740Y-136973233D01*
X192897740Y-136973233D02*
X192822749Y-137085719D01*
X192822749Y-137085719D02*
X192747759Y-137160710D01*
X192747759Y-137160710D02*
X192672768Y-137198205D01*
X193385180Y-136973233D02*
X193910114Y-136973233D01*
X193910114Y-136973233D02*
X193572656Y-137760635D01*
X90416394Y-152814427D02*
X90416394Y-153528712D01*
X90416394Y-153528712D02*
X90368775Y-153671569D01*
X90368775Y-153671569D02*
X90273537Y-153766808D01*
X90273537Y-153766808D02*
X90130680Y-153814427D01*
X90130680Y-153814427D02*
X90035442Y-153814427D01*
X91416394Y-153814427D02*
X90844966Y-153814427D01*
X91130680Y-153814427D02*
X91130680Y-152814427D01*
X91130680Y-152814427D02*
X91035442Y-152957284D01*
X91035442Y-152957284D02*
X90940204Y-153052522D01*
X90940204Y-153052522D02*
X90844966Y-153100141D01*
X318556981Y-136947833D02*
X318556981Y-137585254D01*
X318556981Y-137585254D02*
X318594477Y-137660244D01*
X318594477Y-137660244D02*
X318631972Y-137697740D01*
X318631972Y-137697740D02*
X318706963Y-137735235D01*
X318706963Y-137735235D02*
X318856944Y-137735235D01*
X318856944Y-137735235D02*
X318931935Y-137697740D01*
X318931935Y-137697740D02*
X318969430Y-137660244D01*
X318969430Y-137660244D02*
X319006925Y-137585254D01*
X319006925Y-137585254D02*
X319006925Y-136947833D01*
X319344383Y-137022824D02*
X319381878Y-136985328D01*
X319381878Y-136985328D02*
X319456869Y-136947833D01*
X319456869Y-136947833D02*
X319644346Y-136947833D01*
X319644346Y-136947833D02*
X319719336Y-136985328D01*
X319719336Y-136985328D02*
X319756832Y-137022824D01*
X319756832Y-137022824D02*
X319794327Y-137097814D01*
X319794327Y-137097814D02*
X319794327Y-137172805D01*
X319794327Y-137172805D02*
X319756832Y-137285291D01*
X319756832Y-137285291D02*
X319306888Y-137735235D01*
X319306888Y-137735235D02*
X319794327Y-137735235D01*
X320056795Y-136947833D02*
X320544234Y-136947833D01*
X320544234Y-136947833D02*
X320281767Y-137247796D01*
X320281767Y-137247796D02*
X320394253Y-137247796D01*
X320394253Y-137247796D02*
X320469243Y-137285291D01*
X320469243Y-137285291D02*
X320506739Y-137322786D01*
X320506739Y-137322786D02*
X320544234Y-137397777D01*
X320544234Y-137397777D02*
X320544234Y-137585254D01*
X320544234Y-137585254D02*
X320506739Y-137660244D01*
X320506739Y-137660244D02*
X320469243Y-137697740D01*
X320469243Y-137697740D02*
X320394253Y-137735235D01*
X320394253Y-137735235D02*
X320169281Y-137735235D01*
X320169281Y-137735235D02*
X320094290Y-137697740D01*
X320094290Y-137697740D02*
X320056795Y-137660244D01*
D14*
X298670664Y-133952868D02*
X298651916Y-133971616D01*
X298651916Y-133971616D02*
X298595673Y-133990363D01*
X298595673Y-133990363D02*
X298558178Y-133990363D01*
X298558178Y-133990363D02*
X298501935Y-133971616D01*
X298501935Y-133971616D02*
X298464440Y-133934120D01*
X298464440Y-133934120D02*
X298445692Y-133896625D01*
X298445692Y-133896625D02*
X298426944Y-133821634D01*
X298426944Y-133821634D02*
X298426944Y-133765391D01*
X298426944Y-133765391D02*
X298445692Y-133690401D01*
X298445692Y-133690401D02*
X298464440Y-133652905D01*
X298464440Y-133652905D02*
X298501935Y-133615410D01*
X298501935Y-133615410D02*
X298558178Y-133596662D01*
X298558178Y-133596662D02*
X298595673Y-133596662D01*
X298595673Y-133596662D02*
X298651916Y-133615410D01*
X298651916Y-133615410D02*
X298670664Y-133634158D01*
X298820645Y-133634158D02*
X298839393Y-133615410D01*
X298839393Y-133615410D02*
X298876888Y-133596662D01*
X298876888Y-133596662D02*
X298970627Y-133596662D01*
X298970627Y-133596662D02*
X299008122Y-133615410D01*
X299008122Y-133615410D02*
X299026870Y-133634158D01*
X299026870Y-133634158D02*
X299045617Y-133671653D01*
X299045617Y-133671653D02*
X299045617Y-133709148D01*
X299045617Y-133709148D02*
X299026870Y-133765391D01*
X299026870Y-133765391D02*
X298801898Y-133990363D01*
X298801898Y-133990363D02*
X299045617Y-133990363D01*
X299195598Y-133634158D02*
X299214346Y-133615410D01*
X299214346Y-133615410D02*
X299251841Y-133596662D01*
X299251841Y-133596662D02*
X299345580Y-133596662D01*
X299345580Y-133596662D02*
X299383075Y-133615410D01*
X299383075Y-133615410D02*
X299401823Y-133634158D01*
X299401823Y-133634158D02*
X299420570Y-133671653D01*
X299420570Y-133671653D02*
X299420570Y-133709148D01*
X299420570Y-133709148D02*
X299401823Y-133765391D01*
X299401823Y-133765391D02*
X299176851Y-133990363D01*
X299176851Y-133990363D02*
X299420570Y-133990363D01*
X336592611Y-159182254D02*
X336573863Y-159201002D01*
X336573863Y-159201002D02*
X336517620Y-159219749D01*
X336517620Y-159219749D02*
X336480125Y-159219749D01*
X336480125Y-159219749D02*
X336423882Y-159201002D01*
X336423882Y-159201002D02*
X336386387Y-159163506D01*
X336386387Y-159163506D02*
X336367639Y-159126011D01*
X336367639Y-159126011D02*
X336348891Y-159051020D01*
X336348891Y-159051020D02*
X336348891Y-158994777D01*
X336348891Y-158994777D02*
X336367639Y-158919787D01*
X336367639Y-158919787D02*
X336386387Y-158882291D01*
X336386387Y-158882291D02*
X336423882Y-158844796D01*
X336423882Y-158844796D02*
X336480125Y-158826048D01*
X336480125Y-158826048D02*
X336517620Y-158826048D01*
X336517620Y-158826048D02*
X336573863Y-158844796D01*
X336573863Y-158844796D02*
X336592611Y-158863544D01*
X336967564Y-159219749D02*
X336742592Y-159219749D01*
X336855078Y-159219749D02*
X336855078Y-158826048D01*
X336855078Y-158826048D02*
X336817583Y-158882291D01*
X336817583Y-158882291D02*
X336780088Y-158919787D01*
X336780088Y-158919787D02*
X336742592Y-158938534D01*
D12*
X83664395Y-130855168D02*
X83664395Y-131569453D01*
X83664395Y-131569453D02*
X83616776Y-131712310D01*
X83616776Y-131712310D02*
X83521538Y-131807549D01*
X83521538Y-131807549D02*
X83378681Y-131855168D01*
X83378681Y-131855168D02*
X83283443Y-131855168D01*
X84569157Y-131188501D02*
X84569157Y-131855168D01*
X84331062Y-130807549D02*
X84092967Y-131521834D01*
X84092967Y-131521834D02*
X84712014Y-131521834D01*
D14*
X129940772Y-133952868D02*
X129922024Y-133971616D01*
X129922024Y-133971616D02*
X129865781Y-133990363D01*
X129865781Y-133990363D02*
X129828286Y-133990363D01*
X129828286Y-133990363D02*
X129772043Y-133971616D01*
X129772043Y-133971616D02*
X129734548Y-133934120D01*
X129734548Y-133934120D02*
X129715800Y-133896625D01*
X129715800Y-133896625D02*
X129697052Y-133821634D01*
X129697052Y-133821634D02*
X129697052Y-133765391D01*
X129697052Y-133765391D02*
X129715800Y-133690401D01*
X129715800Y-133690401D02*
X129734548Y-133652905D01*
X129734548Y-133652905D02*
X129772043Y-133615410D01*
X129772043Y-133615410D02*
X129828286Y-133596662D01*
X129828286Y-133596662D02*
X129865781Y-133596662D01*
X129865781Y-133596662D02*
X129922024Y-133615410D01*
X129922024Y-133615410D02*
X129940772Y-133634158D01*
X130315725Y-133990363D02*
X130090753Y-133990363D01*
X130203239Y-133990363D02*
X130203239Y-133596662D01*
X130203239Y-133596662D02*
X130165744Y-133652905D01*
X130165744Y-133652905D02*
X130128249Y-133690401D01*
X130128249Y-133690401D02*
X130090753Y-133709148D01*
X130653183Y-133727896D02*
X130653183Y-133990363D01*
X130559445Y-133577915D02*
X130465706Y-133859130D01*
X130465706Y-133859130D02*
X130709426Y-133859130D01*
X104401535Y-159180454D02*
X104382787Y-159199202D01*
X104382787Y-159199202D02*
X104326544Y-159217949D01*
X104326544Y-159217949D02*
X104289049Y-159217949D01*
X104289049Y-159217949D02*
X104232806Y-159199202D01*
X104232806Y-159199202D02*
X104195311Y-159161706D01*
X104195311Y-159161706D02*
X104176563Y-159124211D01*
X104176563Y-159124211D02*
X104157815Y-159049220D01*
X104157815Y-159049220D02*
X104157815Y-158992977D01*
X104157815Y-158992977D02*
X104176563Y-158917987D01*
X104176563Y-158917987D02*
X104195311Y-158880491D01*
X104195311Y-158880491D02*
X104232806Y-158842996D01*
X104232806Y-158842996D02*
X104289049Y-158824248D01*
X104289049Y-158824248D02*
X104326544Y-158824248D01*
X104326544Y-158824248D02*
X104382787Y-158842996D01*
X104382787Y-158842996D02*
X104401535Y-158861744D01*
X104776488Y-159217949D02*
X104551516Y-159217949D01*
X104664002Y-159217949D02*
X104664002Y-158824248D01*
X104664002Y-158824248D02*
X104626507Y-158880491D01*
X104626507Y-158880491D02*
X104589012Y-158917987D01*
X104589012Y-158917987D02*
X104551516Y-158936734D01*
X104926469Y-158861744D02*
X104945217Y-158842996D01*
X104945217Y-158842996D02*
X104982712Y-158824248D01*
X104982712Y-158824248D02*
X105076451Y-158824248D01*
X105076451Y-158824248D02*
X105113946Y-158842996D01*
X105113946Y-158842996D02*
X105132694Y-158861744D01*
X105132694Y-158861744D02*
X105151441Y-158899239D01*
X105151441Y-158899239D02*
X105151441Y-158936734D01*
X105151441Y-158936734D02*
X105132694Y-158992977D01*
X105132694Y-158992977D02*
X104907722Y-159217949D01*
X104907722Y-159217949D02*
X105151441Y-159217949D01*
D12*
X315589532Y-155008600D02*
X315589532Y-155646021D01*
X315589532Y-155646021D02*
X315627028Y-155721011D01*
X315627028Y-155721011D02*
X315664523Y-155758507D01*
X315664523Y-155758507D02*
X315739514Y-155796002D01*
X315739514Y-155796002D02*
X315889495Y-155796002D01*
X315889495Y-155796002D02*
X315964486Y-155758507D01*
X315964486Y-155758507D02*
X316001981Y-155721011D01*
X316001981Y-155721011D02*
X316039476Y-155646021D01*
X316039476Y-155646021D02*
X316039476Y-155008600D01*
X316376934Y-155083591D02*
X316414429Y-155046095D01*
X316414429Y-155046095D02*
X316489420Y-155008600D01*
X316489420Y-155008600D02*
X316676897Y-155008600D01*
X316676897Y-155008600D02*
X316751887Y-155046095D01*
X316751887Y-155046095D02*
X316789383Y-155083591D01*
X316789383Y-155083591D02*
X316826878Y-155158581D01*
X316826878Y-155158581D02*
X316826878Y-155233572D01*
X316826878Y-155233572D02*
X316789383Y-155346058D01*
X316789383Y-155346058D02*
X316339439Y-155796002D01*
X316339439Y-155796002D02*
X316826878Y-155796002D01*
D14*
X252227666Y-159180454D02*
X252208918Y-159199202D01*
X252208918Y-159199202D02*
X252152675Y-159217949D01*
X252152675Y-159217949D02*
X252115180Y-159217949D01*
X252115180Y-159217949D02*
X252058937Y-159199202D01*
X252058937Y-159199202D02*
X252021442Y-159161706D01*
X252021442Y-159161706D02*
X252002694Y-159124211D01*
X252002694Y-159124211D02*
X251983946Y-159049220D01*
X251983946Y-159049220D02*
X251983946Y-158992977D01*
X251983946Y-158992977D02*
X252002694Y-158917987D01*
X252002694Y-158917987D02*
X252021442Y-158880491D01*
X252021442Y-158880491D02*
X252058937Y-158842996D01*
X252058937Y-158842996D02*
X252115180Y-158824248D01*
X252115180Y-158824248D02*
X252152675Y-158824248D01*
X252152675Y-158824248D02*
X252208918Y-158842996D01*
X252208918Y-158842996D02*
X252227666Y-158861744D01*
X252583872Y-158824248D02*
X252396395Y-158824248D01*
X252396395Y-158824248D02*
X252377647Y-159011725D01*
X252377647Y-159011725D02*
X252396395Y-158992977D01*
X252396395Y-158992977D02*
X252433890Y-158974230D01*
X252433890Y-158974230D02*
X252527629Y-158974230D01*
X252527629Y-158974230D02*
X252565124Y-158992977D01*
X252565124Y-158992977D02*
X252583872Y-159011725D01*
X252583872Y-159011725D02*
X252602619Y-159049220D01*
X252602619Y-159049220D02*
X252602619Y-159142959D01*
X252602619Y-159142959D02*
X252583872Y-159180454D01*
X252583872Y-159180454D02*
X252565124Y-159199202D01*
X252565124Y-159199202D02*
X252527629Y-159217949D01*
X252527629Y-159217949D02*
X252433890Y-159217949D01*
X252433890Y-159217949D02*
X252396395Y-159199202D01*
X252396395Y-159199202D02*
X252377647Y-159180454D01*
D12*
X79027769Y-148793638D02*
X79027769Y-147793638D01*
X79027769Y-147793638D02*
X79599197Y-148793638D01*
X79599197Y-148793638D02*
X79599197Y-147793638D01*
X80599197Y-148793638D02*
X80027769Y-148793638D01*
X80313483Y-148793638D02*
X80313483Y-147793638D01*
X80313483Y-147793638D02*
X80218245Y-147936495D01*
X80218245Y-147936495D02*
X80123007Y-148031733D01*
X80123007Y-148031733D02*
X80027769Y-148079352D01*
D14*
X214305717Y-133952868D02*
X214286969Y-133971616D01*
X214286969Y-133971616D02*
X214230726Y-133990363D01*
X214230726Y-133990363D02*
X214193231Y-133990363D01*
X214193231Y-133990363D02*
X214136988Y-133971616D01*
X214136988Y-133971616D02*
X214099493Y-133934120D01*
X214099493Y-133934120D02*
X214080745Y-133896625D01*
X214080745Y-133896625D02*
X214061997Y-133821634D01*
X214061997Y-133821634D02*
X214061997Y-133765391D01*
X214061997Y-133765391D02*
X214080745Y-133690401D01*
X214080745Y-133690401D02*
X214099493Y-133652905D01*
X214099493Y-133652905D02*
X214136988Y-133615410D01*
X214136988Y-133615410D02*
X214193231Y-133596662D01*
X214193231Y-133596662D02*
X214230726Y-133596662D01*
X214230726Y-133596662D02*
X214286969Y-133615410D01*
X214286969Y-133615410D02*
X214305717Y-133634158D01*
X214680670Y-133990363D02*
X214455698Y-133990363D01*
X214568184Y-133990363D02*
X214568184Y-133596662D01*
X214568184Y-133596662D02*
X214530689Y-133652905D01*
X214530689Y-133652905D02*
X214493194Y-133690401D01*
X214493194Y-133690401D02*
X214455698Y-133709148D01*
X214905642Y-133765391D02*
X214868147Y-133746644D01*
X214868147Y-133746644D02*
X214849399Y-133727896D01*
X214849399Y-133727896D02*
X214830651Y-133690401D01*
X214830651Y-133690401D02*
X214830651Y-133671653D01*
X214830651Y-133671653D02*
X214849399Y-133634158D01*
X214849399Y-133634158D02*
X214868147Y-133615410D01*
X214868147Y-133615410D02*
X214905642Y-133596662D01*
X214905642Y-133596662D02*
X214980633Y-133596662D01*
X214980633Y-133596662D02*
X215018128Y-133615410D01*
X215018128Y-133615410D02*
X215036876Y-133634158D01*
X215036876Y-133634158D02*
X215055623Y-133671653D01*
X215055623Y-133671653D02*
X215055623Y-133690401D01*
X215055623Y-133690401D02*
X215036876Y-133727896D01*
X215036876Y-133727896D02*
X215018128Y-133746644D01*
X215018128Y-133746644D02*
X214980633Y-133765391D01*
X214980633Y-133765391D02*
X214905642Y-133765391D01*
X214905642Y-133765391D02*
X214868147Y-133784139D01*
X214868147Y-133784139D02*
X214849399Y-133802887D01*
X214849399Y-133802887D02*
X214830651Y-133840382D01*
X214830651Y-133840382D02*
X214830651Y-133915373D01*
X214830651Y-133915373D02*
X214849399Y-133952868D01*
X214849399Y-133952868D02*
X214868147Y-133971616D01*
X214868147Y-133971616D02*
X214905642Y-133990363D01*
X214905642Y-133990363D02*
X214980633Y-133990363D01*
X214980633Y-133990363D02*
X215018128Y-133971616D01*
X215018128Y-133971616D02*
X215036876Y-133952868D01*
X215036876Y-133952868D02*
X215055623Y-133915373D01*
X215055623Y-133915373D02*
X215055623Y-133840382D01*
X215055623Y-133840382D02*
X215036876Y-133802887D01*
X215036876Y-133802887D02*
X215018128Y-133784139D01*
X215018128Y-133784139D02*
X214980633Y-133765391D01*
D12*
X128599905Y-136969633D02*
X128599905Y-137607054D01*
X128599905Y-137607054D02*
X128637401Y-137682044D01*
X128637401Y-137682044D02*
X128674896Y-137719540D01*
X128674896Y-137719540D02*
X128749887Y-137757035D01*
X128749887Y-137757035D02*
X128899868Y-137757035D01*
X128899868Y-137757035D02*
X128974859Y-137719540D01*
X128974859Y-137719540D02*
X129012354Y-137682044D01*
X129012354Y-137682044D02*
X129049849Y-137607054D01*
X129049849Y-137607054D02*
X129049849Y-136969633D01*
X129837251Y-137757035D02*
X129387307Y-137757035D01*
X129612279Y-137757035D02*
X129612279Y-136969633D01*
X129612279Y-136969633D02*
X129537288Y-137082119D01*
X129537288Y-137082119D02*
X129462298Y-137157110D01*
X129462298Y-137157110D02*
X129387307Y-137194605D01*
X130512167Y-137232100D02*
X130512167Y-137757035D01*
X130324691Y-136932138D02*
X130137214Y-137494568D01*
X130137214Y-137494568D02*
X130624653Y-137494568D01*
X99736261Y-160386711D02*
X99522927Y-160081949D01*
X99370546Y-160386711D02*
X99370546Y-159746711D01*
X99370546Y-159746711D02*
X99614356Y-159746711D01*
X99614356Y-159746711D02*
X99675308Y-159777187D01*
X99675308Y-159777187D02*
X99705785Y-159807663D01*
X99705785Y-159807663D02*
X99736261Y-159868615D01*
X99736261Y-159868615D02*
X99736261Y-159960044D01*
X99736261Y-159960044D02*
X99705785Y-160020996D01*
X99705785Y-160020996D02*
X99675308Y-160051473D01*
X99675308Y-160051473D02*
X99614356Y-160081949D01*
X99614356Y-160081949D02*
X99370546Y-160081949D01*
X99980070Y-159807663D02*
X100010546Y-159777187D01*
X100010546Y-159777187D02*
X100071499Y-159746711D01*
X100071499Y-159746711D02*
X100223880Y-159746711D01*
X100223880Y-159746711D02*
X100284832Y-159777187D01*
X100284832Y-159777187D02*
X100315308Y-159807663D01*
X100315308Y-159807663D02*
X100345785Y-159868615D01*
X100345785Y-159868615D02*
X100345785Y-159929568D01*
X100345785Y-159929568D02*
X100315308Y-160020996D01*
X100315308Y-160020996D02*
X99949594Y-160386711D01*
X99949594Y-160386711D02*
X100345785Y-160386711D01*
X78955970Y-130890551D02*
X78955970Y-129890551D01*
X78955970Y-129890551D02*
X79527398Y-130890551D01*
X79527398Y-130890551D02*
X79527398Y-129890551D01*
X80527398Y-130890551D02*
X79955970Y-130890551D01*
X80241684Y-130890551D02*
X80241684Y-129890551D01*
X80241684Y-129890551D02*
X80146446Y-130033408D01*
X80146446Y-130033408D02*
X80051208Y-130128646D01*
X80051208Y-130128646D02*
X79955970Y-130176265D01*
D14*
X210045193Y-159180454D02*
X210026445Y-159199202D01*
X210026445Y-159199202D02*
X209970202Y-159217949D01*
X209970202Y-159217949D02*
X209932707Y-159217949D01*
X209932707Y-159217949D02*
X209876464Y-159199202D01*
X209876464Y-159199202D02*
X209838969Y-159161706D01*
X209838969Y-159161706D02*
X209820221Y-159124211D01*
X209820221Y-159124211D02*
X209801473Y-159049220D01*
X209801473Y-159049220D02*
X209801473Y-158992977D01*
X209801473Y-158992977D02*
X209820221Y-158917987D01*
X209820221Y-158917987D02*
X209838969Y-158880491D01*
X209838969Y-158880491D02*
X209876464Y-158842996D01*
X209876464Y-158842996D02*
X209932707Y-158824248D01*
X209932707Y-158824248D02*
X209970202Y-158824248D01*
X209970202Y-158824248D02*
X210026445Y-158842996D01*
X210026445Y-158842996D02*
X210045193Y-158861744D01*
X210176427Y-158824248D02*
X210438894Y-158824248D01*
X210438894Y-158824248D02*
X210270165Y-159217949D01*
X193214481Y-133952867D02*
X193195733Y-133971615D01*
X193195733Y-133971615D02*
X193139490Y-133990362D01*
X193139490Y-133990362D02*
X193101995Y-133990362D01*
X193101995Y-133990362D02*
X193045752Y-133971615D01*
X193045752Y-133971615D02*
X193008257Y-133934119D01*
X193008257Y-133934119D02*
X192989509Y-133896624D01*
X192989509Y-133896624D02*
X192970761Y-133821633D01*
X192970761Y-133821633D02*
X192970761Y-133765390D01*
X192970761Y-133765390D02*
X192989509Y-133690400D01*
X192989509Y-133690400D02*
X193008257Y-133652904D01*
X193008257Y-133652904D02*
X193045752Y-133615409D01*
X193045752Y-133615409D02*
X193101995Y-133596661D01*
X193101995Y-133596661D02*
X193139490Y-133596661D01*
X193139490Y-133596661D02*
X193195733Y-133615409D01*
X193195733Y-133615409D02*
X193214481Y-133634157D01*
X193589434Y-133990362D02*
X193364462Y-133990362D01*
X193476948Y-133990362D02*
X193476948Y-133596661D01*
X193476948Y-133596661D02*
X193439453Y-133652904D01*
X193439453Y-133652904D02*
X193401958Y-133690400D01*
X193401958Y-133690400D02*
X193364462Y-133709147D01*
X193720668Y-133596661D02*
X193983135Y-133596661D01*
X193983135Y-133596661D02*
X193814406Y-133990362D01*
X110516236Y-132149468D02*
X110497488Y-132168216D01*
X110497488Y-132168216D02*
X110441245Y-132186963D01*
X110441245Y-132186963D02*
X110403750Y-132186963D01*
X110403750Y-132186963D02*
X110347507Y-132168216D01*
X110347507Y-132168216D02*
X110310012Y-132130720D01*
X110310012Y-132130720D02*
X110291264Y-132093225D01*
X110291264Y-132093225D02*
X110272516Y-132018234D01*
X110272516Y-132018234D02*
X110272516Y-131961991D01*
X110272516Y-131961991D02*
X110291264Y-131887001D01*
X110291264Y-131887001D02*
X110310012Y-131849505D01*
X110310012Y-131849505D02*
X110347507Y-131812010D01*
X110347507Y-131812010D02*
X110403750Y-131793262D01*
X110403750Y-131793262D02*
X110441245Y-131793262D01*
X110441245Y-131793262D02*
X110497488Y-131812010D01*
X110497488Y-131812010D02*
X110516236Y-131830758D01*
X110891189Y-132186963D02*
X110666217Y-132186963D01*
X110778703Y-132186963D02*
X110778703Y-131793262D01*
X110778703Y-131793262D02*
X110741208Y-131849505D01*
X110741208Y-131849505D02*
X110703713Y-131887001D01*
X110703713Y-131887001D02*
X110666217Y-131905748D01*
X111022423Y-131793262D02*
X111266142Y-131793262D01*
X111266142Y-131793262D02*
X111134909Y-131943244D01*
X111134909Y-131943244D02*
X111191152Y-131943244D01*
X111191152Y-131943244D02*
X111228647Y-131961991D01*
X111228647Y-131961991D02*
X111247395Y-131980739D01*
X111247395Y-131980739D02*
X111266142Y-132018234D01*
X111266142Y-132018234D02*
X111266142Y-132111973D01*
X111266142Y-132111973D02*
X111247395Y-132149468D01*
X111247395Y-132149468D02*
X111228647Y-132168216D01*
X111228647Y-132168216D02*
X111191152Y-132186963D01*
X111191152Y-132186963D02*
X111078666Y-132186963D01*
X111078666Y-132186963D02*
X111041170Y-132168216D01*
X111041170Y-132168216D02*
X111022423Y-132149468D01*
D12*
X212980521Y-136973233D02*
X212980521Y-137610654D01*
X212980521Y-137610654D02*
X213018017Y-137685644D01*
X213018017Y-137685644D02*
X213055512Y-137723140D01*
X213055512Y-137723140D02*
X213130503Y-137760635D01*
X213130503Y-137760635D02*
X213280484Y-137760635D01*
X213280484Y-137760635D02*
X213355475Y-137723140D01*
X213355475Y-137723140D02*
X213392970Y-137685644D01*
X213392970Y-137685644D02*
X213430465Y-137610654D01*
X213430465Y-137610654D02*
X213430465Y-136973233D01*
X214217867Y-137760635D02*
X213767923Y-137760635D01*
X213992895Y-137760635D02*
X213992895Y-136973233D01*
X213992895Y-136973233D02*
X213917904Y-137085719D01*
X213917904Y-137085719D02*
X213842914Y-137160710D01*
X213842914Y-137160710D02*
X213767923Y-137198205D01*
X214667811Y-137310691D02*
X214592821Y-137273196D01*
X214592821Y-137273196D02*
X214555325Y-137235700D01*
X214555325Y-137235700D02*
X214517830Y-137160710D01*
X214517830Y-137160710D02*
X214517830Y-137123214D01*
X214517830Y-137123214D02*
X214555325Y-137048224D01*
X214555325Y-137048224D02*
X214592821Y-137010728D01*
X214592821Y-137010728D02*
X214667811Y-136973233D01*
X214667811Y-136973233D02*
X214817793Y-136973233D01*
X214817793Y-136973233D02*
X214892783Y-137010728D01*
X214892783Y-137010728D02*
X214930279Y-137048224D01*
X214930279Y-137048224D02*
X214967774Y-137123214D01*
X214967774Y-137123214D02*
X214967774Y-137160710D01*
X214967774Y-137160710D02*
X214930279Y-137235700D01*
X214930279Y-137235700D02*
X214892783Y-137273196D01*
X214892783Y-137273196D02*
X214817793Y-137310691D01*
X214817793Y-137310691D02*
X214667811Y-137310691D01*
X214667811Y-137310691D02*
X214592821Y-137348186D01*
X214592821Y-137348186D02*
X214555325Y-137385682D01*
X214555325Y-137385682D02*
X214517830Y-137460672D01*
X214517830Y-137460672D02*
X214517830Y-137610654D01*
X214517830Y-137610654D02*
X214555325Y-137685644D01*
X214555325Y-137685644D02*
X214592821Y-137723140D01*
X214592821Y-137723140D02*
X214667811Y-137760635D01*
X214667811Y-137760635D02*
X214817793Y-137760635D01*
X214817793Y-137760635D02*
X214892783Y-137723140D01*
X214892783Y-137723140D02*
X214930279Y-137685644D01*
X214930279Y-137685644D02*
X214967774Y-137610654D01*
X214967774Y-137610654D02*
X214967774Y-137460672D01*
X214967774Y-137460672D02*
X214930279Y-137385682D01*
X214930279Y-137385682D02*
X214892783Y-137348186D01*
X214892783Y-137348186D02*
X214817793Y-137310691D01*
D14*
X188953956Y-159180454D02*
X188935208Y-159199202D01*
X188935208Y-159199202D02*
X188878965Y-159217949D01*
X188878965Y-159217949D02*
X188841470Y-159217949D01*
X188841470Y-159217949D02*
X188785227Y-159199202D01*
X188785227Y-159199202D02*
X188747732Y-159161706D01*
X188747732Y-159161706D02*
X188728984Y-159124211D01*
X188728984Y-159124211D02*
X188710236Y-159049220D01*
X188710236Y-159049220D02*
X188710236Y-158992977D01*
X188710236Y-158992977D02*
X188728984Y-158917987D01*
X188728984Y-158917987D02*
X188747732Y-158880491D01*
X188747732Y-158880491D02*
X188785227Y-158842996D01*
X188785227Y-158842996D02*
X188841470Y-158824248D01*
X188841470Y-158824248D02*
X188878965Y-158824248D01*
X188878965Y-158824248D02*
X188935208Y-158842996D01*
X188935208Y-158842996D02*
X188953956Y-158861744D01*
X189178928Y-158992977D02*
X189141433Y-158974230D01*
X189141433Y-158974230D02*
X189122685Y-158955482D01*
X189122685Y-158955482D02*
X189103937Y-158917987D01*
X189103937Y-158917987D02*
X189103937Y-158899239D01*
X189103937Y-158899239D02*
X189122685Y-158861744D01*
X189122685Y-158861744D02*
X189141433Y-158842996D01*
X189141433Y-158842996D02*
X189178928Y-158824248D01*
X189178928Y-158824248D02*
X189253919Y-158824248D01*
X189253919Y-158824248D02*
X189291414Y-158842996D01*
X189291414Y-158842996D02*
X189310162Y-158861744D01*
X189310162Y-158861744D02*
X189328909Y-158899239D01*
X189328909Y-158899239D02*
X189328909Y-158917987D01*
X189328909Y-158917987D02*
X189310162Y-158955482D01*
X189310162Y-158955482D02*
X189291414Y-158974230D01*
X189291414Y-158974230D02*
X189253919Y-158992977D01*
X189253919Y-158992977D02*
X189178928Y-158992977D01*
X189178928Y-158992977D02*
X189141433Y-159011725D01*
X189141433Y-159011725D02*
X189122685Y-159030473D01*
X189122685Y-159030473D02*
X189103937Y-159067968D01*
X189103937Y-159067968D02*
X189103937Y-159142959D01*
X189103937Y-159142959D02*
X189122685Y-159180454D01*
X189122685Y-159180454D02*
X189141433Y-159199202D01*
X189141433Y-159199202D02*
X189178928Y-159217949D01*
X189178928Y-159217949D02*
X189253919Y-159217949D01*
X189253919Y-159217949D02*
X189291414Y-159199202D01*
X189291414Y-159199202D02*
X189310162Y-159180454D01*
X189310162Y-159180454D02*
X189328909Y-159142959D01*
X189328909Y-159142959D02*
X189328909Y-159067968D01*
X189328909Y-159067968D02*
X189310162Y-159030473D01*
X189310162Y-159030473D02*
X189291414Y-159011725D01*
X189291414Y-159011725D02*
X189253919Y-158992977D01*
D12*
X360358169Y-148793638D02*
X360358169Y-147793638D01*
X360358169Y-147793638D02*
X360929597Y-148793638D01*
X360929597Y-148793638D02*
X360929597Y-147793638D01*
X361358169Y-147888876D02*
X361405788Y-147841257D01*
X361405788Y-147841257D02*
X361501026Y-147793638D01*
X361501026Y-147793638D02*
X361739121Y-147793638D01*
X361739121Y-147793638D02*
X361834359Y-147841257D01*
X361834359Y-147841257D02*
X361881978Y-147888876D01*
X361881978Y-147888876D02*
X361929597Y-147984114D01*
X361929597Y-147984114D02*
X361929597Y-148079352D01*
X361929597Y-148079352D02*
X361881978Y-148222209D01*
X361881978Y-148222209D02*
X361310550Y-148793638D01*
X361310550Y-148793638D02*
X361929597Y-148793638D01*
D14*
X235396955Y-133952868D02*
X235378207Y-133971616D01*
X235378207Y-133971616D02*
X235321964Y-133990363D01*
X235321964Y-133990363D02*
X235284469Y-133990363D01*
X235284469Y-133990363D02*
X235228226Y-133971616D01*
X235228226Y-133971616D02*
X235190731Y-133934120D01*
X235190731Y-133934120D02*
X235171983Y-133896625D01*
X235171983Y-133896625D02*
X235153235Y-133821634D01*
X235153235Y-133821634D02*
X235153235Y-133765391D01*
X235153235Y-133765391D02*
X235171983Y-133690401D01*
X235171983Y-133690401D02*
X235190731Y-133652905D01*
X235190731Y-133652905D02*
X235228226Y-133615410D01*
X235228226Y-133615410D02*
X235284469Y-133596662D01*
X235284469Y-133596662D02*
X235321964Y-133596662D01*
X235321964Y-133596662D02*
X235378207Y-133615410D01*
X235378207Y-133615410D02*
X235396955Y-133634158D01*
X235771908Y-133990363D02*
X235546936Y-133990363D01*
X235659422Y-133990363D02*
X235659422Y-133596662D01*
X235659422Y-133596662D02*
X235621927Y-133652905D01*
X235621927Y-133652905D02*
X235584432Y-133690401D01*
X235584432Y-133690401D02*
X235546936Y-133709148D01*
X235959385Y-133990363D02*
X236034375Y-133990363D01*
X236034375Y-133990363D02*
X236071871Y-133971616D01*
X236071871Y-133971616D02*
X236090618Y-133952868D01*
X236090618Y-133952868D02*
X236128114Y-133896625D01*
X236128114Y-133896625D02*
X236146861Y-133821634D01*
X236146861Y-133821634D02*
X236146861Y-133671653D01*
X236146861Y-133671653D02*
X236128114Y-133634158D01*
X236128114Y-133634158D02*
X236109366Y-133615410D01*
X236109366Y-133615410D02*
X236071871Y-133596662D01*
X236071871Y-133596662D02*
X235996880Y-133596662D01*
X235996880Y-133596662D02*
X235959385Y-133615410D01*
X235959385Y-133615410D02*
X235940637Y-133634158D01*
X235940637Y-133634158D02*
X235921889Y-133671653D01*
X235921889Y-133671653D02*
X235921889Y-133765391D01*
X235921889Y-133765391D02*
X235940637Y-133802887D01*
X235940637Y-133802887D02*
X235959385Y-133821634D01*
X235959385Y-133821634D02*
X235996880Y-133840382D01*
X235996880Y-133840382D02*
X236071871Y-133840382D01*
X236071871Y-133840382D02*
X236109366Y-133821634D01*
X236109366Y-133821634D02*
X236128114Y-133802887D01*
X236128114Y-133802887D02*
X236146861Y-133765391D01*
X256488192Y-133952867D02*
X256469444Y-133971615D01*
X256469444Y-133971615D02*
X256413201Y-133990362D01*
X256413201Y-133990362D02*
X256375706Y-133990362D01*
X256375706Y-133990362D02*
X256319463Y-133971615D01*
X256319463Y-133971615D02*
X256281968Y-133934119D01*
X256281968Y-133934119D02*
X256263220Y-133896624D01*
X256263220Y-133896624D02*
X256244472Y-133821633D01*
X256244472Y-133821633D02*
X256244472Y-133765390D01*
X256244472Y-133765390D02*
X256263220Y-133690400D01*
X256263220Y-133690400D02*
X256281968Y-133652904D01*
X256281968Y-133652904D02*
X256319463Y-133615409D01*
X256319463Y-133615409D02*
X256375706Y-133596661D01*
X256375706Y-133596661D02*
X256413201Y-133596661D01*
X256413201Y-133596661D02*
X256469444Y-133615409D01*
X256469444Y-133615409D02*
X256488192Y-133634157D01*
X256638173Y-133634157D02*
X256656921Y-133615409D01*
X256656921Y-133615409D02*
X256694416Y-133596661D01*
X256694416Y-133596661D02*
X256788155Y-133596661D01*
X256788155Y-133596661D02*
X256825650Y-133615409D01*
X256825650Y-133615409D02*
X256844398Y-133634157D01*
X256844398Y-133634157D02*
X256863145Y-133671652D01*
X256863145Y-133671652D02*
X256863145Y-133709147D01*
X256863145Y-133709147D02*
X256844398Y-133765390D01*
X256844398Y-133765390D02*
X256619426Y-133990362D01*
X256619426Y-133990362D02*
X256863145Y-133990362D01*
X257106865Y-133596661D02*
X257144360Y-133596661D01*
X257144360Y-133596661D02*
X257181855Y-133615409D01*
X257181855Y-133615409D02*
X257200603Y-133634157D01*
X257200603Y-133634157D02*
X257219351Y-133671652D01*
X257219351Y-133671652D02*
X257238098Y-133746643D01*
X257238098Y-133746643D02*
X257238098Y-133840381D01*
X257238098Y-133840381D02*
X257219351Y-133915372D01*
X257219351Y-133915372D02*
X257200603Y-133952867D01*
X257200603Y-133952867D02*
X257181855Y-133971615D01*
X257181855Y-133971615D02*
X257144360Y-133990362D01*
X257144360Y-133990362D02*
X257106865Y-133990362D01*
X257106865Y-133990362D02*
X257069369Y-133971615D01*
X257069369Y-133971615D02*
X257050622Y-133952867D01*
X257050622Y-133952867D02*
X257031874Y-133915372D01*
X257031874Y-133915372D02*
X257013126Y-133840381D01*
X257013126Y-133840381D02*
X257013126Y-133746643D01*
X257013126Y-133746643D02*
X257031874Y-133671652D01*
X257031874Y-133671652D02*
X257050622Y-133634157D01*
X257050622Y-133634157D02*
X257069369Y-133615409D01*
X257069369Y-133615409D02*
X257106865Y-133596661D01*
X315501375Y-159180454D02*
X315482627Y-159199202D01*
X315482627Y-159199202D02*
X315426384Y-159217949D01*
X315426384Y-159217949D02*
X315388889Y-159217949D01*
X315388889Y-159217949D02*
X315332646Y-159199202D01*
X315332646Y-159199202D02*
X315295151Y-159161706D01*
X315295151Y-159161706D02*
X315276403Y-159124211D01*
X315276403Y-159124211D02*
X315257655Y-159049220D01*
X315257655Y-159049220D02*
X315257655Y-158992977D01*
X315257655Y-158992977D02*
X315276403Y-158917987D01*
X315276403Y-158917987D02*
X315295151Y-158880491D01*
X315295151Y-158880491D02*
X315332646Y-158842996D01*
X315332646Y-158842996D02*
X315388889Y-158824248D01*
X315388889Y-158824248D02*
X315426384Y-158824248D01*
X315426384Y-158824248D02*
X315482627Y-158842996D01*
X315482627Y-158842996D02*
X315501375Y-158861744D01*
X315651356Y-158861744D02*
X315670104Y-158842996D01*
X315670104Y-158842996D02*
X315707599Y-158824248D01*
X315707599Y-158824248D02*
X315801338Y-158824248D01*
X315801338Y-158824248D02*
X315838833Y-158842996D01*
X315838833Y-158842996D02*
X315857581Y-158861744D01*
X315857581Y-158861744D02*
X315876328Y-158899239D01*
X315876328Y-158899239D02*
X315876328Y-158936734D01*
X315876328Y-158936734D02*
X315857581Y-158992977D01*
X315857581Y-158992977D02*
X315632609Y-159217949D01*
X315632609Y-159217949D02*
X315876328Y-159217949D01*
X273318902Y-159180454D02*
X273300154Y-159199202D01*
X273300154Y-159199202D02*
X273243911Y-159217949D01*
X273243911Y-159217949D02*
X273206416Y-159217949D01*
X273206416Y-159217949D02*
X273150173Y-159199202D01*
X273150173Y-159199202D02*
X273112678Y-159161706D01*
X273112678Y-159161706D02*
X273093930Y-159124211D01*
X273093930Y-159124211D02*
X273075182Y-159049220D01*
X273075182Y-159049220D02*
X273075182Y-158992977D01*
X273075182Y-158992977D02*
X273093930Y-158917987D01*
X273093930Y-158917987D02*
X273112678Y-158880491D01*
X273112678Y-158880491D02*
X273150173Y-158842996D01*
X273150173Y-158842996D02*
X273206416Y-158824248D01*
X273206416Y-158824248D02*
X273243911Y-158824248D01*
X273243911Y-158824248D02*
X273300154Y-158842996D01*
X273300154Y-158842996D02*
X273318902Y-158861744D01*
X273656360Y-158955482D02*
X273656360Y-159217949D01*
X273562622Y-158805501D02*
X273468883Y-159086716D01*
X273468883Y-159086716D02*
X273712603Y-159086716D01*
D12*
X297461828Y-136949635D02*
X297461828Y-137587056D01*
X297461828Y-137587056D02*
X297499324Y-137662046D01*
X297499324Y-137662046D02*
X297536819Y-137699542D01*
X297536819Y-137699542D02*
X297611810Y-137737037D01*
X297611810Y-137737037D02*
X297761791Y-137737037D01*
X297761791Y-137737037D02*
X297836782Y-137699542D01*
X297836782Y-137699542D02*
X297874277Y-137662046D01*
X297874277Y-137662046D02*
X297911772Y-137587056D01*
X297911772Y-137587056D02*
X297911772Y-136949635D01*
X298249230Y-137024626D02*
X298286725Y-136987130D01*
X298286725Y-136987130D02*
X298361716Y-136949635D01*
X298361716Y-136949635D02*
X298549193Y-136949635D01*
X298549193Y-136949635D02*
X298624183Y-136987130D01*
X298624183Y-136987130D02*
X298661679Y-137024626D01*
X298661679Y-137024626D02*
X298699174Y-137099616D01*
X298699174Y-137099616D02*
X298699174Y-137174607D01*
X298699174Y-137174607D02*
X298661679Y-137287093D01*
X298661679Y-137287093D02*
X298211735Y-137737037D01*
X298211735Y-137737037D02*
X298699174Y-137737037D01*
X298999137Y-137024626D02*
X299036632Y-136987130D01*
X299036632Y-136987130D02*
X299111623Y-136949635D01*
X299111623Y-136949635D02*
X299299100Y-136949635D01*
X299299100Y-136949635D02*
X299374090Y-136987130D01*
X299374090Y-136987130D02*
X299411586Y-137024626D01*
X299411586Y-137024626D02*
X299449081Y-137099616D01*
X299449081Y-137099616D02*
X299449081Y-137174607D01*
X299449081Y-137174607D02*
X299411586Y-137287093D01*
X299411586Y-137287093D02*
X298961642Y-137737037D01*
X298961642Y-137737037D02*
X299449081Y-137737037D01*
D15*
%TO.C,U21*%
X275327458Y-141535248D02*
X275327459Y-141335248D01*
X275327459Y-139935248D02*
X275327459Y-139735248D01*
X276827459Y-138135248D02*
X278827459Y-138135248D01*
X276827459Y-143135248D02*
X278827459Y-143135248D01*
X278081459Y-140508248D02*
X278335459Y-140508248D01*
X278081460Y-140762248D02*
X278081459Y-140508248D01*
X278335459Y-140508248D02*
X278335459Y-140762248D01*
X278335459Y-140762248D02*
X278081460Y-140762248D01*
X280327459Y-139935248D02*
X280327460Y-139735248D01*
X280327459Y-141535248D02*
X280327459Y-141335248D01*
D16*
X275666959Y-138000247D02*
G75*
G02*
X275412959Y-138000247I-127000J0D01*
G01*
X275412959Y-138000247D02*
G75*
G02*
X275666959Y-138000247I127000J0D01*
G01*
D17*
X277239259Y-138635247D02*
G75*
G02*
X277015659Y-138635247I-111800J0D01*
G01*
X277015659Y-138635247D02*
G75*
G02*
X277239259Y-138635247I111800J0D01*
G01*
D15*
%TO.C,U16*%
X169851689Y-141992752D02*
X169851690Y-141792752D01*
X169851690Y-140392752D02*
X169851690Y-140192752D01*
X171351690Y-138592752D02*
X173351690Y-138592752D01*
X171351690Y-143592752D02*
X173351690Y-143592752D01*
X172605690Y-140965752D02*
X172859690Y-140965752D01*
X172605691Y-141219752D02*
X172605690Y-140965752D01*
X172859690Y-140965752D02*
X172859690Y-141219752D01*
X172859690Y-141219752D02*
X172605691Y-141219752D01*
X174851690Y-140392752D02*
X174851691Y-140192752D01*
X174851690Y-141992752D02*
X174851690Y-141792752D01*
D16*
X170191190Y-138457751D02*
G75*
G02*
X169937190Y-138457751I-127000J0D01*
G01*
X169937190Y-138457751D02*
G75*
G02*
X170191190Y-138457751I127000J0D01*
G01*
D17*
X171763490Y-139092751D02*
G75*
G02*
X171539890Y-139092751I-111800J0D01*
G01*
X171539890Y-139092751D02*
G75*
G02*
X171763490Y-139092751I111800J0D01*
G01*
D15*
%TO.C,U24*%
X338612919Y-141535248D02*
X338612920Y-141335248D01*
X338612920Y-139935248D02*
X338612920Y-139735248D01*
X340112920Y-138135248D02*
X342112920Y-138135248D01*
X340112920Y-143135248D02*
X342112920Y-143135248D01*
X341366920Y-140508248D02*
X341620920Y-140508248D01*
X341366921Y-140762248D02*
X341366920Y-140508248D01*
X341620920Y-140508248D02*
X341620920Y-140762248D01*
X341620920Y-140762248D02*
X341366921Y-140762248D01*
X343612920Y-139935248D02*
X343612921Y-139735248D01*
X343612920Y-141535248D02*
X343612920Y-141335248D01*
D16*
X338952420Y-138000247D02*
G75*
G02*
X338698420Y-138000247I-127000J0D01*
G01*
X338698420Y-138000247D02*
G75*
G02*
X338952420Y-138000247I127000J0D01*
G01*
D17*
X340524720Y-138635247D02*
G75*
G02*
X340301120Y-138635247I-111800J0D01*
G01*
X340301120Y-138635247D02*
G75*
G02*
X340524720Y-138635247I111800J0D01*
G01*
D15*
%TO.C,U15*%
X148756535Y-141535248D02*
X148756536Y-141335248D01*
X148756536Y-139935248D02*
X148756536Y-139735248D01*
X150256536Y-138135248D02*
X152256536Y-138135248D01*
X150256536Y-143135248D02*
X152256536Y-143135248D01*
X151510536Y-140508248D02*
X151764536Y-140508248D01*
X151510537Y-140762248D02*
X151510536Y-140508248D01*
X151764536Y-140508248D02*
X151764536Y-140762248D01*
X151764536Y-140762248D02*
X151510537Y-140762248D01*
X153756536Y-139935248D02*
X153756537Y-139735248D01*
X153756536Y-141535248D02*
X153756536Y-141335248D01*
D16*
X149096036Y-138000247D02*
G75*
G02*
X148842036Y-138000247I-127000J0D01*
G01*
X148842036Y-138000247D02*
G75*
G02*
X149096036Y-138000247I127000J0D01*
G01*
D17*
X150668336Y-138635247D02*
G75*
G02*
X150444736Y-138635247I-111800J0D01*
G01*
X150444736Y-138635247D02*
G75*
G02*
X150668336Y-138635247I111800J0D01*
G01*
D15*
%TO.C,U5*%
X249804313Y-151244635D02*
X249804313Y-151444635D01*
X249804313Y-152844635D02*
X249804313Y-153044635D01*
X251796313Y-152017635D02*
X252050313Y-152017635D01*
X251796313Y-152271635D02*
X251796313Y-152017635D01*
X252050313Y-152017635D02*
X252050313Y-152271635D01*
X252050313Y-152271635D02*
X251796313Y-152271635D01*
X253304313Y-149644635D02*
X251304313Y-149644635D01*
X253304313Y-154644635D02*
X251304313Y-154644635D01*
X254804313Y-151244635D02*
X254804313Y-151444635D01*
X254804313Y-152844635D02*
X254804313Y-153044635D01*
D17*
X253116113Y-154144635D02*
G75*
G02*
X252892513Y-154144635I-111800J0D01*
G01*
X252892513Y-154144635D02*
G75*
G02*
X253116113Y-154144635I111800J0D01*
G01*
D16*
X254718813Y-154779635D02*
G75*
G02*
X254464813Y-154779635I-127000J0D01*
G01*
X254464813Y-154779635D02*
G75*
G02*
X254718813Y-154779635I127000J0D01*
G01*
D15*
%TO.C,U7*%
X207614006Y-151244635D02*
X207614006Y-151444635D01*
X207614006Y-152844635D02*
X207614006Y-153044635D01*
X209606006Y-152017635D02*
X209860006Y-152017635D01*
X209606006Y-152271635D02*
X209606006Y-152017635D01*
X209860006Y-152017635D02*
X209860006Y-152271635D01*
X209860006Y-152271635D02*
X209606006Y-152271635D01*
X211114006Y-149644635D02*
X209114006Y-149644635D01*
X211114006Y-154644635D02*
X209114006Y-154644635D01*
X212614006Y-151244635D02*
X212614006Y-151444635D01*
X212614006Y-152844635D02*
X212614006Y-153044635D01*
D17*
X210925806Y-154144635D02*
G75*
G02*
X210702206Y-154144635I-111800J0D01*
G01*
X210702206Y-154144635D02*
G75*
G02*
X210925806Y-154144635I111800J0D01*
G01*
D16*
X212528506Y-154779635D02*
G75*
G02*
X212274506Y-154779635I-127000J0D01*
G01*
X212274506Y-154779635D02*
G75*
G02*
X212528506Y-154779635I127000J0D01*
G01*
D15*
%TO.C,U1*%
X334184928Y-151248235D02*
X334184928Y-151448235D01*
X334184928Y-152848235D02*
X334184928Y-153048235D01*
X336176928Y-152021235D02*
X336430928Y-152021235D01*
X336176928Y-152275235D02*
X336176928Y-152021235D01*
X336430928Y-152021235D02*
X336430928Y-152275235D01*
X336430928Y-152275235D02*
X336176928Y-152275235D01*
X337684928Y-149648235D02*
X335684928Y-149648235D01*
X337684928Y-154648235D02*
X335684928Y-154648235D01*
X339184928Y-151248235D02*
X339184928Y-151448235D01*
X339184928Y-152848235D02*
X339184928Y-153048235D01*
D17*
X337496728Y-154148235D02*
G75*
G02*
X337273128Y-154148235I-111800J0D01*
G01*
X337273128Y-154148235D02*
G75*
G02*
X337496728Y-154148235I111800J0D01*
G01*
D16*
X339099428Y-154783235D02*
G75*
G02*
X338845428Y-154783235I-127000J0D01*
G01*
X338845428Y-154783235D02*
G75*
G02*
X339099428Y-154783235I127000J0D01*
G01*
D15*
%TO.C,U10*%
X144328544Y-151244635D02*
X144328544Y-151444635D01*
X144328544Y-152844635D02*
X144328544Y-153044635D01*
X146320544Y-152017635D02*
X146574544Y-152017635D01*
X146320544Y-152271635D02*
X146320544Y-152017635D01*
X146574544Y-152017635D02*
X146574544Y-152271635D01*
X146574544Y-152271635D02*
X146320544Y-152271635D01*
X147828544Y-149644635D02*
X145828544Y-149644635D01*
X147828544Y-154644635D02*
X145828544Y-154644635D01*
X149328544Y-151244635D02*
X149328544Y-151444635D01*
X149328544Y-152844635D02*
X149328544Y-153044635D01*
D17*
X147640344Y-154144635D02*
G75*
G02*
X147416744Y-154144635I-111800J0D01*
G01*
X147416744Y-154144635D02*
G75*
G02*
X147640344Y-154144635I111800J0D01*
G01*
D16*
X149243044Y-154779635D02*
G75*
G02*
X148989044Y-154779635I-127000J0D01*
G01*
X148989044Y-154779635D02*
G75*
G02*
X149243044Y-154779635I127000J0D01*
G01*
D15*
%TO.C,U19*%
X233137151Y-141535249D02*
X233137152Y-141335249D01*
X233137152Y-139935249D02*
X233137152Y-139735249D01*
X234637152Y-138135249D02*
X236637152Y-138135249D01*
X234637152Y-143135249D02*
X236637152Y-143135249D01*
X235891152Y-140508249D02*
X236145152Y-140508249D01*
X235891153Y-140762249D02*
X235891152Y-140508249D01*
X236145152Y-140508249D02*
X236145152Y-140762249D01*
X236145152Y-140762249D02*
X235891153Y-140762249D01*
X238137152Y-139935249D02*
X238137153Y-139735249D01*
X238137152Y-141535249D02*
X238137152Y-141335249D01*
D16*
X233476652Y-138000248D02*
G75*
G02*
X233222652Y-138000248I-127000J0D01*
G01*
X233222652Y-138000248D02*
G75*
G02*
X233476652Y-138000248I127000J0D01*
G01*
D17*
X235048952Y-138635248D02*
G75*
G02*
X234825352Y-138635248I-111800J0D01*
G01*
X234825352Y-138635248D02*
G75*
G02*
X235048952Y-138635248I111800J0D01*
G01*
D15*
%TO.C,U20*%
X254232305Y-141745021D02*
X254232306Y-141545021D01*
X254232306Y-140145021D02*
X254232306Y-139945021D01*
X255732306Y-138345021D02*
X257732306Y-138345021D01*
X255732306Y-143345021D02*
X257732306Y-143345021D01*
X256986306Y-140718021D02*
X257240306Y-140718021D01*
X256986307Y-140972021D02*
X256986306Y-140718021D01*
X257240306Y-140718021D02*
X257240306Y-140972021D01*
X257240306Y-140972021D02*
X256986307Y-140972021D01*
X259232306Y-140145021D02*
X259232307Y-139945021D01*
X259232306Y-141745021D02*
X259232306Y-141545021D01*
D16*
X254571806Y-138210020D02*
G75*
G02*
X254317806Y-138210020I-127000J0D01*
G01*
X254317806Y-138210020D02*
G75*
G02*
X254571806Y-138210020I127000J0D01*
G01*
D17*
X256144106Y-138845020D02*
G75*
G02*
X255920506Y-138845020I-111800J0D01*
G01*
X255920506Y-138845020D02*
G75*
G02*
X256144106Y-138845020I111800J0D01*
G01*
D15*
%TO.C,U8*%
X186518852Y-151034862D02*
X186518852Y-151234862D01*
X186518852Y-152634862D02*
X186518852Y-152834862D01*
X188510852Y-151807862D02*
X188764852Y-151807862D01*
X188510852Y-152061862D02*
X188510852Y-151807862D01*
X188764852Y-151807862D02*
X188764852Y-152061862D01*
X188764852Y-152061862D02*
X188510852Y-152061862D01*
X190018852Y-149434862D02*
X188018852Y-149434862D01*
X190018852Y-154434862D02*
X188018852Y-154434862D01*
X191518852Y-151034862D02*
X191518852Y-151234862D01*
X191518852Y-152634862D02*
X191518852Y-152834862D01*
D17*
X189830652Y-153934862D02*
G75*
G02*
X189607052Y-153934862I-111800J0D01*
G01*
X189607052Y-153934862D02*
G75*
G02*
X189830652Y-153934862I111800J0D01*
G01*
D16*
X191433352Y-154569862D02*
G75*
G02*
X191179352Y-154569862I-127000J0D01*
G01*
X191179352Y-154569862D02*
G75*
G02*
X191433352Y-154569862I127000J0D01*
G01*
D15*
%TO.C,U9*%
X165423698Y-151244635D02*
X165423698Y-151444635D01*
X165423698Y-152844635D02*
X165423698Y-153044635D01*
X167415698Y-152017635D02*
X167669698Y-152017635D01*
X167415698Y-152271635D02*
X167415698Y-152017635D01*
X167669698Y-152017635D02*
X167669698Y-152271635D01*
X167669698Y-152271635D02*
X167415698Y-152271635D01*
X168923698Y-149644635D02*
X166923698Y-149644635D01*
X168923698Y-154644635D02*
X166923698Y-154644635D01*
X170423698Y-151244635D02*
X170423698Y-151444635D01*
X170423698Y-152844635D02*
X170423698Y-153044635D01*
D17*
X168735498Y-154144635D02*
G75*
G02*
X168511898Y-154144635I-111800J0D01*
G01*
X168511898Y-154144635D02*
G75*
G02*
X168735498Y-154144635I111800J0D01*
G01*
D16*
X170338198Y-154779635D02*
G75*
G02*
X170084198Y-154779635I-127000J0D01*
G01*
X170084198Y-154779635D02*
G75*
G02*
X170338198Y-154779635I127000J0D01*
G01*
D15*
%TO.C,U6*%
X228709159Y-151244635D02*
X228709159Y-151444635D01*
X228709159Y-152844635D02*
X228709159Y-153044635D01*
X230701159Y-152017635D02*
X230955159Y-152017635D01*
X230701159Y-152271635D02*
X230701159Y-152017635D01*
X230955159Y-152017635D02*
X230955159Y-152271635D01*
X230955159Y-152271635D02*
X230701159Y-152271635D01*
X232209159Y-149644635D02*
X230209159Y-149644635D01*
X232209159Y-154644635D02*
X230209159Y-154644635D01*
X233709159Y-151244635D02*
X233709159Y-151444635D01*
X233709159Y-152844635D02*
X233709159Y-153044635D01*
D17*
X232020959Y-154144635D02*
G75*
G02*
X231797359Y-154144635I-111800J0D01*
G01*
X231797359Y-154144635D02*
G75*
G02*
X232020959Y-154144635I111800J0D01*
G01*
D16*
X233623659Y-154779635D02*
G75*
G02*
X233369659Y-154779635I-127000J0D01*
G01*
X233369659Y-154779635D02*
G75*
G02*
X233623659Y-154779635I127000J0D01*
G01*
D18*
%TO.C,R1*%
X98047328Y-153399235D02*
X98097328Y-153399235D01*
X98097328Y-154199235D02*
X98047328Y-154199235D01*
D15*
%TO.C,U11*%
X123233391Y-151246435D02*
X123233391Y-151446435D01*
X123233391Y-152846435D02*
X123233391Y-153046435D01*
X125225391Y-152019435D02*
X125479391Y-152019435D01*
X125225391Y-152273435D02*
X125225391Y-152019435D01*
X125479391Y-152019435D02*
X125479391Y-152273435D01*
X125479391Y-152273435D02*
X125225391Y-152273435D01*
X126733391Y-149646435D02*
X124733391Y-149646435D01*
X126733391Y-154646435D02*
X124733391Y-154646435D01*
X128233391Y-151246435D02*
X128233391Y-151446435D01*
X128233391Y-152846435D02*
X128233391Y-153046435D01*
D17*
X126545191Y-154146435D02*
G75*
G02*
X126321591Y-154146435I-111800J0D01*
G01*
X126321591Y-154146435D02*
G75*
G02*
X126545191Y-154146435I111800J0D01*
G01*
D16*
X128147891Y-154781435D02*
G75*
G02*
X127893891Y-154781435I-127000J0D01*
G01*
X127893891Y-154781435D02*
G75*
G02*
X128147891Y-154781435I127000J0D01*
G01*
D15*
%TO.C,U4*%
X270899467Y-150787132D02*
X270899467Y-150987132D01*
X270899467Y-152387132D02*
X270899467Y-152587132D01*
X272891467Y-151560132D02*
X273145467Y-151560132D01*
X272891467Y-151814132D02*
X272891467Y-151560132D01*
X273145467Y-151560132D02*
X273145467Y-151814132D01*
X273145467Y-151814132D02*
X272891467Y-151814132D01*
X274399467Y-149187132D02*
X272399467Y-149187132D01*
X274399467Y-154187132D02*
X272399467Y-154187132D01*
X275899467Y-150787132D02*
X275899467Y-150987132D01*
X275899467Y-152387132D02*
X275899467Y-152587132D01*
D17*
X274211267Y-153687132D02*
G75*
G02*
X273987667Y-153687132I-111800J0D01*
G01*
X273987667Y-153687132D02*
G75*
G02*
X274211267Y-153687132I111800J0D01*
G01*
D16*
X275813967Y-154322132D02*
G75*
G02*
X275559967Y-154322132I-127000J0D01*
G01*
X275559967Y-154322132D02*
G75*
G02*
X275813967Y-154322132I127000J0D01*
G01*
D15*
%TO.C,U13*%
X106566228Y-141531649D02*
X106566229Y-141331649D01*
X106566229Y-139931649D02*
X106566229Y-139731649D01*
X108066229Y-138131649D02*
X110066229Y-138131649D01*
X108066229Y-143131649D02*
X110066229Y-143131649D01*
X109320229Y-140504649D02*
X109574229Y-140504649D01*
X109320230Y-140758649D02*
X109320229Y-140504649D01*
X109574229Y-140504649D02*
X109574229Y-140758649D01*
X109574229Y-140758649D02*
X109320230Y-140758649D01*
X111566229Y-139931649D02*
X111566230Y-139731649D01*
X111566229Y-141531649D02*
X111566229Y-141331649D01*
D16*
X106905729Y-137996648D02*
G75*
G02*
X106651729Y-137996648I-127000J0D01*
G01*
X106651729Y-137996648D02*
G75*
G02*
X106905729Y-137996648I127000J0D01*
G01*
D17*
X108478029Y-138631648D02*
G75*
G02*
X108254429Y-138631648I-111800J0D01*
G01*
X108254429Y-138631648D02*
G75*
G02*
X108478029Y-138631648I111800J0D01*
G01*
D15*
%TO.C,U12*%
X102138237Y-151244635D02*
X102138237Y-151444635D01*
X102138237Y-152844635D02*
X102138237Y-153044635D01*
X104130237Y-152017635D02*
X104384237Y-152017635D01*
X104130237Y-152271635D02*
X104130237Y-152017635D01*
X104384237Y-152017635D02*
X104384237Y-152271635D01*
X104384237Y-152271635D02*
X104130237Y-152271635D01*
X105638237Y-149644635D02*
X103638237Y-149644635D01*
X105638237Y-154644635D02*
X103638237Y-154644635D01*
X107138237Y-151244635D02*
X107138237Y-151444635D01*
X107138237Y-152844635D02*
X107138237Y-153044635D01*
D17*
X105450037Y-154144635D02*
G75*
G02*
X105226437Y-154144635I-111800J0D01*
G01*
X105226437Y-154144635D02*
G75*
G02*
X105450037Y-154144635I111800J0D01*
G01*
D16*
X107052737Y-154779635D02*
G75*
G02*
X106798737Y-154779635I-127000J0D01*
G01*
X106798737Y-154779635D02*
G75*
G02*
X107052737Y-154779635I127000J0D01*
G01*
D15*
%TO.C,U3*%
X291994621Y-151244635D02*
X291994621Y-151444635D01*
X291994621Y-152844635D02*
X291994621Y-153044635D01*
X293986621Y-152017635D02*
X294240621Y-152017635D01*
X293986621Y-152271635D02*
X293986621Y-152017635D01*
X294240621Y-152017635D02*
X294240621Y-152271635D01*
X294240621Y-152271635D02*
X293986621Y-152271635D01*
X295494621Y-149644635D02*
X293494621Y-149644635D01*
X295494621Y-154644635D02*
X293494621Y-154644635D01*
X296994621Y-151244635D02*
X296994621Y-151444635D01*
X296994621Y-152844635D02*
X296994621Y-153044635D01*
D17*
X295306421Y-154144635D02*
G75*
G02*
X295082821Y-154144635I-111800J0D01*
G01*
X295082821Y-154144635D02*
G75*
G02*
X295306421Y-154144635I111800J0D01*
G01*
D16*
X296909121Y-154779635D02*
G75*
G02*
X296655121Y-154779635I-127000J0D01*
G01*
X296655121Y-154779635D02*
G75*
G02*
X296909121Y-154779635I127000J0D01*
G01*
D15*
%TO.C,U17*%
X190946843Y-141535248D02*
X190946844Y-141335248D01*
X190946844Y-139935248D02*
X190946844Y-139735248D01*
X192446844Y-138135248D02*
X194446844Y-138135248D01*
X192446844Y-143135248D02*
X194446844Y-143135248D01*
X193700844Y-140508248D02*
X193954844Y-140508248D01*
X193700845Y-140762248D02*
X193700844Y-140508248D01*
X193954844Y-140508248D02*
X193954844Y-140762248D01*
X193954844Y-140762248D02*
X193700845Y-140762248D01*
X195946844Y-139935248D02*
X195946845Y-139735248D01*
X195946844Y-141535248D02*
X195946844Y-141335248D01*
D16*
X191286344Y-138000247D02*
G75*
G02*
X191032344Y-138000247I-127000J0D01*
G01*
X191032344Y-138000247D02*
G75*
G02*
X191286344Y-138000247I127000J0D01*
G01*
D17*
X192858644Y-138635247D02*
G75*
G02*
X192635044Y-138635247I-111800J0D01*
G01*
X192635044Y-138635247D02*
G75*
G02*
X192858644Y-138635247I111800J0D01*
G01*
D15*
%TO.C,U23*%
X317517765Y-141533447D02*
X317517766Y-141333447D01*
X317517766Y-139933447D02*
X317517766Y-139733447D01*
X319017766Y-138133447D02*
X321017766Y-138133447D01*
X319017766Y-143133447D02*
X321017766Y-143133447D01*
X320271766Y-140506447D02*
X320525766Y-140506447D01*
X320271767Y-140760447D02*
X320271766Y-140506447D01*
X320525766Y-140506447D02*
X320525766Y-140760447D01*
X320525766Y-140760447D02*
X320271767Y-140760447D01*
X322517766Y-139933447D02*
X322517767Y-139733447D01*
X322517766Y-141533447D02*
X322517766Y-141333447D01*
D16*
X317857266Y-137998446D02*
G75*
G02*
X317603266Y-137998446I-127000J0D01*
G01*
X317603266Y-137998446D02*
G75*
G02*
X317857266Y-137998446I127000J0D01*
G01*
D17*
X319429566Y-138633446D02*
G75*
G02*
X319205966Y-138633446I-111800J0D01*
G01*
X319205966Y-138633446D02*
G75*
G02*
X319429566Y-138633446I111800J0D01*
G01*
D15*
%TO.C,U2*%
X313089774Y-151248235D02*
X313089774Y-151448235D01*
X313089774Y-152848235D02*
X313089774Y-153048235D01*
X315081774Y-152021235D02*
X315335774Y-152021235D01*
X315081774Y-152275235D02*
X315081774Y-152021235D01*
X315335774Y-152021235D02*
X315335774Y-152275235D01*
X315335774Y-152275235D02*
X315081774Y-152275235D01*
X316589774Y-149648235D02*
X314589774Y-149648235D01*
X316589774Y-154648235D02*
X314589774Y-154648235D01*
X318089774Y-151248235D02*
X318089774Y-151448235D01*
X318089774Y-152848235D02*
X318089774Y-153048235D01*
D17*
X316401574Y-154148235D02*
G75*
G02*
X316177974Y-154148235I-111800J0D01*
G01*
X316177974Y-154148235D02*
G75*
G02*
X316401574Y-154148235I111800J0D01*
G01*
D16*
X318004274Y-154783235D02*
G75*
G02*
X317750274Y-154783235I-127000J0D01*
G01*
X317750274Y-154783235D02*
G75*
G02*
X318004274Y-154783235I127000J0D01*
G01*
D15*
%TO.C,U14*%
X127661382Y-141531648D02*
X127661383Y-141331648D01*
X127661383Y-139931648D02*
X127661383Y-139731648D01*
X129161383Y-138131648D02*
X131161383Y-138131648D01*
X129161383Y-143131648D02*
X131161383Y-143131648D01*
X130415383Y-140504648D02*
X130669383Y-140504648D01*
X130415384Y-140758648D02*
X130415383Y-140504648D01*
X130669383Y-140504648D02*
X130669383Y-140758648D01*
X130669383Y-140758648D02*
X130415384Y-140758648D01*
X132661383Y-139931648D02*
X132661384Y-139731648D01*
X132661383Y-141531648D02*
X132661383Y-141331648D01*
D16*
X128000883Y-137996647D02*
G75*
G02*
X127746883Y-137996647I-127000J0D01*
G01*
X127746883Y-137996647D02*
G75*
G02*
X128000883Y-137996647I127000J0D01*
G01*
D17*
X129573183Y-138631647D02*
G75*
G02*
X129349583Y-138631647I-111800J0D01*
G01*
X129349583Y-138631647D02*
G75*
G02*
X129573183Y-138631647I111800J0D01*
G01*
D18*
%TO.C,R2*%
X98885528Y-158377635D02*
X98935528Y-158377635D01*
X98935528Y-159177635D02*
X98885528Y-159177635D01*
D15*
%TO.C,U18*%
X212041998Y-141535248D02*
X212041999Y-141335248D01*
X212041999Y-139935248D02*
X212041999Y-139735248D01*
X213541999Y-138135248D02*
X215541999Y-138135248D01*
X213541999Y-143135248D02*
X215541999Y-143135248D01*
X214795999Y-140508248D02*
X215049999Y-140508248D01*
X214796000Y-140762248D02*
X214795999Y-140508248D01*
X215049999Y-140508248D02*
X215049999Y-140762248D01*
X215049999Y-140762248D02*
X214796000Y-140762248D01*
X217041999Y-139935248D02*
X217042000Y-139735248D01*
X217041999Y-141535248D02*
X217041999Y-141335248D01*
D16*
X212381499Y-138000247D02*
G75*
G02*
X212127499Y-138000247I-127000J0D01*
G01*
X212127499Y-138000247D02*
G75*
G02*
X212381499Y-138000247I127000J0D01*
G01*
D17*
X213953799Y-138635247D02*
G75*
G02*
X213730199Y-138635247I-111800J0D01*
G01*
X213730199Y-138635247D02*
G75*
G02*
X213953799Y-138635247I111800J0D01*
G01*
D15*
%TO.C,U22*%
X296422612Y-141535249D02*
X296422613Y-141335249D01*
X296422613Y-139935249D02*
X296422613Y-139735249D01*
X297922613Y-138135249D02*
X299922613Y-138135249D01*
X297922613Y-143135249D02*
X299922613Y-143135249D01*
X299176613Y-140508249D02*
X299430613Y-140508249D01*
X299176614Y-140762249D02*
X299176613Y-140508249D01*
X299430613Y-140508249D02*
X299430613Y-140762249D01*
X299430613Y-140762249D02*
X299176614Y-140762249D01*
X301422613Y-139935249D02*
X301422614Y-139735249D01*
X301422613Y-141535249D02*
X301422613Y-141335249D01*
D16*
X296762113Y-138000248D02*
G75*
G02*
X296508113Y-138000248I-127000J0D01*
G01*
X296508113Y-138000248D02*
G75*
G02*
X296762113Y-138000248I127000J0D01*
G01*
D17*
X298334413Y-138635248D02*
G75*
G02*
X298110813Y-138635248I-111800J0D01*
G01*
X298110813Y-138635248D02*
G75*
G02*
X298334413Y-138635248I111800J0D01*
G01*
%TD*%
M02*
