%TF.GenerationSoftware,KiCad,Pcbnew,9.0.0*%
%TF.CreationDate,2025-08-14T13:48:37-07:00*%
%TF.ProjectId,pieceC,70696563-6543-42e6-9b69-6361645f7063,rev?*%
%TF.SameCoordinates,Original*%
%TF.FileFunction,Paste,Bot*%
%TF.FilePolarity,Positive*%
%FSLAX46Y46*%
G04 Gerber Fmt 4.6, Leading zero omitted, Abs format (unit mm)*
G04 Created by KiCad (PCBNEW 9.0.0) date 2025-08-14 13:48:37*
%MOMM*%
%LPD*%
G01*
G04 APERTURE LIST*
G04 Aperture macros list*
%AMRoundRect*
0 Rectangle with rounded corners*
0 $1 Rounding radius*
0 $2 $3 $4 $5 $6 $7 $8 $9 X,Y pos of 4 corners*
0 Add a 4 corners polygon primitive as box body*
4,1,4,$2,$3,$4,$5,$6,$7,$8,$9,$2,$3,0*
0 Add four circle primitives for the rounded corners*
1,1,$1+$1,$2,$3*
1,1,$1+$1,$4,$5*
1,1,$1+$1,$6,$7*
1,1,$1+$1,$8,$9*
0 Add four rect primitives between the rounded corners*
20,1,$1+$1,$2,$3,$4,$5,0*
20,1,$1+$1,$4,$5,$6,$7,0*
20,1,$1+$1,$6,$7,$8,$9,0*
20,1,$1+$1,$8,$9,$2,$3,0*%
%AMRotRect*
0 Rectangle, with rotation*
0 The origin of the aperture is its center*
0 $1 length*
0 $2 width*
0 $3 Rotation angle, in degrees counterclockwise*
0 Add horizontal line*
21,1,$1,$2,0,0,$3*%
G04 Aperture macros list end*
%ADD10RoundRect,0.171250X-0.855949X-0.971811X0.121261X-1.289326X0.855949X0.971811X-0.121261X1.289326X0*%
%ADD11RoundRect,0.082500X-0.114772X-0.086255X0.042153X-0.137243X0.114772X0.086255X-0.042153X0.137243X0*%
%ADD12RoundRect,0.095000X-0.122797X-0.070504X0.057904X-0.129218X0.122797X0.070504X-0.057904X0.129218X0*%
%ADD13RoundRect,0.069750X-0.556757X-0.434467X0.195053X-0.678745X0.556757X0.434467X-0.195053X0.678745X0*%
%ADD14RoundRect,0.098250X-1.619315X-0.059254X1.275225X-0.999747X1.619315X0.059254X-1.275225X0.999747X0*%
%ADD15RotRect,0.475000X0.500000X342.000000*%
%ADD16RotRect,1.500000X0.900000X342.000000*%
%ADD17RotRect,1.500000X0.900000X252.000000*%
%ADD18RotRect,0.900000X0.900000X342.000000*%
%ADD19RotRect,0.540000X0.600000X342.000000*%
%ADD20RotRect,0.655600X0.800000X342.000000*%
%ADD21RoundRect,0.147500X-0.480688X0.001094X0.389528X-0.281656X0.480688X-0.001094X-0.389528X0.281656X0*%
G04 APERTURE END LIST*
D10*
%TO.C,C3*%
X74653806Y-90397322D03*
X77356708Y-91275548D03*
%TD*%
%TO.C,C1*%
X62156642Y-86521143D03*
X64859544Y-87399369D03*
%TD*%
D11*
%TO.C,R1*%
X78838462Y-95232556D03*
D12*
X79394830Y-95413331D03*
%TD*%
D13*
%TO.C,U2*%
X74079361Y-96933502D03*
X76257281Y-97641151D03*
X78435200Y-98348800D03*
D14*
X74189957Y-104003719D03*
%TD*%
D15*
%TO.C,R5*%
X57395318Y-88837566D03*
X58369200Y-89154000D03*
%TD*%
D13*
%TO.C,U1*%
X61636804Y-92929583D03*
X63814724Y-93637232D03*
X65992643Y-94344881D03*
D14*
X61747400Y-99999800D03*
%TD*%
D16*
%TO.C,U4*%
X33885813Y-102911772D03*
X34278265Y-101703929D03*
X34670716Y-100496087D03*
X35063168Y-99288245D03*
X35455620Y-98080403D03*
X35848071Y-96872562D03*
X36240523Y-95664720D03*
X36632974Y-94456878D03*
X37025426Y-93249036D03*
X37417878Y-92041195D03*
X37810329Y-90833353D03*
X38202781Y-89625511D03*
X38595232Y-88417669D03*
X38987684Y-87209827D03*
D17*
X42265167Y-86960418D03*
X43473009Y-87352870D03*
X44680850Y-87745322D03*
X45888692Y-88137773D03*
X47096534Y-88530225D03*
X48304376Y-88922676D03*
X49512218Y-89315128D03*
X50720059Y-89707581D03*
X51927901Y-90100031D03*
X53135743Y-90492483D03*
D16*
X55631173Y-92617625D03*
X55238721Y-93825467D03*
X54846270Y-95033308D03*
X54453818Y-96241150D03*
X54061367Y-97448992D03*
X53668915Y-98656834D03*
X53276463Y-99864676D03*
X52884012Y-101072517D03*
X52491560Y-102280359D03*
X52099109Y-103488201D03*
X51706657Y-104696043D03*
X51314205Y-105903884D03*
X50921754Y-107111726D03*
X50529302Y-108319568D03*
D18*
X42267729Y-96045885D03*
X41835105Y-97377364D03*
X41402481Y-98708843D03*
X43599208Y-96478508D03*
X43166584Y-97809987D03*
X42733960Y-99141468D03*
X44930687Y-96911132D03*
X44498063Y-98242611D03*
X44065440Y-99574090D03*
%TD*%
D19*
%TO.C,R4*%
X68090268Y-88446975D03*
X68911978Y-88713965D03*
%TD*%
%TO.C,R2*%
X78934289Y-93027210D03*
X79755999Y-93294200D03*
%TD*%
D20*
%TO.C,C2*%
X61240785Y-89439061D03*
X62815355Y-89950669D03*
%TD*%
%TO.C,C4*%
X73760445Y-93284931D03*
X75335015Y-93796539D03*
%TD*%
D21*
%TO.C,U3*%
X55423248Y-85711367D03*
X55716814Y-84807864D03*
X56010380Y-83904360D03*
X58397532Y-84679993D03*
X57810400Y-86487000D03*
%TD*%
D11*
%TO.C,R3*%
X66392462Y-91422556D03*
D12*
X66948830Y-91603331D03*
%TD*%
M02*
