%TF.GenerationSoftware,KiCad,Pcbnew,9.0.0*%
%TF.CreationDate,2025-08-07T09:37:02-07:00*%
%TF.ProjectId,pieceAB_v-score,70696563-6541-4425-9f76-2d73636f7265,rev?*%
%TF.SameCoordinates,Original*%
%TF.FileFunction,Copper,L2,Bot*%
%TF.FilePolarity,Positive*%
%FSLAX46Y46*%
G04 Gerber Fmt 4.6, Leading zero omitted, Abs format (unit mm)*
G04 Created by KiCad (PCBNEW 9.0.0) date 2025-08-07 09:37:02*
%MOMM*%
%LPD*%
G01*
G04 APERTURE LIST*
G04 Aperture macros list*
%AMRoundRect*
0 Rectangle with rounded corners*
0 $1 Rounding radius*
0 $2 $3 $4 $5 $6 $7 $8 $9 X,Y pos of 4 corners*
0 Add a 4 corners polygon primitive as box body*
4,1,4,$2,$3,$4,$5,$6,$7,$8,$9,$2,$3,0*
0 Add four circle primitives for the rounded corners*
1,1,$1+$1,$2,$3*
1,1,$1+$1,$4,$5*
1,1,$1+$1,$6,$7*
1,1,$1+$1,$8,$9*
0 Add four rect primitives between the rounded corners*
20,1,$1+$1,$2,$3,$4,$5,0*
20,1,$1+$1,$4,$5,$6,$7,0*
20,1,$1+$1,$6,$7,$8,$9,0*
20,1,$1+$1,$8,$9,$2,$3,0*%
G04 Aperture macros list end*
%TA.AperFunction,ComponentPad*%
%ADD10RoundRect,0.250000X-0.550000X-0.550000X0.550000X-0.550000X0.550000X0.550000X-0.550000X0.550000X0*%
%TD*%
%TA.AperFunction,ComponentPad*%
%ADD11C,1.600000*%
%TD*%
%TA.AperFunction,ComponentPad*%
%ADD12RoundRect,0.250000X-0.353122X0.693040X-0.693040X-0.353122X0.353122X-0.693040X0.693040X0.353122X0*%
%TD*%
%TA.AperFunction,ComponentPad*%
%ADD13RoundRect,0.250000X-0.768241X-0.121677X0.121677X-0.768241X0.768241X0.121677X-0.121677X0.768241X0*%
%TD*%
%TA.AperFunction,ViaPad*%
%ADD14C,0.600000*%
%TD*%
%TA.AperFunction,Conductor*%
%ADD15C,0.700000*%
%TD*%
%TA.AperFunction,Conductor*%
%ADD16C,0.300000*%
%TD*%
%TA.AperFunction,Conductor*%
%ADD17C,0.200000*%
%TD*%
%TA.AperFunction,Conductor*%
%ADD18C,0.500000*%
%TD*%
G04 APERTURE END LIST*
D10*
%TO.P,J3,1,Pin_1*%
%TO.N,+12V*%
X357626929Y-144252748D03*
D11*
%TO.P,J3,2,Pin_2*%
%TO.N,GND*%
X361226929Y-144252748D03*
%TO.P,J3,3,Pin_3*%
%TO.N,Net-(J3-Pin_3)*%
X364826929Y-144252748D03*
%TO.P,J3,4,Pin_4*%
%TO.N,Net-(J3-Pin_4)*%
X368426929Y-144252749D03*
%TD*%
D12*
%TO.P,J2,1,Pin_1*%
%TO.N,+12V*%
X355229650Y-149339226D03*
D11*
%TO.P,J2,2,Pin_2*%
%TO.N,GND*%
X354117189Y-152763029D03*
%TO.P,J2,3,Pin_3*%
%TO.N,Net-(J2-Pin_3)*%
X353004728Y-156186835D03*
%TO.P,J2,4,Pin_4*%
%TO.N,Net-(J2-Pin_4)*%
X351892266Y-159610636D03*
%TD*%
D13*
%TO.P,J1,1,Pin_1*%
%TO.N,+12V*%
X88133528Y-154807408D03*
D11*
%TO.P,J1,2,Pin_2*%
%TO.N,GND*%
X91045989Y-156923435D03*
%TO.P,J1,3,Pin_3*%
%TO.N,Net-(J1-Pin_3)*%
X93958450Y-159039462D03*
%TO.P,J1,4,Pin_4*%
%TO.N,Net-(J1-Pin_4)*%
X96870912Y-161155490D03*
%TD*%
D10*
%TO.P,J4,1,Pin_1*%
%TO.N,+12V*%
X86472675Y-132029212D03*
D11*
%TO.P,J4,2,Pin_2*%
%TO.N,GND*%
X90072675Y-132029212D03*
%TO.P,J4,3,Pin_3*%
%TO.N,Net-(J4-Pin_3)*%
X93672676Y-132029212D03*
%TO.P,J4,4,Pin_4*%
%TO.N,Net-(J4-Pin_4)*%
X97272675Y-132029213D03*
%TD*%
D14*
%TO.N,+12V*%
X104959428Y-155181935D03*
%TO.N,Net-(U1-DO)*%
X314984404Y-148196235D03*
X295494806Y-150892242D03*
X311932928Y-149963835D03*
X312948928Y-148947835D03*
%TO.N,Net-(J1-Pin_3)*%
X97582328Y-155894035D03*
X97582328Y-157394035D03*
%TO.N,Net-(U2-DO)*%
X293644928Y-149963835D03*
X283434128Y-148236132D03*
X271793244Y-152679260D03*
X313964928Y-157583835D03*
%TO.N,Net-(U3-DO)*%
X272308928Y-149455835D03*
X293136928Y-157583835D03*
X263164928Y-148439835D03*
X250698089Y-153136762D03*
%TO.N,Net-(U4-DO)*%
X251208504Y-149945411D03*
X271800928Y-157583835D03*
X229602936Y-153136763D03*
X242844928Y-148439835D03*
%TO.N,Net-(U5-DO)*%
X250972928Y-157583835D03*
X208923247Y-153091949D03*
X222524928Y-148439835D03*
X230119927Y-149938834D03*
%TO.N,Net-(U6-DO)*%
X209031350Y-149932257D03*
X202204928Y-148439835D03*
X188097881Y-152214387D03*
X229636928Y-157583835D03*
%TO.N,Net-(U7-DO)*%
X166987190Y-152439697D03*
X208808928Y-157583835D03*
X179852928Y-148439835D03*
X187964887Y-149693794D03*
%TO.N,Net-(U10-BIN)*%
X167123382Y-149934289D03*
X156484928Y-148439835D03*
X145898613Y-152433120D03*
X187472928Y-157583835D03*
%TO.N,Net-(U10-DIN)*%
X136114128Y-148439835D03*
X145816928Y-149963835D03*
X124810937Y-152427443D03*
X166644928Y-157583835D03*
%TO.N,Net-(U10-DO)*%
X124652543Y-149932250D03*
X145308928Y-157583835D03*
X103652928Y-153062635D03*
X115794128Y-148439835D03*
%TO.N,Net-(J2-Pin_3)*%
X336582028Y-153073735D03*
X343886128Y-154713635D03*
%TO.N,Net-(J2-Pin_4)*%
X339020428Y-148806535D03*
X313890774Y-155043835D03*
X335007228Y-148846235D03*
X332634459Y-149887104D03*
X344038528Y-150827435D03*
%TO.N,Net-(U11-DO)*%
X124480928Y-157583835D03*
X103588466Y-149899373D03*
%TO.N,Net-(U12-DO)*%
X101652663Y-156180500D03*
X100808128Y-157660035D03*
%TO.N,GND*%
X340874628Y-152286335D03*
X336937628Y-150787735D03*
X355295129Y-142296949D03*
X107416229Y-134245149D03*
%TO.N,Net-(J3-Pin_4)*%
X350596129Y-140239549D03*
X339860488Y-142534108D03*
X341591898Y-143452718D03*
%TO.N,Net-(J3-Pin_3)*%
X342162691Y-142880511D03*
X349641209Y-140275229D03*
X368198329Y-141001549D03*
X321270230Y-135196048D03*
%TO.N,Net-(J4-Pin_4)*%
X107416229Y-135045152D03*
X113116697Y-142892779D03*
X131860382Y-137736048D03*
%TO.N,Net-(J4-Pin_3)*%
X108667229Y-136429549D03*
%TO.N,Net-(U13-DO)*%
X132802230Y-143832049D03*
X133818230Y-142816047D03*
X150256352Y-141887641D03*
X130766753Y-144583649D03*
%TO.N,Net-(U14-DO)*%
X131786230Y-135196047D03*
X162432929Y-145040149D03*
X173957913Y-140100623D03*
X152106229Y-142816049D03*
%TO.N,Net-(U15-DO)*%
X182651329Y-144848749D03*
X173442229Y-143324048D03*
X152614229Y-135196048D03*
X195053068Y-139643121D03*
%TO.N,Net-(U16-DO)*%
X173950229Y-135196048D03*
X216148222Y-139643120D03*
X202971329Y-144989349D03*
X194542652Y-142834471D03*
%TO.N,Net-(U17-DO)*%
X215631231Y-142841049D03*
X223226229Y-144989349D03*
X236827910Y-139687935D03*
X194778229Y-135196048D03*
%TO.N,Net-(U18-DO)*%
X236719807Y-142847626D03*
X216114230Y-135196048D03*
X257653275Y-140565497D03*
X243598066Y-145040149D03*
%TO.N,Net-(U19-DO)*%
X265887129Y-144924949D03*
X257786270Y-143086090D03*
X280227460Y-138935248D03*
X236942230Y-135196047D03*
%TO.N,Net-(U20-DO)*%
X258278229Y-135196049D03*
X299852544Y-140346763D03*
X289382129Y-145014749D03*
X278627776Y-142845593D03*
%TO.N,Net-(U21-DO)*%
X299934230Y-142816048D03*
X320940220Y-140352440D03*
X279106229Y-135196048D03*
X309774609Y-144836949D03*
%TO.N,Net-(U22-DO)*%
X321098614Y-142847633D03*
X342098229Y-139717249D03*
X329971329Y-145014749D03*
X300442230Y-135196048D03*
%TD*%
D15*
%TO.N,+12V*%
X98344328Y-159412635D02*
X93739101Y-154807408D01*
X100728728Y-159412635D02*
X98344328Y-159412635D01*
X93739101Y-154807408D02*
X88133528Y-154807408D01*
X104959428Y-155181935D02*
X100728728Y-159412635D01*
D16*
%TO.N,Net-(U1-DO)*%
X314984404Y-148196235D02*
X313700528Y-148196235D01*
X295494806Y-150892242D02*
X311004521Y-150892242D01*
X311004521Y-150892242D02*
X311932928Y-149963835D01*
X313700528Y-148196235D02*
X312948928Y-148947835D01*
D17*
%TO.N,Net-(J1-Pin_3)*%
X93619928Y-158700940D02*
X93958450Y-159039462D01*
D16*
X97582328Y-157394035D02*
X97582328Y-155894035D01*
%TO.N,Net-(U2-DO)*%
X301264928Y-157583835D02*
X293644928Y-149963835D01*
X313964928Y-157583835D02*
X301264928Y-157583835D01*
X272607977Y-148236132D02*
X271657928Y-149186181D01*
X283434128Y-148236132D02*
X272607977Y-148236132D01*
X271657928Y-149186181D02*
X271657928Y-152543944D01*
X271657928Y-152543944D02*
X271793244Y-152679260D01*
%TO.N,Net-(U3-DO)*%
X250557504Y-149675757D02*
X250557504Y-152996177D01*
X250557504Y-152996177D02*
X250698089Y-153136762D01*
X251793426Y-148439835D02*
X250557504Y-149675757D01*
X263164928Y-148439835D02*
X251793426Y-148439835D01*
X280436928Y-157583835D02*
X272308928Y-149455835D01*
X293136928Y-157583835D02*
X280436928Y-157583835D01*
%TO.N,Net-(U4-DO)*%
X230698272Y-148439835D02*
X229468927Y-149669180D01*
X229468927Y-153002754D02*
X229602936Y-153136763D01*
X242844928Y-148439835D02*
X230698272Y-148439835D01*
X271800928Y-157583835D02*
X258846928Y-157583835D01*
X258846928Y-157583835D02*
X251208504Y-149945411D01*
X229468927Y-149669180D02*
X229468927Y-153002754D01*
%TO.N,Net-(U5-DO)*%
X237764928Y-157583835D02*
X230119927Y-149938834D01*
X208380350Y-149662603D02*
X208380350Y-152549052D01*
X209603118Y-148439835D02*
X208380350Y-149662603D01*
X222524928Y-148439835D02*
X209603118Y-148439835D01*
X250972928Y-157583835D02*
X237764928Y-157583835D01*
X208380350Y-152549052D02*
X208923247Y-153091949D01*
%TO.N,Net-(U6-DO)*%
X187313887Y-149424140D02*
X187313887Y-151430393D01*
X202204928Y-148439835D02*
X188298192Y-148439835D01*
X229636928Y-157583835D02*
X216682928Y-157583835D01*
X187313887Y-151430393D02*
X188097881Y-152214387D01*
X188298192Y-148439835D02*
X187313887Y-149424140D01*
X216682928Y-157583835D02*
X209031350Y-149932257D01*
%TO.N,Net-(U7-DO)*%
X208808928Y-157583835D02*
X195854928Y-157583835D01*
X195854928Y-157583835D02*
X187964887Y-149693794D01*
X167697182Y-148439835D02*
X166472382Y-149664635D01*
X179852928Y-148439835D02*
X167697182Y-148439835D01*
X166472382Y-149664635D02*
X166472382Y-151924889D01*
X166472382Y-151924889D02*
X166987190Y-152439697D01*
%TO.N,Net-(U10-BIN)*%
X156484928Y-148439835D02*
X146420274Y-148439835D01*
X145165928Y-149694181D02*
X145165928Y-151700435D01*
X146420274Y-148439835D02*
X145165928Y-149694181D01*
X174772928Y-157583835D02*
X167123382Y-149934289D01*
X145165928Y-151700435D02*
X145898613Y-152433120D01*
X187472928Y-157583835D02*
X174772928Y-157583835D01*
%TO.N,Net-(U10-DIN)*%
X124001543Y-149662596D02*
X124001543Y-151618049D01*
X125224304Y-148439835D02*
X124001543Y-149662596D01*
X153436928Y-157583835D02*
X145816928Y-149963835D01*
X166644928Y-157583835D02*
X153436928Y-157583835D01*
X136114128Y-148439835D02*
X125224304Y-148439835D01*
X124001543Y-151618049D02*
X124810937Y-152427443D01*
%TO.N,Net-(U10-DO)*%
X132304128Y-157583835D02*
X124652543Y-149932250D01*
X115794128Y-148439835D02*
X104127350Y-148439835D01*
X102937466Y-149629719D02*
X102937466Y-152347173D01*
X102937466Y-152347173D02*
X103652928Y-153062635D01*
X145308928Y-157583835D02*
X132304128Y-157583835D01*
X104127350Y-148439835D02*
X102937466Y-149629719D01*
D17*
%TO.N,Net-(J2-Pin_3)*%
X343886128Y-154713635D02*
X342246228Y-153073735D01*
X342246228Y-153073735D02*
X336582028Y-153073735D01*
%TO.N,Net-(J2-Pin_4)*%
X332634459Y-149887104D02*
X319047505Y-149887104D01*
D16*
X344292528Y-151843435D02*
X351892266Y-159443173D01*
X351892266Y-159443173D02*
X351892266Y-159610636D01*
X344038528Y-150827435D02*
X344292528Y-151081435D01*
X335072328Y-148781135D02*
X335007228Y-148846235D01*
X344292528Y-151081435D02*
X344292528Y-151843435D01*
X339020428Y-148806535D02*
X338995028Y-148781135D01*
X338995028Y-148781135D02*
X335072328Y-148781135D01*
D17*
X319047505Y-149887104D02*
X313890774Y-155043835D01*
D16*
%TO.N,Net-(U11-DO)*%
X124480928Y-157583835D02*
X111272928Y-157583835D01*
X111272928Y-157583835D02*
X103588466Y-149899373D01*
%TO.N,Net-(U12-DO)*%
X101652663Y-156180500D02*
X101652663Y-156815500D01*
X101652663Y-156815500D02*
X100808128Y-157660035D01*
D18*
%TO.N,GND*%
X92288612Y-134245149D02*
X90072675Y-132029212D01*
X355980929Y-142982749D02*
X360215929Y-142982749D01*
X107416229Y-134245149D02*
X92288612Y-134245149D01*
D15*
X338436228Y-152286335D02*
X336937628Y-150787735D01*
D18*
X355295129Y-142296949D02*
X355980929Y-142982749D01*
X360215929Y-142982749D02*
X361231929Y-143998749D01*
D15*
X340874628Y-152286335D02*
X338436228Y-152286335D01*
D16*
%TO.N,Net-(J3-Pin_4)*%
X350596129Y-140239549D02*
X350596129Y-137089949D01*
X350596129Y-137089949D02*
X358216129Y-129469949D01*
X365810729Y-129469949D02*
X365810729Y-132162349D01*
X365810729Y-132162349D02*
X367410929Y-133762549D01*
X367410929Y-143236749D02*
X368426929Y-144252749D01*
X340673288Y-142534108D02*
X341591898Y-143452718D01*
X339860488Y-142534108D02*
X340673288Y-142534108D01*
X367410929Y-133762549D02*
X367410929Y-143236749D01*
X358216129Y-129469949D02*
X365810729Y-129469949D01*
%TO.N,Net-(J3-Pin_3)*%
X349641209Y-136715050D02*
X349641209Y-140275229D01*
X368198329Y-141001549D02*
X368350729Y-140849149D01*
X368350729Y-140849149D02*
X368350729Y-133282629D01*
X357784331Y-128571928D02*
X349641209Y-136715050D01*
X366725132Y-131603546D02*
X366725132Y-128571576D01*
X366725129Y-131603549D02*
X366725132Y-131603546D01*
X334478229Y-135196048D02*
X342162691Y-142880511D01*
X368350729Y-133282629D02*
X366725129Y-131657029D01*
X366725129Y-131657029D02*
X366725129Y-131603549D01*
X321270230Y-135196048D02*
X334478229Y-135196048D01*
X366725132Y-128571576D02*
X357784331Y-128571928D01*
%TO.N,Net-(J4-Pin_4)*%
X106120947Y-132029213D02*
X97272675Y-132029213D01*
X107416229Y-135045152D02*
X107536880Y-135045152D01*
D17*
X113116697Y-142892779D02*
X126703652Y-142892778D01*
D16*
X107536880Y-135045152D02*
X108067229Y-134514803D01*
D17*
X126703652Y-142892778D02*
X131860382Y-137736048D01*
D16*
X108067229Y-134514803D02*
X108067229Y-133975495D01*
X108067229Y-133975495D02*
X106120947Y-132029213D01*
%TO.N,Net-(J4-Pin_3)*%
X94823675Y-130878213D02*
X93672676Y-132029212D01*
X108667229Y-136429549D02*
X108667229Y-133866975D01*
X108667229Y-133866975D02*
X105678467Y-130878213D01*
X105678467Y-130878213D02*
X94823675Y-130878213D01*
%TO.N,Net-(U13-DO)*%
X150256352Y-141887641D02*
X134746637Y-141887640D01*
X134746637Y-141887640D02*
X133818230Y-142816047D01*
X132050629Y-144583647D02*
X132802230Y-143832049D01*
X130766753Y-144583649D02*
X132050629Y-144583647D01*
%TO.N,Net-(U14-DO)*%
X144486230Y-135196047D02*
X152106229Y-142816049D01*
X162432929Y-145040149D02*
X172646782Y-145040149D01*
X174093229Y-143593702D02*
X174093229Y-140235939D01*
X172646782Y-145040149D02*
X174093229Y-143593702D01*
X174093229Y-140235939D02*
X173957913Y-140100623D01*
X131786230Y-135196047D02*
X144486230Y-135196047D01*
%TO.N,Net-(U15-DO)*%
X195193653Y-143104126D02*
X195193654Y-139783706D01*
X195193654Y-139783706D02*
X195053068Y-139643121D01*
X182663129Y-144836949D02*
X193460830Y-144836949D01*
X182651329Y-144848749D02*
X182663129Y-144836949D01*
X152614229Y-135196048D02*
X165314229Y-135196049D01*
X165314229Y-135196049D02*
X173442229Y-143324048D01*
X193460830Y-144836949D02*
X195193653Y-143104126D01*
%TO.N,Net-(U16-DO)*%
X186904229Y-135196049D02*
X194542652Y-142834471D01*
X216282231Y-143110704D02*
X216282230Y-139777129D01*
X173950229Y-135196048D02*
X186904229Y-135196049D01*
X202971329Y-144989349D02*
X214403586Y-144989349D01*
X214403586Y-144989349D02*
X216282231Y-143110704D01*
X216282230Y-139777129D02*
X216148222Y-139643120D01*
%TO.N,Net-(U17-DO)*%
X194778229Y-135196048D02*
X207986229Y-135196048D01*
X207986229Y-135196048D02*
X215631231Y-142841049D01*
X237370806Y-140230832D02*
X236827910Y-139687935D01*
X237370807Y-143117280D02*
X237370806Y-140230832D01*
X235498738Y-144989349D02*
X237370807Y-143117280D01*
X223226229Y-144989349D02*
X235498738Y-144989349D01*
%TO.N,Net-(U18-DO)*%
X243598066Y-145040149D02*
X256752863Y-145040149D01*
X256752863Y-145040149D02*
X258437270Y-143355742D01*
X258437270Y-141349489D02*
X257653275Y-140565497D01*
X216114230Y-135196048D02*
X229068229Y-135196048D01*
X229068229Y-135196048D02*
X236719807Y-142847626D01*
X258437270Y-143355742D02*
X258437270Y-141349489D01*
%TO.N,Net-(U19-DO)*%
X279278775Y-140854995D02*
X279278775Y-143115248D01*
X249896228Y-135196048D02*
X257786270Y-143086090D01*
X236942230Y-135196047D02*
X249896228Y-135196048D01*
X279278775Y-143115248D02*
X277480874Y-144913149D01*
X265898929Y-144913149D02*
X265887129Y-144924949D01*
X280227460Y-139906310D02*
X279278775Y-140854995D01*
X280227460Y-138935248D02*
X280227460Y-139906310D01*
X277480874Y-144913149D02*
X265898929Y-144913149D01*
%TO.N,Net-(U20-DO)*%
X298656182Y-145014749D02*
X300585229Y-143085702D01*
X300585229Y-141079448D02*
X299852544Y-140346763D01*
X289382129Y-145014749D02*
X298656182Y-145014749D01*
X300585229Y-143085702D02*
X300585229Y-141079448D01*
X258278229Y-135196049D02*
X270978229Y-135196048D01*
X270978229Y-135196048D02*
X278627776Y-142845593D01*
%TO.N,Net-(U21-DO)*%
X320029951Y-144836949D02*
X321749614Y-143117286D01*
X309774609Y-144836949D02*
X320029951Y-144836949D01*
X321749614Y-143117286D02*
X321749614Y-141161834D01*
X279106229Y-135196048D02*
X292314230Y-135196047D01*
X292314230Y-135196047D02*
X299934230Y-142816048D01*
X321749614Y-141161834D02*
X320940220Y-140352440D01*
%TO.N,Net-(U22-DO)*%
X329971329Y-145014749D02*
X340949106Y-145014749D01*
X342813692Y-140432711D02*
X342098229Y-139717249D01*
X313447029Y-135196047D02*
X321098614Y-142847633D01*
X342813692Y-143150163D02*
X342813692Y-140432711D01*
X300442230Y-135196048D02*
X313447029Y-135196047D01*
X340949106Y-145014749D02*
X342813692Y-143150163D01*
%TD*%
M02*
