%TF.GenerationSoftware,KiCad,Pcbnew,9.0.0*%
%TF.CreationDate,2025-08-07T09:37:01-07:00*%
%TF.ProjectId,pieceAB_v-score,70696563-6541-4425-9f76-2d73636f7265,rev?*%
%TF.SameCoordinates,Original*%
%TF.FileFunction,Copper,L1,Top*%
%TF.FilePolarity,Positive*%
%FSLAX46Y46*%
G04 Gerber Fmt 4.6, Leading zero omitted, Abs format (unit mm)*
G04 Created by KiCad (PCBNEW 9.0.0) date 2025-08-07 09:37:01*
%MOMM*%
%LPD*%
G01*
G04 APERTURE LIST*
G04 Aperture macros list*
%AMRoundRect*
0 Rectangle with rounded corners*
0 $1 Rounding radius*
0 $2 $3 $4 $5 $6 $7 $8 $9 X,Y pos of 4 corners*
0 Add a 4 corners polygon primitive as box body*
4,1,4,$2,$3,$4,$5,$6,$7,$8,$9,$2,$3,0*
0 Add four circle primitives for the rounded corners*
1,1,$1+$1,$2,$3*
1,1,$1+$1,$4,$5*
1,1,$1+$1,$6,$7*
1,1,$1+$1,$8,$9*
0 Add four rect primitives between the rounded corners*
20,1,$1+$1,$2,$3,$4,$5,0*
20,1,$1+$1,$4,$5,$6,$7,0*
20,1,$1+$1,$6,$7,$8,$9,0*
20,1,$1+$1,$8,$9,$2,$3,0*%
G04 Aperture macros list end*
%TA.AperFunction,SMDPad,CuDef*%
%ADD10O,2.000000X1.100000*%
%TD*%
%TA.AperFunction,ComponentPad*%
%ADD11RoundRect,0.250000X-0.550000X-0.550000X0.550000X-0.550000X0.550000X0.550000X-0.550000X0.550000X0*%
%TD*%
%TA.AperFunction,ComponentPad*%
%ADD12C,1.600000*%
%TD*%
%TA.AperFunction,SMDPad,CuDef*%
%ADD13R,0.540000X0.600000*%
%TD*%
%TA.AperFunction,SMDPad,CuDef*%
%ADD14R,0.870000X0.930000*%
%TD*%
%TA.AperFunction,ComponentPad*%
%ADD15RoundRect,0.250000X-0.353122X0.693040X-0.693040X-0.353122X0.353122X-0.693040X0.693040X0.353122X0*%
%TD*%
%TA.AperFunction,ComponentPad*%
%ADD16RoundRect,0.250000X-0.768241X-0.121677X0.121677X-0.768241X0.768241X0.121677X-0.121677X0.768241X0*%
%TD*%
%TA.AperFunction,ViaPad*%
%ADD17C,0.600000*%
%TD*%
%TA.AperFunction,Conductor*%
%ADD18C,0.700000*%
%TD*%
%TA.AperFunction,Conductor*%
%ADD19C,0.500000*%
%TD*%
%TA.AperFunction,Conductor*%
%ADD20C,0.300000*%
%TD*%
%TA.AperFunction,Conductor*%
%ADD21C,0.200000*%
%TD*%
G04 APERTURE END LIST*
D10*
%TO.P,U21,1,VCC*%
%TO.N,Net-(U21-VCC)*%
X275427459Y-138935248D03*
%TO.P,U21,2,VDD*%
%TO.N,+12V*%
X275427459Y-140635248D03*
%TO.P,U21,3,DO*%
%TO.N,Net-(U21-DO)*%
X275427458Y-142335248D03*
%TO.P,U21,4,DIN*%
%TO.N,Net-(U20-DO)*%
X280227459Y-142335248D03*
%TO.P,U21,5,GND*%
%TO.N,GND*%
X280227459Y-140635248D03*
%TO.P,U21,6,BIN*%
%TO.N,Net-(U19-DO)*%
X280227460Y-138935248D03*
%TD*%
D11*
%TO.P,J3,1,Pin_1*%
%TO.N,+12V*%
X357626929Y-144252748D03*
D12*
%TO.P,J3,2,Pin_2*%
%TO.N,GND*%
X361226929Y-144252748D03*
%TO.P,J3,3,Pin_3*%
%TO.N,Net-(J3-Pin_3)*%
X364826929Y-144252748D03*
%TO.P,J3,4,Pin_4*%
%TO.N,Net-(J3-Pin_4)*%
X368426929Y-144252749D03*
%TD*%
D10*
%TO.P,U16,1,VCC*%
%TO.N,Net-(U16-VCC)*%
X169951690Y-139392752D03*
%TO.P,U16,2,VDD*%
%TO.N,+12V*%
X169951690Y-141092752D03*
%TO.P,U16,3,DO*%
%TO.N,Net-(U16-DO)*%
X169951689Y-142792752D03*
%TO.P,U16,4,DIN*%
%TO.N,Net-(U15-DO)*%
X174751690Y-142792752D03*
%TO.P,U16,5,GND*%
%TO.N,GND*%
X174751690Y-141092752D03*
%TO.P,U16,6,BIN*%
%TO.N,Net-(U14-DO)*%
X174751691Y-139392752D03*
%TD*%
%TO.P,U24,1,VCC*%
%TO.N,Net-(U24-VCC)*%
X338712920Y-138935248D03*
%TO.P,U24,2,VDD*%
%TO.N,+12V*%
X338712920Y-140635248D03*
%TO.P,U24,3,DO*%
%TO.N,Net-(J3-Pin_4)*%
X338712919Y-142335248D03*
%TO.P,U24,4,DIN*%
%TO.N,Net-(J3-Pin_3)*%
X343512920Y-142335248D03*
%TO.P,U24,5,GND*%
%TO.N,GND*%
X343512920Y-140635248D03*
%TO.P,U24,6,BIN*%
%TO.N,Net-(U22-DO)*%
X343512921Y-138935248D03*
%TD*%
D13*
%TO.P,C11,1*%
%TO.N,Net-(U11-VCC)*%
X126168164Y-160174635D03*
%TO.P,C11,2*%
%TO.N,GND*%
X125304164Y-160174635D03*
%TD*%
D10*
%TO.P,U15,1,VCC*%
%TO.N,Net-(U15-VCC)*%
X148856536Y-138935248D03*
%TO.P,U15,2,VDD*%
%TO.N,+12V*%
X148856536Y-140635248D03*
%TO.P,U15,3,DO*%
%TO.N,Net-(U15-DO)*%
X148856535Y-142335248D03*
%TO.P,U15,4,DIN*%
%TO.N,Net-(U14-DO)*%
X153656536Y-142335248D03*
%TO.P,U15,5,GND*%
%TO.N,GND*%
X153656536Y-140635248D03*
%TO.P,U15,6,BIN*%
%TO.N,Net-(U13-DO)*%
X153656537Y-138935248D03*
%TD*%
D13*
%TO.P,C23,1*%
%TO.N,Net-(U23-VCC)*%
X319582993Y-132605248D03*
%TO.P,C23,2*%
%TO.N,GND*%
X320446993Y-132605248D03*
%TD*%
D10*
%TO.P,U5,1,VCC*%
%TO.N,Net-(U5-VCC)*%
X254704313Y-153844635D03*
%TO.P,U5,2,VDD*%
%TO.N,+12V*%
X254704313Y-152144635D03*
%TO.P,U5,3,DO*%
%TO.N,Net-(U5-DO)*%
X254704313Y-150444635D03*
%TO.P,U5,4,DIN*%
%TO.N,Net-(U4-DO)*%
X249904313Y-150444635D03*
%TO.P,U5,5,GND*%
%TO.N,GND*%
X249904313Y-152144635D03*
%TO.P,U5,6,BIN*%
%TO.N,Net-(U3-DO)*%
X249904313Y-153844635D03*
%TD*%
D13*
%TO.P,C6,1*%
%TO.N,Net-(U6-VCC)*%
X231624346Y-160147435D03*
%TO.P,C6,2*%
%TO.N,GND*%
X230760346Y-160147435D03*
%TD*%
D10*
%TO.P,U7,1,VCC*%
%TO.N,Net-(U7-VCC)*%
X212514006Y-153844635D03*
%TO.P,U7,2,VDD*%
%TO.N,+12V*%
X212514006Y-152144635D03*
%TO.P,U7,3,DO*%
%TO.N,Net-(U7-DO)*%
X212514006Y-150444635D03*
%TO.P,U7,4,DIN*%
%TO.N,Net-(U6-DO)*%
X207714006Y-150444635D03*
%TO.P,U7,5,GND*%
%TO.N,GND*%
X207714006Y-152144635D03*
%TO.P,U7,6,BIN*%
%TO.N,Net-(U5-DO)*%
X207714006Y-153844635D03*
%TD*%
%TO.P,U1,1,VCC*%
%TO.N,Net-(U1-VCC)*%
X339084928Y-153848235D03*
%TO.P,U1,2,VDD*%
%TO.N,+12V*%
X339084928Y-152148235D03*
%TO.P,U1,3,DO*%
%TO.N,Net-(U1-DO)*%
X339084928Y-150448235D03*
%TO.P,U1,4,DIN*%
%TO.N,Net-(J2-Pin_4)*%
X334284928Y-150448235D03*
%TO.P,U1,5,GND*%
%TO.N,GND*%
X334284928Y-152148235D03*
%TO.P,U1,6,BIN*%
%TO.N,Net-(J2-Pin_3)*%
X334284928Y-153848235D03*
%TD*%
%TO.P,U10,1,VCC*%
%TO.N,Net-(U10-VCC)*%
X149228544Y-153844635D03*
%TO.P,U10,2,VDD*%
%TO.N,+12V*%
X149228544Y-152144635D03*
%TO.P,U10,3,DO*%
%TO.N,Net-(U10-DO)*%
X149228544Y-150444635D03*
%TO.P,U10,4,DIN*%
%TO.N,Net-(U10-DIN)*%
X144428544Y-150444635D03*
%TO.P,U10,5,GND*%
%TO.N,GND*%
X144428544Y-152144635D03*
%TO.P,U10,6,BIN*%
%TO.N,Net-(U10-BIN)*%
X144428544Y-153844635D03*
%TD*%
D13*
%TO.P,C16,1*%
%TO.N,Net-(U16-VCC)*%
X171944339Y-132632448D03*
%TO.P,C16,2*%
%TO.N,GND*%
X172808339Y-132632448D03*
%TD*%
%TO.P,C9,1*%
%TO.N,Net-(U9-VCC)*%
X168350637Y-160147435D03*
%TO.P,C9,2*%
%TO.N,GND*%
X167486637Y-160147435D03*
%TD*%
D10*
%TO.P,U19,1,VCC*%
%TO.N,Net-(U19-VCC)*%
X233237152Y-138935249D03*
%TO.P,U19,2,VDD*%
%TO.N,+12V*%
X233237152Y-140635249D03*
%TO.P,U19,3,DO*%
%TO.N,Net-(U19-DO)*%
X233237151Y-142335249D03*
%TO.P,U19,4,DIN*%
%TO.N,Net-(U18-DO)*%
X238037152Y-142335249D03*
%TO.P,U19,5,GND*%
%TO.N,GND*%
X238037152Y-140635249D03*
%TO.P,U19,6,BIN*%
%TO.N,Net-(U17-DO)*%
X238037153Y-138935249D03*
%TD*%
D13*
%TO.P,C15,1*%
%TO.N,Net-(U15-VCC)*%
X150853102Y-132632448D03*
%TO.P,C15,2*%
%TO.N,GND*%
X151717102Y-132632448D03*
%TD*%
D10*
%TO.P,U20,1,VCC*%
%TO.N,Net-(U20-VCC)*%
X254332306Y-139145021D03*
%TO.P,U20,2,VDD*%
%TO.N,+12V*%
X254332306Y-140845021D03*
%TO.P,U20,3,DO*%
%TO.N,Net-(U20-DO)*%
X254332305Y-142545021D03*
%TO.P,U20,4,DIN*%
%TO.N,Net-(U19-DO)*%
X259132306Y-142545021D03*
%TO.P,U20,5,GND*%
%TO.N,GND*%
X259132306Y-140845021D03*
%TO.P,U20,6,BIN*%
%TO.N,Net-(U18-DO)*%
X259132307Y-139145021D03*
%TD*%
%TO.P,U8,1,VCC*%
%TO.N,Net-(U8-VCC)*%
X191418852Y-153634862D03*
%TO.P,U8,2,VDD*%
%TO.N,+12V*%
X191418852Y-151934862D03*
%TO.P,U8,3,DO*%
%TO.N,Net-(U10-BIN)*%
X191418852Y-150234862D03*
%TO.P,U8,4,DIN*%
%TO.N,Net-(U7-DO)*%
X186618852Y-150234862D03*
%TO.P,U8,5,GND*%
%TO.N,GND*%
X186618852Y-151934862D03*
%TO.P,U8,6,BIN*%
%TO.N,Net-(U6-DO)*%
X186618852Y-153634862D03*
%TD*%
%TO.P,U9,1,VCC*%
%TO.N,Net-(U9-VCC)*%
X170323698Y-153844635D03*
%TO.P,U9,2,VDD*%
%TO.N,+12V*%
X170323698Y-152144635D03*
%TO.P,U9,3,DO*%
%TO.N,Net-(U10-DIN)*%
X170323698Y-150444635D03*
%TO.P,U9,4,DIN*%
%TO.N,Net-(U10-BIN)*%
X165523698Y-150444635D03*
%TO.P,U9,5,GND*%
%TO.N,GND*%
X165523698Y-152144635D03*
%TO.P,U9,6,BIN*%
%TO.N,Net-(U7-DO)*%
X165523698Y-153844635D03*
%TD*%
%TO.P,U6,1,VCC*%
%TO.N,Net-(U6-VCC)*%
X233609159Y-153844635D03*
%TO.P,U6,2,VDD*%
%TO.N,+12V*%
X233609159Y-152144635D03*
%TO.P,U6,3,DO*%
%TO.N,Net-(U6-DO)*%
X233609159Y-150444635D03*
%TO.P,U6,4,DIN*%
%TO.N,Net-(U5-DO)*%
X228809159Y-150444635D03*
%TO.P,U6,5,GND*%
%TO.N,GND*%
X228809159Y-152144635D03*
%TO.P,U6,6,BIN*%
%TO.N,Net-(U4-DO)*%
X228809159Y-153844635D03*
%TD*%
D14*
%TO.P,R1,1*%
%TO.N,Net-(J1-Pin_3)*%
X97292328Y-153799235D03*
%TO.P,R1,2*%
%TO.N,Net-(U11-DO)*%
X98852328Y-153799235D03*
%TD*%
D15*
%TO.P,J2,1,Pin_1*%
%TO.N,+12V*%
X355229650Y-149339226D03*
D12*
%TO.P,J2,2,Pin_2*%
%TO.N,GND*%
X354117189Y-152763029D03*
%TO.P,J2,3,Pin_3*%
%TO.N,Net-(J2-Pin_3)*%
X353004728Y-156186835D03*
%TO.P,J2,4,Pin_4*%
%TO.N,Net-(J2-Pin_4)*%
X351892266Y-159610636D03*
%TD*%
D13*
%TO.P,C3,1*%
%TO.N,Net-(U3-VCC)*%
X294898055Y-160147435D03*
%TO.P,C3,2*%
%TO.N,GND*%
X294034055Y-160147435D03*
%TD*%
%TO.P,C10,1*%
%TO.N,Net-(U10-VCC)*%
X147259401Y-160147435D03*
%TO.P,C10,2*%
%TO.N,GND*%
X146395401Y-160147435D03*
%TD*%
D10*
%TO.P,U11,1,VCC*%
%TO.N,Net-(U11-VCC)*%
X128133391Y-153846435D03*
%TO.P,U11,2,VDD*%
%TO.N,+12V*%
X128133391Y-152146435D03*
%TO.P,U11,3,DO*%
%TO.N,Net-(U11-DO)*%
X128133391Y-150446435D03*
%TO.P,U11,4,DIN*%
%TO.N,Net-(U10-DO)*%
X123333391Y-150446435D03*
%TO.P,U11,5,GND*%
%TO.N,GND*%
X123333391Y-152146435D03*
%TO.P,U11,6,BIN*%
%TO.N,Net-(U10-DIN)*%
X123333391Y-153846435D03*
%TD*%
D13*
%TO.P,C24,1*%
%TO.N,Net-(U24-VCC)*%
X340674229Y-132632449D03*
%TO.P,C24,2*%
%TO.N,GND*%
X341538229Y-132632449D03*
%TD*%
D10*
%TO.P,U4,1,VCC*%
%TO.N,Net-(U4-VCC)*%
X275799467Y-153387132D03*
%TO.P,U4,2,VDD*%
%TO.N,+12V*%
X275799467Y-151687132D03*
%TO.P,U4,3,DO*%
%TO.N,Net-(U4-DO)*%
X275799467Y-149987132D03*
%TO.P,U4,4,DIN*%
%TO.N,Net-(U3-DO)*%
X270999467Y-149987132D03*
%TO.P,U4,5,GND*%
%TO.N,GND*%
X270999467Y-151687132D03*
%TO.P,U4,6,BIN*%
%TO.N,Net-(U2-DO)*%
X270999467Y-153387132D03*
%TD*%
%TO.P,U13,1,VCC*%
%TO.N,Net-(U13-VCC)*%
X106666229Y-138931649D03*
%TO.P,U13,2,VDD*%
%TO.N,+12V*%
X106666229Y-140631649D03*
%TO.P,U13,3,DO*%
%TO.N,Net-(U13-DO)*%
X106666228Y-142331649D03*
%TO.P,U13,4,DIN*%
%TO.N,Net-(J4-Pin_4)*%
X111466229Y-142331649D03*
%TO.P,U13,5,GND*%
%TO.N,GND*%
X111466229Y-140631649D03*
%TO.P,U13,6,BIN*%
%TO.N,Net-(J4-Pin_3)*%
X111466230Y-138931649D03*
%TD*%
D13*
%TO.P,C21,1*%
%TO.N,Net-(U21-VCC)*%
X277400520Y-132632448D03*
%TO.P,C21,2*%
%TO.N,GND*%
X278264520Y-132632448D03*
%TD*%
D10*
%TO.P,U12,1,VCC*%
%TO.N,Net-(U12-VCC)*%
X107038237Y-153844635D03*
%TO.P,U12,2,VDD*%
%TO.N,+12V*%
X107038237Y-152144635D03*
%TO.P,U12,3,DO*%
%TO.N,Net-(U12-DO)*%
X107038237Y-150444635D03*
%TO.P,U12,4,DIN*%
%TO.N,Net-(U11-DO)*%
X102238237Y-150444635D03*
%TO.P,U12,5,GND*%
%TO.N,GND*%
X102238237Y-152144635D03*
%TO.P,U12,6,BIN*%
%TO.N,Net-(U10-DO)*%
X102238237Y-153844635D03*
%TD*%
%TO.P,U3,1,VCC*%
%TO.N,Net-(U3-VCC)*%
X296894621Y-153844635D03*
%TO.P,U3,2,VDD*%
%TO.N,+12V*%
X296894621Y-152144635D03*
%TO.P,U3,3,DO*%
%TO.N,Net-(U3-DO)*%
X296894621Y-150444635D03*
%TO.P,U3,4,DIN*%
%TO.N,Net-(U2-DO)*%
X292094621Y-150444635D03*
%TO.P,U3,5,GND*%
%TO.N,GND*%
X292094621Y-152144635D03*
%TO.P,U3,6,BIN*%
%TO.N,Net-(U1-DO)*%
X292094621Y-153844635D03*
%TD*%
%TO.P,U17,1,VCC*%
%TO.N,Net-(U17-VCC)*%
X191046844Y-138935248D03*
%TO.P,U17,2,VDD*%
%TO.N,+12V*%
X191046844Y-140635248D03*
%TO.P,U17,3,DO*%
%TO.N,Net-(U17-DO)*%
X191046843Y-142335248D03*
%TO.P,U17,4,DIN*%
%TO.N,Net-(U16-DO)*%
X195846844Y-142335248D03*
%TO.P,U17,5,GND*%
%TO.N,GND*%
X195846844Y-140635248D03*
%TO.P,U17,6,BIN*%
%TO.N,Net-(U15-DO)*%
X195846845Y-138935248D03*
%TD*%
D16*
%TO.P,J1,1,Pin_1*%
%TO.N,+12V*%
X88133528Y-154807408D03*
D12*
%TO.P,J1,2,Pin_2*%
%TO.N,GND*%
X91045989Y-156923435D03*
%TO.P,J1,3,Pin_3*%
%TO.N,Net-(J1-Pin_3)*%
X93958450Y-159039462D03*
%TO.P,J1,4,Pin_4*%
%TO.N,Net-(J1-Pin_4)*%
X96870912Y-161155490D03*
%TD*%
D10*
%TO.P,U23,1,VCC*%
%TO.N,Net-(U23-VCC)*%
X317617766Y-138933447D03*
%TO.P,U23,2,VDD*%
%TO.N,+12V*%
X317617766Y-140633447D03*
%TO.P,U23,3,DO*%
%TO.N,Net-(J3-Pin_3)*%
X317617765Y-142333447D03*
%TO.P,U23,4,DIN*%
%TO.N,Net-(U22-DO)*%
X322417766Y-142333447D03*
%TO.P,U23,5,GND*%
%TO.N,GND*%
X322417766Y-140633447D03*
%TO.P,U23,6,BIN*%
%TO.N,Net-(U21-DO)*%
X322417767Y-138933447D03*
%TD*%
D13*
%TO.P,C22,1*%
%TO.N,Net-(U22-VCC)*%
X298491757Y-132632449D03*
%TO.P,C22,2*%
%TO.N,GND*%
X299355757Y-132632449D03*
%TD*%
%TO.P,C1,1*%
%TO.N,Net-(U1-VCC)*%
X337080528Y-160149235D03*
%TO.P,C1,2*%
%TO.N,GND*%
X336216528Y-160149235D03*
%TD*%
D11*
%TO.P,J4,1,Pin_1*%
%TO.N,+12V*%
X86472675Y-132029212D03*
D12*
%TO.P,J4,2,Pin_2*%
%TO.N,GND*%
X90072675Y-132029212D03*
%TO.P,J4,3,Pin_3*%
%TO.N,Net-(J4-Pin_3)*%
X93672676Y-132029212D03*
%TO.P,J4,4,Pin_4*%
%TO.N,Net-(J4-Pin_4)*%
X97272675Y-132029213D03*
%TD*%
D13*
%TO.P,C14,1*%
%TO.N,Net-(U14-VCC)*%
X129761865Y-132632449D03*
%TO.P,C14,2*%
%TO.N,GND*%
X130625865Y-132632449D03*
%TD*%
%TO.P,C12,1*%
%TO.N,Net-(U12-VCC)*%
X105076928Y-160147435D03*
%TO.P,C12,2*%
%TO.N,GND*%
X104212928Y-160147435D03*
%TD*%
D10*
%TO.P,U2,1,VCC*%
%TO.N,Net-(U2-VCC)*%
X317989774Y-153848235D03*
%TO.P,U2,2,VDD*%
%TO.N,+12V*%
X317989774Y-152148235D03*
%TO.P,U2,3,DO*%
%TO.N,Net-(U2-DO)*%
X317989774Y-150448235D03*
%TO.P,U2,4,DIN*%
%TO.N,Net-(U1-DO)*%
X313189774Y-150448235D03*
%TO.P,U2,5,GND*%
%TO.N,GND*%
X313189774Y-152148235D03*
%TO.P,U2,6,BIN*%
%TO.N,Net-(J2-Pin_4)*%
X313189774Y-153848235D03*
%TD*%
D13*
%TO.P,C5,1*%
%TO.N,Net-(U5-VCC)*%
X252715583Y-160147435D03*
%TO.P,C5,2*%
%TO.N,GND*%
X251851583Y-160147435D03*
%TD*%
%TO.P,C18,1*%
%TO.N,Net-(U18-VCC)*%
X214126810Y-132632449D03*
%TO.P,C18,2*%
%TO.N,GND*%
X214990810Y-132632449D03*
%TD*%
D10*
%TO.P,U14,1,VCC*%
%TO.N,Net-(U14-VCC)*%
X127761383Y-138931648D03*
%TO.P,U14,2,VDD*%
%TO.N,+12V*%
X127761383Y-140631648D03*
%TO.P,U14,3,DO*%
%TO.N,Net-(U14-DO)*%
X127761382Y-142331648D03*
%TO.P,U14,4,DIN*%
%TO.N,Net-(U13-DO)*%
X132561383Y-142331648D03*
%TO.P,U14,5,GND*%
%TO.N,GND*%
X132561383Y-140631648D03*
%TO.P,U14,6,BIN*%
%TO.N,Net-(J4-Pin_4)*%
X132561384Y-138931648D03*
%TD*%
D14*
%TO.P,R2,1*%
%TO.N,Net-(J1-Pin_4)*%
X98130528Y-158777635D03*
%TO.P,R2,2*%
%TO.N,Net-(U12-DO)*%
X99690528Y-158777635D03*
%TD*%
D13*
%TO.P,C7,1*%
%TO.N,Net-(U7-VCC)*%
X210533110Y-160147435D03*
%TO.P,C7,2*%
%TO.N,GND*%
X209669110Y-160147435D03*
%TD*%
%TO.P,C17,1*%
%TO.N,Net-(U17-VCC)*%
X193035574Y-132632448D03*
%TO.P,C17,2*%
%TO.N,GND*%
X193899574Y-132632448D03*
%TD*%
%TO.P,C13,1*%
%TO.N,Net-(U13-VCC)*%
X108670629Y-132630648D03*
%TO.P,C13,2*%
%TO.N,GND*%
X109534629Y-132630648D03*
%TD*%
D10*
%TO.P,U18,1,VCC*%
%TO.N,Net-(U18-VCC)*%
X212141999Y-138935248D03*
%TO.P,U18,2,VDD*%
%TO.N,+12V*%
X212141999Y-140635248D03*
%TO.P,U18,3,DO*%
%TO.N,Net-(U18-DO)*%
X212141998Y-142335248D03*
%TO.P,U18,4,DIN*%
%TO.N,Net-(U17-DO)*%
X216941999Y-142335248D03*
%TO.P,U18,5,GND*%
%TO.N,GND*%
X216941999Y-140635248D03*
%TO.P,U18,6,BIN*%
%TO.N,Net-(U16-DO)*%
X216942000Y-138935248D03*
%TD*%
D13*
%TO.P,C8,1*%
%TO.N,Net-(U8-VCC)*%
X189441873Y-160147435D03*
%TO.P,C8,2*%
%TO.N,GND*%
X188577873Y-160147435D03*
%TD*%
%TO.P,C19,1*%
%TO.N,Net-(U19-VCC)*%
X235218048Y-132632449D03*
%TO.P,C19,2*%
%TO.N,GND*%
X236082048Y-132632449D03*
%TD*%
%TO.P,C20,1*%
%TO.N,Net-(U20-VCC)*%
X256309285Y-132632448D03*
%TO.P,C20,2*%
%TO.N,GND*%
X257173285Y-132632448D03*
%TD*%
%TO.P,C2,1*%
%TO.N,Net-(U2-VCC)*%
X315989292Y-160147435D03*
%TO.P,C2,2*%
%TO.N,GND*%
X315125292Y-160147435D03*
%TD*%
%TO.P,C4,1*%
%TO.N,Net-(U4-VCC)*%
X273806819Y-160147435D03*
%TO.P,C4,2*%
%TO.N,GND*%
X272942819Y-160147435D03*
%TD*%
D10*
%TO.P,U22,1,VCC*%
%TO.N,Net-(U22-VCC)*%
X296522613Y-138935249D03*
%TO.P,U22,2,VDD*%
%TO.N,+12V*%
X296522613Y-140635249D03*
%TO.P,U22,3,DO*%
%TO.N,Net-(U22-DO)*%
X296522612Y-142335249D03*
%TO.P,U22,4,DIN*%
%TO.N,Net-(U21-DO)*%
X301322613Y-142335249D03*
%TO.P,U22,5,GND*%
%TO.N,GND*%
X301322613Y-140635249D03*
%TO.P,U22,6,BIN*%
%TO.N,Net-(U20-DO)*%
X301322614Y-138935249D03*
%TD*%
D17*
%TO.N,+12V*%
X104959428Y-155181935D03*
%TO.N,Net-(U1-DO)*%
X314984404Y-148196235D03*
X295494806Y-150892242D03*
X311932928Y-149963835D03*
X312948928Y-148947835D03*
%TO.N,Net-(J1-Pin_3)*%
X97582328Y-155894035D03*
X97582328Y-157394035D03*
%TO.N,Net-(U2-DO)*%
X293644928Y-149963835D03*
X283434128Y-148236132D03*
X271793244Y-152679260D03*
X313964928Y-157583835D03*
%TO.N,Net-(U3-DO)*%
X272308928Y-149455835D03*
X293136928Y-157583835D03*
X263164928Y-148439835D03*
X250698089Y-153136762D03*
%TO.N,Net-(U4-DO)*%
X251208504Y-149945411D03*
X271800928Y-157583835D03*
X229602936Y-153136763D03*
X242844928Y-148439835D03*
%TO.N,Net-(U5-DO)*%
X250972928Y-157583835D03*
X208923247Y-153091949D03*
X222524928Y-148439835D03*
X230119927Y-149938834D03*
%TO.N,Net-(U6-DO)*%
X209031350Y-149932257D03*
X202204928Y-148439835D03*
X188097881Y-152214387D03*
X229636928Y-157583835D03*
%TO.N,Net-(U7-DO)*%
X166987190Y-152439697D03*
X208808928Y-157583835D03*
X179852928Y-148439835D03*
X187964887Y-149693794D03*
%TO.N,Net-(U10-BIN)*%
X167123382Y-149934289D03*
X156484928Y-148439835D03*
X145898613Y-152433120D03*
X187472928Y-157583835D03*
%TO.N,Net-(U10-DIN)*%
X136114128Y-148439835D03*
X145816928Y-149963835D03*
X124810937Y-152427443D03*
X166644928Y-157583835D03*
%TO.N,Net-(U10-DO)*%
X124652543Y-149932250D03*
X145308928Y-157583835D03*
X103652928Y-153062635D03*
X115794128Y-148439835D03*
%TO.N,Net-(J2-Pin_3)*%
X336582028Y-153073735D03*
X343886128Y-154713635D03*
%TO.N,Net-(J2-Pin_4)*%
X339020428Y-148806535D03*
X313890774Y-155043835D03*
X335007228Y-148846235D03*
X332634459Y-149887104D03*
X344038528Y-150827435D03*
%TO.N,Net-(U11-DO)*%
X124480928Y-157583835D03*
X103588466Y-149899373D03*
%TO.N,Net-(U12-DO)*%
X101652663Y-156180500D03*
X100808128Y-157660035D03*
%TO.N,GND*%
X340874628Y-152286335D03*
X336937628Y-150787735D03*
X355295129Y-142296949D03*
X107416229Y-134245149D03*
%TO.N,Net-(J3-Pin_4)*%
X350596129Y-140239549D03*
X339860488Y-142534108D03*
X341591898Y-143452718D03*
%TO.N,Net-(J3-Pin_3)*%
X342162691Y-142880511D03*
X349641209Y-140275229D03*
X368198329Y-141001549D03*
X321270230Y-135196048D03*
%TO.N,Net-(J4-Pin_4)*%
X107416229Y-135045152D03*
X113116697Y-142892779D03*
X131860382Y-137736048D03*
%TO.N,Net-(J4-Pin_3)*%
X108667229Y-136429549D03*
%TO.N,Net-(U13-DO)*%
X132802230Y-143832049D03*
X133818230Y-142816047D03*
X150256352Y-141887641D03*
X130766753Y-144583649D03*
%TO.N,Net-(U14-DO)*%
X131786230Y-135196047D03*
X162432929Y-145040149D03*
X173957913Y-140100623D03*
X152106229Y-142816049D03*
%TO.N,Net-(U15-DO)*%
X182651329Y-144848749D03*
X173442229Y-143324048D03*
X152614229Y-135196048D03*
X195053068Y-139643121D03*
%TO.N,Net-(U16-DO)*%
X173950229Y-135196048D03*
X216148222Y-139643120D03*
X202971329Y-144989349D03*
X194542652Y-142834471D03*
%TO.N,Net-(U17-DO)*%
X215631231Y-142841049D03*
X223226229Y-144989349D03*
X236827910Y-139687935D03*
X194778229Y-135196048D03*
%TO.N,Net-(U18-DO)*%
X236719807Y-142847626D03*
X216114230Y-135196048D03*
X257653275Y-140565497D03*
X243598066Y-145040149D03*
%TO.N,Net-(U19-DO)*%
X265887129Y-144924949D03*
X257786270Y-143086090D03*
X280227460Y-138935248D03*
X236942230Y-135196047D03*
%TO.N,Net-(U20-DO)*%
X258278229Y-135196049D03*
X299852544Y-140346763D03*
X289382129Y-145014749D03*
X278627776Y-142845593D03*
%TO.N,Net-(U21-DO)*%
X299934230Y-142816048D03*
X320940220Y-140352440D03*
X279106229Y-135196048D03*
X309774609Y-144836949D03*
%TO.N,Net-(U22-DO)*%
X321098614Y-142847633D03*
X342098229Y-139717249D03*
X329971329Y-145014749D03*
X300442230Y-135196048D03*
%TD*%
D18*
%TO.N,+12V*%
X297517055Y-161398435D02*
X299927275Y-158988215D01*
X306598421Y-161398435D02*
X318574813Y-161398435D01*
X295872756Y-131381447D02*
X307915766Y-131381448D01*
X167690729Y-139280027D02*
X167690729Y-133124347D01*
D19*
X170287318Y-141092751D02*
X170452946Y-141092750D01*
D18*
X132017859Y-155580904D02*
X128583391Y-152146435D01*
D19*
X338712921Y-140635248D02*
X339162920Y-140635248D01*
D18*
X190416575Y-131381448D02*
X202438198Y-131381448D01*
X321026128Y-158947120D02*
X321026128Y-152148235D01*
X170969637Y-161398435D02*
X158932344Y-161398435D01*
X297517055Y-161398435D02*
X285960770Y-161398435D01*
X159790387Y-131381448D02*
X169501691Y-141092751D01*
D19*
X234059159Y-152144635D02*
X233609159Y-152144635D01*
X211691998Y-140635248D02*
X212141998Y-140635248D01*
D18*
X153234336Y-155700427D02*
X149678544Y-152144635D01*
X106588237Y-152144635D02*
X104959428Y-153773444D01*
X335991129Y-132695749D02*
X337438929Y-131247949D01*
X223533351Y-131381449D02*
X232787151Y-140635249D01*
X101560528Y-135870749D02*
X90314212Y-135870749D01*
X321026128Y-152148235D02*
X330282828Y-161404935D01*
X350708453Y-153707910D02*
X355062128Y-149354235D01*
D19*
X254704313Y-152144635D02*
X254869941Y-152144635D01*
D18*
X106500601Y-140631649D02*
X105395629Y-140631649D01*
X307915766Y-131381448D02*
X317167767Y-140633448D01*
X232599047Y-131381448D02*
X243973428Y-131381448D01*
D19*
X169501691Y-141092751D02*
X169951690Y-141092752D01*
X212141998Y-140635248D02*
X211976371Y-140635248D01*
D18*
X216246067Y-158304478D02*
X216246067Y-155426696D01*
D19*
X338712920Y-140635248D02*
X338897430Y-140635248D01*
X317989774Y-152148235D02*
X318439774Y-152148235D01*
D18*
X236966343Y-158675438D02*
X236966343Y-155051820D01*
D19*
X127761383Y-140631649D02*
X127311383Y-140631647D01*
D18*
X107038237Y-152144635D02*
X110791428Y-152144635D01*
X202438198Y-131381448D02*
X211691998Y-140635248D01*
X357631929Y-142627149D02*
X357631929Y-143998749D01*
X339084928Y-152148235D02*
X339391977Y-152148235D01*
X316963993Y-131354247D02*
X328502827Y-131354247D01*
X317989774Y-152148235D02*
X321026128Y-152148235D01*
D19*
X296522612Y-140635248D02*
X296356986Y-140635248D01*
D18*
X146811929Y-132803622D02*
X148234102Y-131381449D01*
D19*
X296894621Y-152144635D02*
X297344621Y-152144635D01*
X275427459Y-140635249D02*
X275261831Y-140635249D01*
X128133391Y-152146435D02*
X128299019Y-152146435D01*
D18*
X315417129Y-138867275D02*
X315417129Y-132901111D01*
X258337328Y-154610435D02*
X255871528Y-152144635D01*
X255334583Y-161398435D02*
X243312959Y-161398435D01*
D19*
X106666229Y-140631648D02*
X106500601Y-140631649D01*
D18*
X191868852Y-151934862D02*
X191418852Y-151934862D01*
X209854729Y-138795609D02*
X209854729Y-133034529D01*
X231786152Y-139634249D02*
X230958564Y-138806661D01*
X104851129Y-132580148D02*
X105215229Y-132216048D01*
X274781520Y-131381448D02*
X286818812Y-131381449D01*
X258337328Y-158395690D02*
X258337328Y-154610435D01*
D19*
X210689814Y-139633064D02*
X210690999Y-139631879D01*
D18*
X234243346Y-161398435D02*
X222217806Y-161398435D01*
X276317528Y-161398435D02*
X279003949Y-158712014D01*
X105215229Y-132216048D02*
X101560528Y-135870749D01*
X255871528Y-152144635D02*
X254704313Y-152144635D01*
X295071614Y-139630064D02*
X294335129Y-138893579D01*
X169433629Y-131381447D02*
X181159227Y-131381447D01*
X195249677Y-158209631D02*
X195249677Y-155315686D01*
X286818812Y-131381449D02*
X296072614Y-140635247D01*
D19*
X317617766Y-140633448D02*
X317452138Y-140633448D01*
D18*
X149878401Y-161398435D02*
X137835391Y-161398435D01*
X120072428Y-161425635D02*
X128787164Y-161425635D01*
X180052128Y-161398435D02*
X174297128Y-155643435D01*
D19*
X149228544Y-152144635D02*
X149394172Y-152144635D01*
X295069522Y-139632156D02*
X295071614Y-139630064D01*
X191046845Y-140635249D02*
X190881215Y-140635248D01*
D18*
X132017859Y-158194940D02*
X132017859Y-155580904D01*
X336003829Y-138855249D02*
X337783829Y-140635249D01*
D19*
X296072614Y-140635247D02*
X296522612Y-140635248D01*
X191418852Y-151934862D02*
X191584480Y-151934862D01*
X318155402Y-152148235D02*
X317989774Y-152148235D01*
D18*
X190413028Y-140635248D02*
X190881215Y-140635248D01*
X339694828Y-161404935D02*
X340951653Y-160148110D01*
X139152737Y-131381448D02*
X148406537Y-140635248D01*
X253690284Y-131381448D02*
X265639628Y-131381448D01*
X274893428Y-140635248D02*
X274952829Y-140635248D01*
X335991129Y-138842549D02*
X335991129Y-132695749D01*
X243973428Y-131381448D02*
X253437001Y-140845021D01*
D19*
X149678544Y-152144635D02*
X149228544Y-152144635D01*
D18*
X174297128Y-155643435D02*
X170798328Y-152144635D01*
X285960770Y-161398435D02*
X279003949Y-154441614D01*
D19*
X148406537Y-140635248D02*
X147405537Y-139634249D01*
X317167767Y-140633448D02*
X317617766Y-140633448D01*
D18*
X212964006Y-152144635D02*
X212514006Y-152144635D01*
X294335129Y-138893579D02*
X294335129Y-132919074D01*
X213152110Y-161398435D02*
X201332425Y-161398435D01*
X297344621Y-152144635D02*
X299927275Y-154727288D01*
X318574813Y-161398435D02*
X321026128Y-158947120D01*
X243312959Y-161398435D02*
X236966343Y-155051820D01*
X299927275Y-158988215D02*
X299927275Y-154727288D01*
D19*
X170323698Y-152144635D02*
X170489326Y-152144635D01*
D18*
X265131828Y-161404935D02*
X258337328Y-154610435D01*
X315417129Y-132901111D02*
X316963993Y-131354247D01*
X276317528Y-161398435D02*
X265138328Y-161398435D01*
X174297128Y-158070944D02*
X174297128Y-155643435D01*
X167690729Y-133124347D02*
X169433629Y-131381447D01*
X149878401Y-161398435D02*
X153234336Y-158042500D01*
D19*
X316158998Y-139624680D02*
X316166766Y-139616912D01*
D18*
X126706227Y-140631647D02*
X127595756Y-140631647D01*
X222217806Y-161398435D02*
X212964006Y-152144635D01*
X128787164Y-161425635D02*
X132017859Y-158194940D01*
X105215229Y-132216048D02*
X106051630Y-131379647D01*
X181159227Y-131381447D02*
X190413028Y-140635248D01*
D19*
X275799467Y-151687132D02*
X275965095Y-151687132D01*
X107203865Y-152144635D02*
X107038237Y-152144635D01*
D18*
X213152110Y-161398435D02*
X216246067Y-158304478D01*
D19*
X273994029Y-139676449D02*
X273976459Y-139658879D01*
D18*
X328502827Y-131354247D02*
X336003829Y-138855249D01*
D19*
X339250556Y-152148235D02*
X339084928Y-152148235D01*
D18*
X104959428Y-153773444D02*
X104959428Y-155181935D01*
X117454227Y-131379647D02*
X126706227Y-140631647D01*
X192060873Y-161398435D02*
X195249677Y-158209631D01*
D19*
X170798328Y-152144635D02*
X170323698Y-152144635D01*
X148856537Y-140635248D02*
X148406537Y-140635248D01*
D18*
X146811929Y-139040641D02*
X146811929Y-132803622D01*
D19*
X254332305Y-140845021D02*
X254166678Y-140845021D01*
D18*
X201332425Y-161398435D02*
X195249677Y-155315686D01*
X153234336Y-158042500D02*
X153234336Y-155700427D01*
X125831529Y-139756949D02*
X125831529Y-132726263D01*
X337783829Y-140635249D02*
X338547292Y-140635249D01*
D19*
X232787151Y-140635249D02*
X231786152Y-139634249D01*
D18*
X211507811Y-131381447D02*
X223533351Y-131381449D01*
X340951653Y-153707910D02*
X350708453Y-153707910D01*
X90314212Y-135870749D02*
X86472675Y-132029212D01*
X299927275Y-154727288D02*
X306598421Y-161398435D01*
X230958564Y-138806661D02*
X230958564Y-133021931D01*
X230958564Y-133021931D02*
X232599047Y-131381448D01*
X251993329Y-139401349D02*
X251993329Y-133078403D01*
D19*
X276249467Y-151687132D02*
X275799467Y-151687132D01*
D18*
X127176344Y-131381448D02*
X139152737Y-131381448D01*
X209854729Y-133034529D02*
X211507811Y-131381447D01*
X192060873Y-161398435D02*
X180052128Y-161398435D01*
X210690999Y-139631879D02*
X209854729Y-138795609D01*
X188823529Y-139045749D02*
X188823529Y-132974494D01*
X265639628Y-131381448D02*
X274893428Y-140635248D01*
D19*
X169951690Y-141092752D02*
X169786062Y-141092750D01*
D18*
X340951653Y-160148110D02*
X340951653Y-153707910D01*
X273151529Y-133011439D02*
X274781520Y-131381448D01*
D19*
X233609159Y-152144635D02*
X233774787Y-152144635D01*
D18*
X170969637Y-161398435D02*
X174297128Y-158070944D01*
X273151529Y-138833949D02*
X273151529Y-133011439D01*
X253437001Y-140845021D02*
X254166678Y-140845021D01*
X339391977Y-152148235D02*
X340951653Y-153707910D01*
D19*
X274952829Y-140635248D02*
X275427459Y-140635249D01*
D18*
X125831529Y-132726263D02*
X127176344Y-131381448D01*
X251993329Y-133078403D02*
X253690284Y-131381448D01*
D19*
X127595756Y-140631647D02*
X127761383Y-140631649D01*
D18*
X110791428Y-152144635D02*
X120072428Y-161425635D01*
X147405537Y-139634249D02*
X146811929Y-139040641D01*
X316166766Y-139616912D02*
X315417129Y-138867275D01*
X106051630Y-131379647D02*
X117454227Y-131379647D01*
X279003949Y-154441614D02*
X276249467Y-151687132D01*
X273976459Y-139658879D02*
X273151529Y-138833949D01*
X337438929Y-131247949D02*
X346252729Y-131247949D01*
D19*
X128583391Y-152146435D02*
X128133391Y-152146435D01*
D18*
X236966343Y-155051820D02*
X234059159Y-152144635D01*
D19*
X338547292Y-140635249D02*
X338712921Y-140635248D01*
D18*
X234243346Y-161398435D02*
X236966343Y-158675438D01*
D19*
X233237151Y-140635249D02*
X232787151Y-140635249D01*
D18*
X148234102Y-131381449D02*
X159790387Y-131381448D01*
X188823529Y-132974494D02*
X190416575Y-131381448D01*
D19*
X107038237Y-152144635D02*
X106588237Y-152144635D01*
D18*
X104851129Y-140087149D02*
X104851129Y-132580148D01*
X346252729Y-131247949D02*
X357631929Y-142627149D01*
X336003829Y-138855249D02*
X335991129Y-138842549D01*
D19*
X275463839Y-151687132D02*
X275298211Y-151687132D01*
D18*
X137835391Y-161398435D02*
X132017859Y-155580904D01*
X330282828Y-161404935D02*
X339694828Y-161404935D01*
X255334583Y-161398435D02*
X258337328Y-158395690D01*
X294335129Y-132919074D02*
X295872756Y-131381447D01*
X195249677Y-155315686D02*
X191868852Y-151934862D01*
X265138328Y-161398435D02*
X265131828Y-161404935D01*
X158932344Y-161398435D02*
X153234336Y-155700427D01*
X105395629Y-140631649D02*
X104851129Y-140087149D01*
X279003949Y-158712014D02*
X279003949Y-154441614D01*
D19*
%TO.N,Net-(U2-VCC)*%
X317057292Y-160147435D02*
X315989292Y-160147435D01*
X317989774Y-153848235D02*
X317989774Y-159214953D01*
X317989774Y-159214953D02*
X317057292Y-160147435D01*
%TO.N,Net-(U1-VCC)*%
X338148528Y-160149235D02*
X337080528Y-160149235D01*
X339084928Y-159212835D02*
X338148528Y-160149235D01*
X339084928Y-153848235D02*
X339084928Y-159212835D01*
%TO.N,Net-(U3-VCC)*%
X295966055Y-160147435D02*
X294898055Y-160147435D01*
X296894621Y-153844635D02*
X296894621Y-159218869D01*
X296894621Y-159218869D02*
X295966055Y-160147435D01*
%TO.N,Net-(U4-VCC)*%
X274874819Y-160147435D02*
X273806819Y-160147435D01*
X275799467Y-153387132D02*
X275799467Y-159222787D01*
X275799467Y-159222787D02*
X274874819Y-160147435D01*
%TO.N,Net-(U5-VCC)*%
X254704313Y-159226705D02*
X253783583Y-160147435D01*
X253783583Y-160147435D02*
X252715583Y-160147435D01*
X254704313Y-153844635D02*
X254704313Y-159226705D01*
%TO.N,Net-(U6-VCC)*%
X233609159Y-153844635D02*
X233609159Y-159230622D01*
X233609159Y-159230622D02*
X232692346Y-160147435D01*
X232692346Y-160147435D02*
X231624346Y-160147435D01*
%TO.N,Net-(U7-VCC)*%
X212514006Y-153844635D02*
X212514006Y-159234539D01*
X212514006Y-159234539D02*
X211601110Y-160147435D01*
X211601110Y-160147435D02*
X210533110Y-160147435D01*
%TO.N,Net-(U8-VCC)*%
X191418852Y-159238456D02*
X190509873Y-160147435D01*
X191418852Y-153634862D02*
X191418852Y-159238456D01*
X190509873Y-160147435D02*
X189441873Y-160147435D01*
%TO.N,Net-(U9-VCC)*%
X170323698Y-159242374D02*
X169418637Y-160147435D01*
X170323698Y-153844635D02*
X170323698Y-159242374D01*
X169418637Y-160147435D02*
X168350637Y-160147435D01*
%TO.N,Net-(U12-VCC)*%
X106144928Y-160147435D02*
X105076928Y-160147435D01*
X107038237Y-159254126D02*
X106144928Y-160147435D01*
X107038237Y-153844635D02*
X107038237Y-159254126D01*
%TO.N,Net-(U11-VCC)*%
X128133391Y-159277408D02*
X127236164Y-160174635D01*
X127236164Y-160174635D02*
X126168164Y-160174635D01*
X128133391Y-153846435D02*
X128133391Y-159277408D01*
D20*
%TO.N,Net-(U1-DO)*%
X312948928Y-149980561D02*
X312835514Y-150093975D01*
X312948928Y-148947835D02*
X312948928Y-149980561D01*
X336832928Y-148196235D02*
X314984404Y-148196235D01*
X311932928Y-149963835D02*
X312705374Y-149963835D01*
X339084928Y-150448235D02*
X336832928Y-148196235D01*
X312705374Y-149963835D02*
X312835514Y-150093975D01*
X292094621Y-153844635D02*
X292542413Y-153844635D01*
X292542413Y-153844635D02*
X295494806Y-150892242D01*
%TO.N,Net-(J1-Pin_4)*%
X98130528Y-159895874D02*
X96870912Y-161155490D01*
X98130528Y-158777635D02*
X98130528Y-159895874D01*
%TO.N,Net-(J1-Pin_3)*%
X95898101Y-159039462D02*
X93958450Y-159039462D01*
X97582328Y-154089235D02*
X97292328Y-153799235D01*
X97582328Y-157394035D02*
X97543528Y-157394035D01*
X97543528Y-157394035D02*
X95898101Y-159039462D01*
X97582328Y-155894035D02*
X97582328Y-154089235D01*
D21*
X93966277Y-159031635D02*
X93958450Y-159039462D01*
D20*
%TO.N,Net-(U2-DO)*%
X314540774Y-157007989D02*
X313964928Y-157583835D01*
X292575421Y-149963835D02*
X292094621Y-150444635D01*
X317567568Y-150448235D02*
X314540774Y-153475029D01*
X293644928Y-149963835D02*
X292575421Y-149963835D01*
X271793244Y-152679260D02*
X271707339Y-152679260D01*
X289886118Y-148236132D02*
X283434128Y-148236132D01*
X292094621Y-150444635D02*
X289886118Y-148236132D01*
X314540774Y-153475029D02*
X314540774Y-157007989D01*
X271707339Y-152679260D02*
X270999467Y-153387132D01*
X317989774Y-150448235D02*
X317567568Y-150448235D01*
%TO.N,Net-(U3-DO)*%
X271530764Y-149455835D02*
X270999467Y-149987132D01*
X250612186Y-153136762D02*
X249904313Y-153844635D01*
X250698089Y-153136762D02*
X250612186Y-153136762D01*
X296894621Y-150444635D02*
X296870415Y-150444635D01*
X293445621Y-157275142D02*
X293136928Y-157583835D01*
X269452170Y-148439835D02*
X263164928Y-148439835D01*
X270999467Y-149987132D02*
X269452170Y-148439835D01*
X296870415Y-150444635D02*
X293445621Y-153869429D01*
X272308928Y-149455835D02*
X271530764Y-149455835D01*
X293445621Y-153869429D02*
X293445621Y-157275142D01*
X296919728Y-150444635D02*
X297200928Y-150725835D01*
X296894621Y-150444635D02*
X296919728Y-150444635D01*
%TO.N,Net-(U4-DO)*%
X229602936Y-153136763D02*
X229517031Y-153136763D01*
X251208504Y-149945411D02*
X250403537Y-149945411D01*
X272350467Y-153013926D02*
X272350467Y-157034296D01*
X275377261Y-149987132D02*
X272350467Y-153013926D01*
X272350467Y-157034296D02*
X271800928Y-157583835D01*
X249904313Y-150444635D02*
X247899513Y-148439835D01*
X250403537Y-149945411D02*
X249904313Y-150444635D01*
X229517031Y-153136763D02*
X228809159Y-153844635D01*
X247899513Y-148439835D02*
X242844928Y-148439835D01*
X275799467Y-149987132D02*
X275377261Y-149987132D01*
%TO.N,Net-(U5-DO)*%
X251255313Y-157301450D02*
X250972928Y-157583835D01*
X226804359Y-148439835D02*
X222524928Y-148439835D01*
X228809159Y-150444635D02*
X226804359Y-148439835D01*
X208466692Y-153091949D02*
X207714006Y-153844635D01*
X208923247Y-153091949D02*
X208466692Y-153091949D01*
X254282107Y-150444635D02*
X251255313Y-153471429D01*
X229314960Y-149938834D02*
X228809159Y-150444635D01*
X230119927Y-149938834D02*
X229314960Y-149938834D01*
X251255313Y-153471429D02*
X251255313Y-157301450D01*
X254704313Y-150444635D02*
X254282107Y-150444635D01*
%TO.N,Net-(U6-DO)*%
X209031350Y-149932257D02*
X208226384Y-149932257D01*
X230160159Y-157060604D02*
X229636928Y-157583835D01*
X188097881Y-152214387D02*
X186677406Y-153634862D01*
X233609159Y-150444635D02*
X233186953Y-150444635D01*
X230160159Y-153471429D02*
X230160159Y-157060604D01*
X186677406Y-153634862D02*
X186618852Y-153634862D01*
X207714006Y-150444635D02*
X205709206Y-148439835D01*
X205709206Y-148439835D02*
X202204928Y-148439835D01*
X208226384Y-149932257D02*
X207714006Y-150444635D01*
X233186953Y-150444635D02*
X230160159Y-153471429D01*
%TO.N,Net-(U7-DO)*%
X212514006Y-150444635D02*
X212489800Y-150444635D01*
X184823825Y-148439835D02*
X179852928Y-148439835D01*
X209065006Y-157327757D02*
X208808928Y-157583835D01*
X212489800Y-150444635D02*
X209065006Y-153869429D01*
X165582252Y-153844635D02*
X165523698Y-153844635D01*
X186618852Y-150234862D02*
X184823825Y-148439835D01*
X166987190Y-152439697D02*
X165582252Y-153844635D01*
X187964887Y-149693794D02*
X187159920Y-149693794D01*
X209065006Y-153869429D02*
X209065006Y-157327757D01*
X187159920Y-149693794D02*
X186618852Y-150234862D01*
%TO.N,Net-(U10-BIN)*%
X165523698Y-150444635D02*
X163518898Y-148439835D01*
X145898613Y-152433120D02*
X144487098Y-153844635D01*
X166034044Y-149934289D02*
X165523698Y-150444635D01*
X163518898Y-148439835D02*
X156484928Y-148439835D01*
X167123382Y-149934289D02*
X166034044Y-149934289D01*
X144487098Y-153844635D02*
X144428544Y-153844635D01*
X190996646Y-150234862D02*
X187969852Y-153261656D01*
X187969852Y-157086911D02*
X187472928Y-157583835D01*
X187969852Y-153261656D02*
X187969852Y-157086911D01*
X191418852Y-150234862D02*
X190996646Y-150234862D01*
%TO.N,Net-(U10-DIN)*%
X124810937Y-152427443D02*
X123391945Y-153846435D01*
X145816928Y-149963835D02*
X144909344Y-149963835D01*
X170323698Y-150444635D02*
X169901492Y-150444635D01*
X142423744Y-148439835D02*
X136114128Y-148439835D01*
X169901492Y-150444635D02*
X166874698Y-153471429D01*
X123391945Y-153846435D02*
X123333391Y-153846435D01*
X166874698Y-153471429D02*
X166874698Y-157354065D01*
X166874698Y-157354065D02*
X166644928Y-157583835D01*
X144428544Y-150444635D02*
X142423744Y-148439835D01*
X144909344Y-149963835D02*
X144428544Y-150444635D01*
%TO.N,Net-(U10-DO)*%
X103020237Y-153062635D02*
X102238237Y-153844635D01*
X123847576Y-149932250D02*
X123333391Y-150446435D01*
X148806338Y-150444635D02*
X145779544Y-153471429D01*
X123333391Y-150446435D02*
X121326791Y-148439835D01*
X149228544Y-150444635D02*
X148806338Y-150444635D01*
X124652543Y-149932250D02*
X123847576Y-149932250D01*
X103652928Y-153062635D02*
X103020237Y-153062635D01*
X145779544Y-157113219D02*
X145308928Y-157583835D01*
X102238237Y-153844635D02*
X102124537Y-153844635D01*
X121326791Y-148439835D02*
X115794128Y-148439835D01*
X145779544Y-153471429D02*
X145779544Y-157113219D01*
D21*
%TO.N,Net-(J2-Pin_3)*%
X352837206Y-156201844D02*
X345374337Y-156201844D01*
D20*
X335059428Y-153073735D02*
X334284928Y-153848235D01*
X336582028Y-153073735D02*
X335059428Y-153073735D01*
D21*
X345374337Y-156201844D02*
X343886128Y-154713635D01*
D20*
X334284928Y-153848235D02*
X334734928Y-153848235D01*
%TO.N,Net-(J2-Pin_4)*%
X339020428Y-148806535D02*
X342017628Y-148806535D01*
X313213980Y-153848235D02*
X313189774Y-153848235D01*
X334284928Y-150448235D02*
X333712928Y-150448235D01*
X342017628Y-148806535D02*
X344038528Y-150827435D01*
X335007228Y-148846235D02*
X335007228Y-149725935D01*
X335007228Y-149725935D02*
X334284928Y-150448235D01*
X351714934Y-159615835D02*
X351724744Y-159625645D01*
D21*
X313890774Y-155043835D02*
X313890774Y-154549235D01*
X313890774Y-154549235D02*
X313189774Y-153848235D01*
X333195590Y-150448235D02*
X332634459Y-149887104D01*
X334284928Y-150448235D02*
X333195590Y-150448235D01*
D20*
%TO.N,Net-(U11-DO)*%
X102206928Y-150444635D02*
X98852328Y-153799235D01*
X124684391Y-153473229D02*
X124684391Y-157380372D01*
X102238237Y-150444635D02*
X102206928Y-150444635D01*
X102238237Y-150444635D02*
X101978328Y-150444635D01*
X124684391Y-157380372D02*
X124480928Y-157583835D01*
X128133391Y-150446435D02*
X127711185Y-150446435D01*
X103588466Y-149899373D02*
X102783499Y-149899373D01*
X102783499Y-149899373D02*
X102238237Y-150444635D01*
X127711185Y-150446435D02*
X124684391Y-153473229D01*
%TO.N,Net-(U12-DO)*%
X104258428Y-153483080D02*
X104258428Y-153574735D01*
X107038237Y-150444635D02*
X106638237Y-150444635D01*
X106812086Y-150218484D02*
X107038237Y-150444635D01*
X104258428Y-153574735D02*
X101652663Y-156180500D01*
X104313328Y-152769544D02*
X104313328Y-153428180D01*
X104313328Y-153428180D02*
X104258428Y-153483080D01*
X100808128Y-157660035D02*
X99690528Y-158777635D01*
X106638237Y-150444635D02*
X104313328Y-152769544D01*
D18*
%TO.N,GND*%
X340874628Y-152286335D02*
X340885728Y-152275235D01*
D19*
X123167763Y-152146435D02*
X120234263Y-149212935D01*
D18*
X171221329Y-143998749D02*
X174127326Y-141092752D01*
D19*
X112917229Y-139346277D02*
X111631857Y-140631647D01*
X239488151Y-139349876D02*
X239488151Y-134970552D01*
X208601110Y-160147435D02*
X209669110Y-160147435D01*
X153822164Y-140635249D02*
X155107537Y-139349876D01*
X238037151Y-140635247D02*
X238487151Y-140635249D01*
X216941998Y-140635247D02*
X217107626Y-140635249D01*
X123333391Y-152146435D02*
X122883391Y-152146435D01*
X322417765Y-140633449D02*
X322867766Y-140633448D01*
X270999467Y-151687132D02*
X270833839Y-151687132D01*
D18*
X250212776Y-152144635D02*
X249904313Y-152144635D01*
X314282725Y-152148235D02*
X313189774Y-152148235D01*
X211714755Y-148450935D02*
X208021055Y-152144635D01*
D19*
X194967575Y-132632447D02*
X193899574Y-132632448D01*
X332364459Y-157365166D02*
X332364459Y-151195304D01*
X197297845Y-139349877D02*
X197297844Y-134962718D01*
D18*
X133610628Y-148425535D02*
X127362754Y-148425535D01*
X166672470Y-151588697D02*
X166079636Y-151588697D01*
X199974129Y-144074949D02*
X212978929Y-144074949D01*
D19*
X91325389Y-156644035D02*
X91045989Y-156923435D01*
D18*
X131789430Y-140631648D02*
X132395755Y-140631648D01*
X144428544Y-152144635D02*
X141510028Y-152144635D01*
D19*
X302773613Y-139349877D02*
X302773613Y-134982306D01*
X300423756Y-132632447D02*
X300423754Y-132632449D01*
X292094621Y-152144635D02*
X291928993Y-152144635D01*
X289795228Y-156959935D02*
X289795228Y-152144635D01*
D18*
X225863428Y-152144635D02*
X222800728Y-152144635D01*
D19*
X187496528Y-160147435D02*
X183674028Y-156324935D01*
D18*
X154540228Y-148425535D02*
X148702702Y-148425535D01*
D19*
X173876338Y-132632447D02*
X172808339Y-132632448D01*
D18*
X233832329Y-144100349D02*
X237297429Y-140635249D01*
X241952251Y-144100349D02*
X255396929Y-144100349D01*
D19*
X258966677Y-140845021D02*
X259132305Y-140845021D01*
X165973698Y-152144635D02*
X165523698Y-152144635D01*
X166418637Y-160126144D02*
X162871428Y-156578935D01*
X294034055Y-160147435D02*
X292966055Y-160147435D01*
X239488151Y-134970552D02*
X237150047Y-132632448D01*
D18*
X317533725Y-148897235D02*
X314282725Y-152148235D01*
D19*
X103144928Y-160147435D02*
X103144928Y-158733426D01*
X343512920Y-140635248D02*
X343678548Y-140635247D01*
X279332520Y-132632448D02*
X278264520Y-132632448D01*
X155107536Y-134954883D02*
X152785102Y-132632449D01*
X132727012Y-140631649D02*
X134012383Y-139346277D01*
X315125292Y-160147435D02*
X314013928Y-160147435D01*
X109534629Y-132630648D02*
X110602630Y-132630648D01*
D18*
X229116208Y-152144635D02*
X228809159Y-152144635D01*
X144983602Y-152144635D02*
X144428544Y-152144635D01*
D19*
X205365628Y-156909135D02*
X205365628Y-152144635D01*
D18*
X356611528Y-147246035D02*
X358148228Y-148782735D01*
D19*
X280393087Y-140635248D02*
X281678459Y-139349877D01*
D18*
X196534428Y-140635248D02*
X199974129Y-144074949D01*
X207714006Y-152144635D02*
X205365628Y-152144635D01*
X301488240Y-140635247D02*
X302173027Y-140635247D01*
D19*
X249904313Y-152144635D02*
X249648528Y-152144635D01*
D18*
X280677459Y-140635247D02*
X284142561Y-144100349D01*
X232809908Y-148450935D02*
X229116208Y-152144635D01*
D19*
X322583394Y-140633449D02*
X323868767Y-139348077D01*
X292544621Y-152144635D02*
X292094621Y-152144635D01*
D18*
X263211825Y-151687132D02*
X259975628Y-148450935D01*
D19*
X342606230Y-132632448D02*
X341538229Y-132632449D01*
D18*
X127362754Y-148425535D02*
X123641854Y-152146435D01*
D19*
X102403865Y-152144635D02*
X102238237Y-152144635D01*
X250069941Y-152144635D02*
X249904313Y-152144635D01*
X165523698Y-152144635D02*
X165073698Y-152144635D01*
X207714006Y-152144635D02*
X207548378Y-152144635D01*
D18*
X295684328Y-149343635D02*
X309935174Y-149343635D01*
X253906476Y-148450935D02*
X250212776Y-152144635D01*
X202125128Y-152144635D02*
X198355228Y-148374735D01*
X292883328Y-152144635D02*
X295684328Y-149343635D01*
D19*
X225914228Y-156680535D02*
X225914228Y-152195435D01*
D18*
X247148628Y-152144635D02*
X242815928Y-152144635D01*
X208164006Y-152144635D02*
X207714006Y-152144635D01*
D19*
X176202690Y-139807380D02*
X176202690Y-134958801D01*
X313189774Y-152148235D02*
X313024146Y-152148235D01*
D18*
X237297429Y-140635249D02*
X237871524Y-140635249D01*
D19*
X271874819Y-160147435D02*
X272942819Y-160147435D01*
D18*
X190628979Y-148374735D02*
X187068852Y-151934862D01*
D19*
X197297844Y-134962718D02*
X194967575Y-132632447D01*
X229381128Y-160147435D02*
X225914228Y-156680535D01*
D18*
X162871428Y-152424035D02*
X163150828Y-152144635D01*
X249314928Y-152144635D02*
X249904313Y-152144635D01*
D19*
X238202779Y-140635247D02*
X239488151Y-139349876D01*
D18*
X137109129Y-144227349D02*
X149174129Y-144227349D01*
X292094621Y-152144635D02*
X289795228Y-152144635D01*
X174917319Y-141092751D02*
X175782931Y-141092751D01*
X292544621Y-152144635D02*
X292883328Y-152144635D01*
D19*
X216941998Y-140635247D02*
X217391998Y-140635249D01*
X153656536Y-140635247D02*
X154106537Y-140635249D01*
D18*
X279283629Y-140635249D02*
X279777459Y-140635249D01*
X166079636Y-151588697D02*
X165523698Y-152144635D01*
D19*
X120234263Y-149212935D02*
X105335565Y-149212935D01*
D18*
X212978929Y-144074949D02*
X216418630Y-140635248D01*
X111916229Y-140631647D02*
X112577101Y-140631647D01*
D19*
X186618852Y-151934862D02*
X186168852Y-151934862D01*
X218392998Y-139349876D02*
X218392998Y-134966636D01*
X332364459Y-151195304D02*
X332365044Y-151194719D01*
D18*
X340885728Y-152275235D02*
X350134528Y-152275235D01*
D19*
X165523698Y-152144635D02*
X165358070Y-152144635D01*
D18*
X132727012Y-140631649D02*
X133513429Y-140631649D01*
D19*
X208601110Y-160144617D02*
X205365628Y-156909135D01*
X250767928Y-160147435D02*
X247148628Y-156528135D01*
D18*
X259975628Y-148450935D02*
X253906476Y-148450935D01*
D19*
X335148528Y-160149235D02*
X332364459Y-157365166D01*
D18*
X205365628Y-152144635D02*
X202125128Y-152144635D01*
D19*
X311182028Y-157315535D02*
X311182028Y-150590489D01*
D18*
X336937628Y-150787735D02*
X335577128Y-152148235D01*
X123641854Y-152146435D02*
X123333391Y-152146435D01*
D19*
X174917319Y-141092751D02*
X176202690Y-139807380D01*
X183674028Y-156324935D02*
X183674028Y-151934862D01*
X102072609Y-152144635D02*
X100787237Y-153430007D01*
D18*
X270999467Y-151687132D02*
X268510028Y-151687132D01*
X321982831Y-140633447D02*
X322252138Y-140633447D01*
X176511228Y-148400135D02*
X169861032Y-148400135D01*
D19*
X302773613Y-134982306D02*
X300423756Y-132632447D01*
X108988127Y-134245149D02*
X107416229Y-134245149D01*
X247148628Y-156528135D02*
X247148628Y-152144635D01*
D18*
X333834928Y-152148235D02*
X333318559Y-152148235D01*
D19*
X134012384Y-134950966D02*
X131693865Y-132632448D01*
X111631857Y-140631647D02*
X111916229Y-140631647D01*
X300423754Y-132632449D02*
X299355757Y-132632449D01*
D18*
X128752529Y-143668549D02*
X131789430Y-140631648D01*
D19*
X110602629Y-132630647D02*
X108988127Y-134245149D01*
X228974787Y-152144635D02*
X228809159Y-152144635D01*
X344963920Y-139349876D02*
X352348056Y-139349876D01*
D18*
X229259159Y-152144635D02*
X228809159Y-152144635D01*
X152766230Y-140635248D02*
X153206537Y-140635248D01*
X137329728Y-152144635D02*
X133610628Y-148425535D01*
X195057230Y-140635248D02*
X195681215Y-140635248D01*
X322867766Y-140633448D02*
X326258467Y-144024149D01*
D19*
X218392998Y-134966636D02*
X216058811Y-132632448D01*
D18*
X297446527Y-144100349D02*
X300911629Y-140635247D01*
X123641854Y-152146435D02*
X123167763Y-152146435D01*
D19*
X112917230Y-134945249D02*
X112917229Y-139346277D01*
D18*
X133513429Y-140631649D02*
X137109129Y-144227349D01*
D19*
X334284928Y-152148235D02*
X334119300Y-152148235D01*
X228809159Y-152144635D02*
X228359159Y-152144635D01*
D18*
X333318559Y-152148235D02*
X332365044Y-151194719D01*
D19*
X238037151Y-140635247D02*
X238202779Y-140635247D01*
X217107626Y-140635249D02*
X218392998Y-139349876D01*
X216776371Y-140635248D02*
X216941998Y-140635247D01*
D18*
X259582305Y-140845022D02*
X262812232Y-144074949D01*
D19*
X260583305Y-139559648D02*
X260583306Y-134974469D01*
D18*
X292966055Y-160147435D02*
X292966055Y-160130762D01*
D19*
X323868766Y-134959021D02*
X321514993Y-132605247D01*
D18*
X353080928Y-147246035D02*
X356611528Y-147246035D01*
D19*
X100787237Y-156375735D02*
X100518937Y-156644035D01*
D18*
X305307929Y-143770149D02*
X318846129Y-143770149D01*
D19*
X313355402Y-152148235D02*
X313189774Y-152148235D01*
D18*
X219107028Y-148450935D02*
X211714755Y-148450935D01*
X275843929Y-144074949D02*
X279283629Y-140635249D01*
D19*
X230760346Y-160147435D02*
X229381128Y-160147435D01*
D18*
X175782931Y-141092751D02*
X178688929Y-143998749D01*
D19*
X249904313Y-152144635D02*
X249738685Y-152144635D01*
D18*
X271449467Y-151687132D02*
X270999467Y-151687132D01*
D19*
X352348056Y-139349876D02*
X355295129Y-142296949D01*
D18*
X191693729Y-143998749D02*
X195057230Y-140635248D01*
D19*
X141510028Y-156375735D02*
X141510028Y-152144635D01*
D18*
X216418630Y-140635248D02*
X216776371Y-140635248D01*
X163150828Y-152144635D02*
X158259328Y-152144635D01*
X332365044Y-151194719D02*
X330067560Y-148897235D01*
D19*
X155107537Y-139349876D02*
X155107536Y-134954883D01*
D18*
X342961430Y-140635248D02*
X343347291Y-140635248D01*
D19*
X131693865Y-132632448D02*
X130625865Y-132632449D01*
X300911629Y-140635247D02*
X301322614Y-140635249D01*
D18*
X154106537Y-140635249D02*
X157470037Y-143998749D01*
D19*
X344963920Y-134990138D02*
X342606230Y-132632448D01*
D18*
X174127326Y-141092752D02*
X174586063Y-141092752D01*
D19*
X102238237Y-152144635D02*
X102072609Y-152144635D01*
D18*
X165523698Y-152144635D02*
X163150828Y-152144635D01*
X358148228Y-148782735D02*
X354152925Y-152778038D01*
X255396929Y-144100349D02*
X258652257Y-140845021D01*
D19*
X251851583Y-160147435D02*
X250767928Y-160147435D01*
D18*
X268510028Y-151687132D02*
X263211825Y-151687132D01*
X196102630Y-140635248D02*
X196534428Y-140635248D01*
D19*
X120234263Y-155104734D02*
X120234263Y-149212935D01*
X174751689Y-141092750D02*
X174917319Y-141092751D01*
X237150047Y-132632448D02*
X236082048Y-132632449D01*
D18*
X217391998Y-140635249D02*
X220857098Y-144100349D01*
D19*
X123333391Y-152146435D02*
X123167763Y-152146435D01*
D18*
X238487151Y-140635249D02*
X241952251Y-144100349D01*
X115614003Y-143668549D02*
X128752529Y-143668549D01*
D19*
X103144928Y-158733426D02*
X100787237Y-156375735D01*
X153656536Y-140635247D02*
X153822164Y-140635249D01*
X196012472Y-140635248D02*
X197297845Y-139349877D01*
D18*
X302173027Y-140635247D02*
X305307929Y-143770149D01*
D19*
X322252138Y-140633447D02*
X322417765Y-140633449D01*
D18*
X148702702Y-148425535D02*
X144983602Y-152144635D01*
D19*
X323868767Y-139348077D02*
X323868766Y-134959021D01*
D18*
X183674028Y-151934862D02*
X180045955Y-151934862D01*
X198355228Y-148374735D02*
X190628979Y-148374735D01*
X157470037Y-143998749D02*
X171221329Y-143998749D01*
X208021055Y-152144635D02*
X207714006Y-152144635D01*
X284167128Y-152144635D02*
X280270228Y-148247735D01*
X335577128Y-152148235D02*
X334284928Y-152148235D01*
X158259328Y-152144635D02*
X154540228Y-148425535D01*
D19*
X132395755Y-140631648D02*
X132727012Y-140631649D01*
X186618852Y-151934862D02*
X186453224Y-151934862D01*
X188577873Y-160147435D02*
X187496528Y-160147435D01*
X214990810Y-132632449D02*
X216058811Y-132632448D01*
D18*
X187068852Y-151934862D02*
X186618852Y-151934862D01*
X112577101Y-140631647D02*
X115614003Y-143668549D01*
D19*
X100787237Y-156375735D02*
X100787237Y-153430007D01*
X186784480Y-151934862D02*
X186618852Y-151934862D01*
X271874819Y-160147435D02*
X268560319Y-156832935D01*
D18*
X326258467Y-144024149D02*
X339572529Y-144024149D01*
D19*
X280227459Y-140635247D02*
X280393087Y-140635248D01*
X174586063Y-141092752D02*
X174751689Y-141092750D01*
X153206537Y-140635248D02*
X153656536Y-140635247D01*
X271165095Y-151687132D02*
X270999467Y-151687132D01*
X281678459Y-139349877D02*
X281678459Y-134978387D01*
D18*
X178688929Y-143998749D02*
X191693729Y-143998749D01*
X354152925Y-152778038D02*
X353949667Y-152778038D01*
X271306516Y-151687132D02*
X270999467Y-151687132D01*
X280270228Y-148247735D02*
X274745913Y-148247735D01*
X313189774Y-152148235D02*
X312739774Y-152148235D01*
X239122228Y-148450935D02*
X232809908Y-148450935D01*
D19*
X301488240Y-140635247D02*
X302773613Y-139349877D01*
X258241284Y-132632448D02*
X257173285Y-132632448D01*
D18*
X312739774Y-152148235D02*
X309935174Y-149343635D01*
D19*
X123499019Y-152146435D02*
X123333391Y-152146435D01*
X280227459Y-140635247D02*
X280677459Y-140635247D01*
D18*
X262812232Y-144074949D02*
X275843929Y-144074949D01*
D19*
X314013928Y-160147435D02*
X311182028Y-157315535D01*
X237871524Y-140635249D02*
X238037151Y-140635247D01*
X195846844Y-140635248D02*
X196012472Y-140635248D01*
X144428544Y-152144635D02*
X144262916Y-152144635D01*
D18*
X222800728Y-152144635D02*
X219107028Y-148450935D01*
X180045955Y-151934862D02*
X176511228Y-148400135D01*
D19*
X103144928Y-160147435D02*
X104212928Y-160147435D01*
X336216528Y-160149235D02*
X335148528Y-160149235D01*
X268510028Y-151687132D02*
X268510028Y-156782644D01*
D18*
X186453224Y-151934862D02*
X183674028Y-151934862D01*
D19*
X259132305Y-140845021D02*
X259582305Y-140845022D01*
D18*
X289795228Y-152144635D02*
X284167128Y-152144635D01*
D19*
X343678548Y-140635247D02*
X344963920Y-139349876D01*
X100518937Y-156644035D02*
X91325389Y-156644035D01*
X292094621Y-152144635D02*
X291644621Y-152144635D01*
X195846844Y-140635248D02*
X196102630Y-140635248D01*
D18*
X169861032Y-148400135D02*
X166672470Y-151588697D01*
X318846129Y-143770149D02*
X321982831Y-140633447D01*
D19*
X145281728Y-160147435D02*
X141510028Y-156375735D01*
X195681215Y-140635248D02*
X195846844Y-140635248D01*
D18*
X330067560Y-148897235D02*
X317533725Y-148897235D01*
D19*
X321514993Y-132605247D02*
X320446993Y-132605248D01*
X134012383Y-139346277D02*
X134012384Y-134950966D01*
X343347291Y-140635248D02*
X343512920Y-140635248D01*
X162871428Y-156578935D02*
X162871428Y-152424035D01*
X292966055Y-160130762D02*
X289795228Y-156959935D01*
D18*
X350134528Y-152275235D02*
X353080928Y-149328835D01*
D19*
X268510028Y-156782644D02*
X268560319Y-156832935D01*
D18*
X353080928Y-149328835D02*
X353080928Y-147246035D01*
D19*
X145281728Y-160147435D02*
X146358401Y-160147435D01*
D18*
X258652257Y-140845021D02*
X258966677Y-140845021D01*
D19*
X260583306Y-134974469D02*
X258241284Y-132632448D01*
D18*
X274745913Y-148247735D02*
X271306516Y-151687132D01*
D19*
X152785102Y-132632449D02*
X151717102Y-132632448D01*
D18*
X242815928Y-152144635D02*
X239122228Y-148450935D01*
X339572529Y-144024149D02*
X342961430Y-140635248D01*
X220857098Y-144100349D02*
X233832329Y-144100349D01*
D19*
X322417765Y-140633449D02*
X322583394Y-140633449D01*
X281678459Y-134978387D02*
X279332520Y-132632448D01*
X125304164Y-160174635D02*
X120234263Y-155104734D01*
X207714006Y-152144635D02*
X207264006Y-152144635D01*
D18*
X141510028Y-152144635D02*
X137329728Y-152144635D01*
X249738685Y-152144635D02*
X247148628Y-152144635D01*
D19*
X176202690Y-134958801D02*
X173876338Y-132632447D01*
X166418637Y-160147435D02*
X167486637Y-160147435D01*
D18*
X149174129Y-144227349D02*
X152766230Y-140635248D01*
D19*
X301322614Y-140635249D02*
X301488240Y-140635247D01*
X228809159Y-152144635D02*
X228643531Y-152144635D01*
X259297933Y-140845020D02*
X260583305Y-139559648D01*
X110602630Y-132630648D02*
X112917230Y-134945249D01*
D18*
X225914228Y-152195435D02*
X225863428Y-152144635D01*
X284142561Y-144100349D02*
X297446527Y-144100349D01*
D19*
X207879634Y-152144635D02*
X207714006Y-152144635D01*
D18*
X228643531Y-152144635D02*
X225863428Y-152144635D01*
D19*
X259132305Y-140845021D02*
X259297933Y-140845020D01*
X144839528Y-152144635D02*
X144428544Y-152144635D01*
X344963920Y-139349876D02*
X344963920Y-134990138D01*
X279777459Y-140635249D02*
X280227459Y-140635247D01*
X334284928Y-152148235D02*
X333834928Y-152148235D01*
X105335565Y-149212935D02*
X102403865Y-152144635D01*
%TO.N,Net-(U10-VCC)*%
X149228544Y-159246292D02*
X148327401Y-160147435D01*
X148327401Y-160147435D02*
X147259401Y-160147435D01*
X149228544Y-153844635D02*
X149228544Y-159246292D01*
%TO.N,Net-(U13-VCC)*%
X106666229Y-138931648D02*
X106666229Y-133567049D01*
X106666229Y-133567049D02*
X107602629Y-132630647D01*
X107602629Y-132630647D02*
X108670629Y-132630648D01*
%TO.N,Net-(U14-VCC)*%
X128693864Y-132632447D02*
X128693866Y-132632449D01*
X128693866Y-132632449D02*
X129761865Y-132632449D01*
X127761383Y-138931649D02*
X127761383Y-133564931D01*
X127761383Y-133564931D02*
X128693864Y-132632447D01*
%TO.N,Net-(U15-VCC)*%
X148856536Y-133561013D02*
X149785102Y-132632447D01*
X149785102Y-132632447D02*
X150853102Y-132632448D01*
X148856537Y-138935248D02*
X148856536Y-133561013D01*
%TO.N,Net-(U16-VCC)*%
X169951690Y-139392751D02*
X169951690Y-133557095D01*
X169951690Y-133557095D02*
X170876338Y-132632448D01*
X170876338Y-132632448D02*
X171944339Y-132632448D01*
%TO.N,Net-(U17-VCC)*%
X191046844Y-133553179D02*
X191967574Y-132632448D01*
X191967574Y-132632448D02*
X193035574Y-132632448D01*
X191046845Y-138935248D02*
X191046844Y-133553179D01*
%TO.N,Net-(U18-VCC)*%
X212141999Y-133549261D02*
X213058811Y-132632448D01*
X213058811Y-132632448D02*
X214126810Y-132632449D01*
X212141998Y-138935248D02*
X212141999Y-133549261D01*
%TO.N,Net-(U19-VCC)*%
X234150047Y-132632449D02*
X235218048Y-132632449D01*
X233237151Y-133545344D02*
X234150047Y-132632449D01*
X233237151Y-138935248D02*
X233237151Y-133545344D01*
%TO.N,Net-(U20-VCC)*%
X255241285Y-132632448D02*
X256309285Y-132632448D01*
X254332305Y-139145021D02*
X254332305Y-133541426D01*
X254332305Y-133541426D02*
X255241285Y-132632448D01*
%TO.N,Net-(U21-VCC)*%
X275427459Y-138935249D02*
X275427459Y-133537509D01*
X276332520Y-132632448D02*
X277400520Y-132632448D01*
X275427459Y-133537509D02*
X276332520Y-132632448D01*
%TO.N,Net-(U22-VCC)*%
X296522614Y-133533591D02*
X297423756Y-132632449D01*
X296522613Y-138935248D02*
X296522614Y-133533591D01*
X297423756Y-132632449D02*
X298491757Y-132632449D01*
%TO.N,Net-(U23-VCC)*%
X317617766Y-133502475D02*
X318514993Y-132605248D01*
X317617767Y-138933448D02*
X317617766Y-133502475D01*
X318514993Y-132605248D02*
X319582993Y-132605248D01*
%TO.N,Net-(U24-VCC)*%
X338712920Y-138935249D02*
X338712919Y-133525757D01*
X339606228Y-132632447D02*
X339606230Y-132632449D01*
X338712919Y-133525757D02*
X339606228Y-132632447D01*
X339606230Y-132632449D02*
X340674229Y-132632449D01*
D20*
%TO.N,Net-(J3-Pin_4)*%
X338712919Y-142335248D02*
X339661628Y-142335248D01*
X345659402Y-145176276D02*
X350596129Y-140239549D01*
X343315456Y-145176276D02*
X345659402Y-145176276D01*
X338712920Y-142335248D02*
X339098883Y-142335249D01*
X339661628Y-142335248D02*
X339860488Y-142534108D01*
X341591898Y-143452718D02*
X343315456Y-145176276D01*
%TO.N,Net-(J3-Pin_3)*%
X347581190Y-142335248D02*
X349641209Y-140275229D01*
X321066766Y-135399510D02*
X321270230Y-135196048D01*
X343512920Y-142335248D02*
X347581190Y-142335248D01*
X368198329Y-141001549D02*
X368078128Y-141001549D01*
X342162691Y-142880511D02*
X342967658Y-142880510D01*
X321066766Y-139306653D02*
X321066766Y-135399510D01*
X342967658Y-142880510D02*
X343512920Y-142335248D01*
X317617767Y-142333449D02*
X318039973Y-142333448D01*
X318039973Y-142333448D02*
X321066766Y-139306653D01*
X368078128Y-141001549D02*
X364826929Y-144252748D01*
%TO.N,Net-(J4-Pin_4)*%
X108017229Y-139304855D02*
X108017229Y-135646152D01*
X111466229Y-142331648D02*
X112038230Y-142331649D01*
D21*
X131860382Y-137736048D02*
X131860383Y-138230649D01*
D20*
X108017229Y-135646152D02*
X107416229Y-135045152D01*
X132537176Y-138931647D02*
X132561383Y-138931647D01*
X111044023Y-142331649D02*
X108017229Y-139304855D01*
X111466229Y-142331649D02*
X111044023Y-142331649D01*
D21*
X111466229Y-142331648D02*
X112555567Y-142331647D01*
X131860383Y-138230649D02*
X132561383Y-138931647D01*
X112555567Y-142331647D02*
X113116697Y-142892779D01*
D20*
%TO.N,Net-(J4-Pin_3)*%
X111466230Y-138931649D02*
X111169329Y-138931649D01*
X111169329Y-138931649D02*
X108667229Y-136429549D01*
X111466230Y-138931649D02*
X111016229Y-138931648D01*
%TO.N,Net-(U13-DO)*%
X133045784Y-142816048D02*
X132915644Y-142685908D01*
X132802230Y-143832049D02*
X132802230Y-142799323D01*
X153208745Y-138935249D02*
X150256352Y-141887641D01*
X153656536Y-138935248D02*
X153208745Y-138935249D01*
X106666229Y-142331649D02*
X108918229Y-144583648D01*
X133818230Y-142816047D02*
X133045784Y-142816048D01*
X132802230Y-142799323D02*
X132915644Y-142685908D01*
X108918229Y-144583648D02*
X130766753Y-144583649D01*
%TO.N,Net-(U14-DO)*%
X174043818Y-140100624D02*
X174751689Y-139392750D01*
X162432929Y-145040149D02*
X156361437Y-145040149D01*
X156361437Y-145040149D02*
X153656536Y-142335248D01*
X131210383Y-139304854D02*
X131210383Y-135771894D01*
X131210383Y-135771894D02*
X131786230Y-135196047D01*
X128183589Y-142331649D02*
X131210383Y-139304854D01*
X127761383Y-142331649D02*
X128183589Y-142331649D01*
X153175736Y-142816048D02*
X153656536Y-142335248D01*
X173957913Y-140100623D02*
X174043818Y-140100624D01*
X152106229Y-142816049D02*
X153175736Y-142816048D01*
%TO.N,Net-(U15-DO)*%
X195053068Y-139643121D02*
X195138972Y-139643121D01*
X148856537Y-142335248D02*
X148831429Y-142335247D01*
X148880743Y-142335249D02*
X152305537Y-138910455D01*
X182639529Y-144836949D02*
X176795889Y-144836949D01*
X174220393Y-143324048D02*
X173442229Y-143324048D01*
X174751690Y-142792750D02*
X174220393Y-143324048D01*
X182651329Y-144848749D02*
X182639529Y-144836949D01*
X148831429Y-142335247D02*
X148550229Y-142054048D01*
X195138972Y-139643121D02*
X195846844Y-138935248D01*
X152305537Y-138910455D02*
X152305536Y-135504740D01*
X152305536Y-135504740D02*
X152614229Y-135196048D01*
X148856537Y-142335248D02*
X148880743Y-142335249D01*
X176795889Y-144836949D02*
X174751690Y-142792750D01*
%TO.N,Net-(U16-DO)*%
X216148222Y-139643120D02*
X216234126Y-139643120D01*
X195347620Y-142834473D02*
X195846844Y-142335248D01*
X173400691Y-139765958D02*
X173400689Y-135745587D01*
X169951690Y-142792752D02*
X170373896Y-142792751D01*
X198500945Y-144989349D02*
X195846844Y-142335248D01*
X194542652Y-142834471D02*
X195347620Y-142834473D01*
X170373896Y-142792751D02*
X173400691Y-139765958D01*
X216234126Y-139643120D02*
X216941998Y-138935248D01*
X202971329Y-144989349D02*
X198500945Y-144989349D01*
X173400689Y-135745587D02*
X173950229Y-135196048D01*
%TO.N,Net-(U17-DO)*%
X237284465Y-139687933D02*
X238037151Y-138935247D01*
X215631231Y-142841049D02*
X216436198Y-142841050D01*
X216436198Y-142841050D02*
X216941999Y-142335248D01*
X236827910Y-139687935D02*
X237284465Y-139687933D01*
X194495844Y-139308454D02*
X194495843Y-135478433D01*
X191046845Y-142335248D02*
X191469050Y-142335248D01*
X223226229Y-144989349D02*
X219596100Y-144989349D01*
X194495843Y-135478433D02*
X194778229Y-135196048D01*
X219596100Y-144989349D02*
X216941999Y-142335248D01*
X191469050Y-142335248D02*
X194495844Y-139308454D01*
%TO.N,Net-(U18-DO)*%
X243598066Y-145040149D02*
X240742053Y-145040149D01*
X215590999Y-135719278D02*
X216114230Y-135196048D01*
X212141998Y-142335248D02*
X212564205Y-142335249D01*
X212564205Y-142335249D02*
X215590998Y-139308454D01*
X237524773Y-142847625D02*
X236719807Y-142847626D01*
X240742053Y-145040149D02*
X238037151Y-142335247D01*
X257653275Y-140565497D02*
X259073751Y-139145022D01*
X215590998Y-139308454D02*
X215590999Y-135719278D01*
X259073751Y-139145022D02*
X259132305Y-139145021D01*
X238037151Y-142335247D02*
X237524773Y-142847625D01*
%TO.N,Net-(U19-DO)*%
X259132305Y-142545020D02*
X261500434Y-144913149D01*
X233237151Y-142335249D02*
X233261357Y-142335249D01*
X265875329Y-144913149D02*
X265887129Y-144924949D01*
X236686151Y-138910455D02*
X236686151Y-135452126D01*
X258591236Y-143086089D02*
X259132305Y-142545020D01*
X257786270Y-143086090D02*
X258591236Y-143086089D01*
X236686151Y-135452126D02*
X236942230Y-135196047D01*
X233261357Y-142335249D02*
X236686151Y-138910455D01*
X261500434Y-144913149D02*
X265875329Y-144913149D01*
X280227460Y-138935248D02*
X280227459Y-138935247D01*
%TO.N,Net-(U20-DO)*%
X282906961Y-145014749D02*
X280227459Y-142335247D01*
X257781306Y-135692973D02*
X258278229Y-135196049D01*
X289382129Y-145014749D02*
X282906961Y-145014749D01*
X254332305Y-142545021D02*
X254754512Y-142545022D01*
X299852544Y-140346763D02*
X301264058Y-138935248D01*
X254754512Y-142545022D02*
X257781305Y-139518228D01*
X257781305Y-139518228D02*
X257781306Y-135692973D01*
X279717114Y-142845593D02*
X278627776Y-142845593D01*
X301264058Y-138935248D02*
X301322614Y-138935249D01*
X280227459Y-142335247D02*
X279717114Y-142845593D01*
%TO.N,Net-(U21-DO)*%
X300841814Y-142816048D02*
X299934230Y-142816048D01*
X278876459Y-139308453D02*
X278876459Y-135425819D01*
X275427459Y-142335249D02*
X275849665Y-142335248D01*
X301322613Y-142335247D02*
X300841814Y-142816048D01*
X278876459Y-135425819D02*
X279106229Y-135196048D01*
X322359211Y-138933448D02*
X322417766Y-138933447D01*
X320940220Y-140352440D02*
X322359211Y-138933448D01*
X309774609Y-144836949D02*
X309600529Y-144836949D01*
X303875115Y-144887749D02*
X301322613Y-142335247D01*
X309549729Y-144887749D02*
X303875115Y-144887749D01*
X309600529Y-144836949D02*
X309549729Y-144887749D01*
X275849665Y-142335248D02*
X278876459Y-139308453D01*
%TO.N,Net-(U22-DO)*%
X296944819Y-142335249D02*
X299971614Y-139308455D01*
X329971329Y-145014749D02*
X325099067Y-145014749D01*
X342098229Y-139717249D02*
X342730920Y-139717247D01*
X342730920Y-139717247D02*
X343512920Y-138935248D01*
X299971613Y-135666664D02*
X300442230Y-135196048D01*
X299971614Y-139308455D02*
X299971613Y-135666664D01*
X321903582Y-142847633D02*
X321098614Y-142847633D01*
X296522613Y-142335249D02*
X296944819Y-142335249D01*
X322417766Y-142333448D02*
X321903582Y-142847633D01*
X343512920Y-138935248D02*
X343626620Y-138935248D01*
X325099067Y-145014749D02*
X322417766Y-142333448D01*
%TD*%
M02*
