%TF.GenerationSoftware,KiCad,Pcbnew,9.0.0*%
%TF.CreationDate,2025-08-14T13:48:37-07:00*%
%TF.ProjectId,pieceC,70696563-6543-42e6-9b69-6361645f7063,rev?*%
%TF.SameCoordinates,Original*%
%TF.FileFunction,Legend,Bot*%
%TF.FilePolarity,Positive*%
%FSLAX46Y46*%
G04 Gerber Fmt 4.6, Leading zero omitted, Abs format (unit mm)*
G04 Created by KiCad (PCBNEW 9.0.0) date 2025-08-14 13:48:37*
%MOMM*%
%LPD*%
G01*
G04 APERTURE LIST*
%ADD10C,0.098425*%
%ADD11C,0.050000*%
%ADD12C,0.150000*%
%ADD13C,0.127000*%
%ADD14C,0.200000*%
%ADD15C,0.120000*%
%ADD16C,0.300000*%
%ADD17C,0.152400*%
G04 APERTURE END LIST*
D10*
X74366292Y-92500953D02*
X74378329Y-92524576D01*
X74378329Y-92524576D02*
X74426025Y-92559787D01*
X74426025Y-92559787D02*
X74461686Y-92571373D01*
X74461686Y-92571373D02*
X74520969Y-92570923D01*
X74520969Y-92570923D02*
X74568216Y-92546850D01*
X74568216Y-92546850D02*
X74597633Y-92516983D01*
X74597633Y-92516983D02*
X74638636Y-92451456D01*
X74638636Y-92451456D02*
X74656016Y-92397966D01*
X74656016Y-92397966D02*
X74661360Y-92320852D01*
X74661360Y-92320852D02*
X74655116Y-92279398D01*
X74655116Y-92279398D02*
X74631043Y-92232151D01*
X74631043Y-92232151D02*
X74583346Y-92196941D01*
X74583346Y-92196941D02*
X74547686Y-92185355D01*
X74547686Y-92185355D02*
X74488402Y-92185805D01*
X74488402Y-92185805D02*
X74464779Y-92197841D01*
X74351555Y-92121628D02*
X74119764Y-92046314D01*
X74119764Y-92046314D02*
X74198227Y-92229508D01*
X74198227Y-92229508D02*
X74144737Y-92212128D01*
X74144737Y-92212128D02*
X74103284Y-92218372D01*
X74103284Y-92218372D02*
X74079660Y-92230409D01*
X74079660Y-92230409D02*
X74050243Y-92260275D01*
X74050243Y-92260275D02*
X74021277Y-92349426D01*
X74021277Y-92349426D02*
X74027520Y-92390879D01*
X74027520Y-92390879D02*
X74039557Y-92414503D01*
X74039557Y-92414503D02*
X74069424Y-92443920D01*
X74069424Y-92443920D02*
X74176404Y-92478680D01*
X74176404Y-92478680D02*
X74217858Y-92472436D01*
X74217858Y-92472436D02*
X74241481Y-92460400D01*
X61869128Y-88624774D02*
X61881165Y-88648397D01*
X61881165Y-88648397D02*
X61928861Y-88683608D01*
X61928861Y-88683608D02*
X61964522Y-88695194D01*
X61964522Y-88695194D02*
X62023805Y-88694744D01*
X62023805Y-88694744D02*
X62071052Y-88670671D01*
X62071052Y-88670671D02*
X62100469Y-88640804D01*
X62100469Y-88640804D02*
X62141472Y-88575277D01*
X62141472Y-88575277D02*
X62158852Y-88521787D01*
X62158852Y-88521787D02*
X62164196Y-88444673D01*
X62164196Y-88444673D02*
X62157952Y-88403219D01*
X62157952Y-88403219D02*
X62133879Y-88355972D01*
X62133879Y-88355972D02*
X62086182Y-88320762D01*
X62086182Y-88320762D02*
X62050522Y-88309176D01*
X62050522Y-88309176D02*
X61991238Y-88309626D01*
X61991238Y-88309626D02*
X61967615Y-88321662D01*
X61500939Y-88544567D02*
X61714900Y-88614087D01*
X61607920Y-88579327D02*
X61729580Y-88204895D01*
X61729580Y-88204895D02*
X61747860Y-88269972D01*
X61747860Y-88269972D02*
X61771934Y-88317219D01*
X61771934Y-88317219D02*
X61801801Y-88346636D01*
D11*
X78806728Y-96214745D02*
X78899562Y-96144769D01*
X78915420Y-96250061D02*
X78977224Y-96059850D01*
X78977224Y-96059850D02*
X78904762Y-96036305D01*
X78904762Y-96036305D02*
X78883704Y-96039477D01*
X78883704Y-96039477D02*
X78871703Y-96045592D01*
X78871703Y-96045592D02*
X78856760Y-96060764D01*
X78856760Y-96060764D02*
X78847931Y-96087937D01*
X78847931Y-96087937D02*
X78851102Y-96108996D01*
X78851102Y-96108996D02*
X78857217Y-96120996D01*
X78857217Y-96120996D02*
X78872389Y-96135940D01*
X78872389Y-96135940D02*
X78944851Y-96159484D01*
X78625575Y-96155884D02*
X78734267Y-96191201D01*
X78679921Y-96173542D02*
X78741724Y-95983331D01*
X78741724Y-95983331D02*
X78751010Y-96016390D01*
X78751010Y-96016390D02*
X78763240Y-96040392D01*
X78763240Y-96040392D02*
X78778412Y-96055335D01*
D12*
X80547484Y-101951944D02*
X80297328Y-102721847D01*
X80297328Y-102721847D02*
X80222609Y-102797709D01*
X80222609Y-102797709D02*
X80162605Y-102828282D01*
X80162605Y-102828282D02*
X80057314Y-102844140D01*
X80057314Y-102844140D02*
X79876160Y-102785280D01*
X79876160Y-102785280D02*
X79800298Y-102710561D01*
X79800298Y-102710561D02*
X79769725Y-102650558D01*
X79769725Y-102650558D02*
X79753867Y-102545266D01*
X79753867Y-102545266D02*
X80004023Y-101775363D01*
X79566998Y-101733504D02*
X79536424Y-101673500D01*
X79536424Y-101673500D02*
X79460562Y-101598782D01*
X79460562Y-101598782D02*
X79234120Y-101525206D01*
X79234120Y-101525206D02*
X79128829Y-101541065D01*
X79128829Y-101541065D02*
X79068825Y-101571638D01*
X79068825Y-101571638D02*
X78994106Y-101647500D01*
X78994106Y-101647500D02*
X78964676Y-101738076D01*
X78964676Y-101738076D02*
X78965819Y-101888657D01*
X78965819Y-101888657D02*
X79332699Y-102608699D01*
X79332699Y-102608699D02*
X78743950Y-102417403D01*
X58518765Y-90721618D02*
X58815834Y-90497696D01*
X58866580Y-90834630D02*
X59064351Y-90225954D01*
X59064351Y-90225954D02*
X58832475Y-90150613D01*
X58832475Y-90150613D02*
X58765088Y-90160762D01*
X58765088Y-90160762D02*
X58726686Y-90180329D01*
X58726686Y-90180329D02*
X58678866Y-90228880D01*
X58678866Y-90228880D02*
X58650613Y-90315834D01*
X58650613Y-90315834D02*
X58660762Y-90383221D01*
X58660762Y-90383221D02*
X58680329Y-90421623D01*
X58680329Y-90421623D02*
X58728880Y-90469443D01*
X58728880Y-90469443D02*
X58960757Y-90544784D01*
X58165829Y-89934007D02*
X58455675Y-90028183D01*
X58455675Y-90028183D02*
X58390483Y-90327447D01*
X58390483Y-90327447D02*
X58370916Y-90289044D01*
X58370916Y-90289044D02*
X58322365Y-90241224D01*
X58322365Y-90241224D02*
X58177442Y-90194136D01*
X58177442Y-90194136D02*
X58110055Y-90204285D01*
X58110055Y-90204285D02*
X58071653Y-90223852D01*
X58071653Y-90223852D02*
X58023833Y-90272404D01*
X58023833Y-90272404D02*
X57976744Y-90417327D01*
X57976744Y-90417327D02*
X57986894Y-90484714D01*
X57986894Y-90484714D02*
X58006461Y-90523116D01*
X58006461Y-90523116D02*
X58055012Y-90570936D01*
X58055012Y-90570936D02*
X58199935Y-90618024D01*
X58199935Y-90618024D02*
X58267322Y-90607875D01*
X58267322Y-90607875D02*
X58305724Y-90588308D01*
X68990484Y-94966943D02*
X68740328Y-95736846D01*
X68740328Y-95736846D02*
X68665609Y-95812708D01*
X68665609Y-95812708D02*
X68605605Y-95843281D01*
X68605605Y-95843281D02*
X68500314Y-95859139D01*
X68500314Y-95859139D02*
X68319160Y-95800279D01*
X68319160Y-95800279D02*
X68243298Y-95725560D01*
X68243298Y-95725560D02*
X68212725Y-95665557D01*
X68212725Y-95665557D02*
X68196867Y-95560265D01*
X68196867Y-95560265D02*
X68447023Y-94790362D01*
X67186950Y-95432402D02*
X67730411Y-95608983D01*
X67458680Y-95520692D02*
X67767697Y-94569636D01*
X67767697Y-94569636D02*
X67814129Y-94734931D01*
X67814129Y-94734931D02*
X67875275Y-94854938D01*
X67875275Y-94854938D02*
X67951137Y-94929657D01*
X57679743Y-91029515D02*
X58449646Y-91279671D01*
X58449646Y-91279671D02*
X58525508Y-91354390D01*
X58525508Y-91354390D02*
X58556081Y-91414394D01*
X58556081Y-91414394D02*
X58571939Y-91519685D01*
X58571939Y-91519685D02*
X58513079Y-91700839D01*
X58513079Y-91700839D02*
X58438360Y-91776701D01*
X58438360Y-91776701D02*
X58378357Y-91807274D01*
X58378357Y-91807274D02*
X58273065Y-91823132D01*
X58273065Y-91823132D02*
X57503162Y-91572976D01*
X57540594Y-92536461D02*
X58174632Y-92742472D01*
X57251862Y-92192298D02*
X58004764Y-92186583D01*
X58004764Y-92186583D02*
X57813468Y-92775332D01*
X44088447Y-78704872D02*
X43911866Y-78161411D01*
X43049100Y-78742159D02*
X44000157Y-78433142D01*
X42857804Y-78153409D02*
X43808861Y-77844392D01*
X43808861Y-77844392D02*
X43691140Y-77482085D01*
X43691140Y-77482085D02*
X43616421Y-77406223D01*
X43616421Y-77406223D02*
X43556418Y-77375650D01*
X43556418Y-77375650D02*
X43451126Y-77359792D01*
X43451126Y-77359792D02*
X43315261Y-77403937D01*
X43315261Y-77403937D02*
X43239399Y-77478656D01*
X43239399Y-77478656D02*
X43208826Y-77538659D01*
X43208826Y-77538659D02*
X43192967Y-77643951D01*
X43192967Y-77643951D02*
X43310688Y-78006258D01*
X42386921Y-76704180D02*
X42563502Y-77247641D01*
X42475212Y-76975911D02*
X43426268Y-76666894D01*
X43426268Y-76666894D02*
X43319833Y-76801616D01*
X43319833Y-76801616D02*
X43258686Y-76921623D01*
X43258686Y-76921623D02*
X43242828Y-77026915D01*
X55423955Y-112528967D02*
X55202824Y-113209540D01*
X55202824Y-113209540D02*
X55203969Y-113360396D01*
X55203969Y-113360396D02*
X55265228Y-113480623D01*
X55265228Y-113480623D02*
X55386600Y-113570221D01*
X55386600Y-113570221D02*
X55477343Y-113599705D01*
X54986127Y-112487031D02*
X54955498Y-112426917D01*
X54955498Y-112426917D02*
X54879497Y-112352062D01*
X54879497Y-112352062D02*
X54652639Y-112278351D01*
X54652639Y-112278351D02*
X54547154Y-112294239D01*
X54547154Y-112294239D02*
X54487041Y-112324868D01*
X54487041Y-112324868D02*
X54412185Y-112400869D01*
X54412185Y-112400869D02*
X54382701Y-112491612D01*
X54382701Y-112491612D02*
X54383846Y-112642469D01*
X54383846Y-112642469D02*
X54751399Y-113363832D01*
X54751399Y-113363832D02*
X54161569Y-113172185D01*
D10*
X68522209Y-89698732D02*
X68704953Y-89560985D01*
X68736170Y-89768252D02*
X68857831Y-89393820D01*
X68857831Y-89393820D02*
X68715190Y-89347474D01*
X68715190Y-89347474D02*
X68673736Y-89353717D01*
X68673736Y-89353717D02*
X68650113Y-89365754D01*
X68650113Y-89365754D02*
X68620696Y-89395621D01*
X68620696Y-89395621D02*
X68603316Y-89449111D01*
X68603316Y-89449111D02*
X68609559Y-89490564D01*
X68609559Y-89490564D02*
X68621596Y-89514188D01*
X68621596Y-89514188D02*
X68651463Y-89543605D01*
X68651463Y-89543605D02*
X68794104Y-89589951D01*
X68282374Y-89344831D02*
X68201267Y-89594452D01*
X68417872Y-89231157D02*
X68420122Y-89527575D01*
X68420122Y-89527575D02*
X68188331Y-89452261D01*
X79366230Y-94278967D02*
X79548974Y-94141220D01*
X79580191Y-94348487D02*
X79701852Y-93974055D01*
X79701852Y-93974055D02*
X79559211Y-93927709D01*
X79559211Y-93927709D02*
X79517757Y-93933952D01*
X79517757Y-93933952D02*
X79494134Y-93945989D01*
X79494134Y-93945989D02*
X79464717Y-93975856D01*
X79464717Y-93975856D02*
X79447337Y-94029346D01*
X79447337Y-94029346D02*
X79453580Y-94070799D01*
X79453580Y-94070799D02*
X79465617Y-94094423D01*
X79465617Y-94094423D02*
X79495484Y-94123840D01*
X79495484Y-94123840D02*
X79638125Y-94170186D01*
X79333663Y-93893849D02*
X79321626Y-93870225D01*
X79321626Y-93870225D02*
X79291759Y-93840808D01*
X79291759Y-93840808D02*
X79202609Y-93811842D01*
X79202609Y-93811842D02*
X79161155Y-93818085D01*
X79161155Y-93818085D02*
X79137532Y-93830122D01*
X79137532Y-93830122D02*
X79108115Y-93859989D01*
X79108115Y-93859989D02*
X79096529Y-93895649D01*
X79096529Y-93895649D02*
X79096979Y-93954932D01*
X79096979Y-93954932D02*
X79241419Y-94238414D01*
X79241419Y-94238414D02*
X79009628Y-94163100D01*
D12*
X60632288Y-103143001D02*
X60435314Y-103749224D01*
X60435314Y-103749224D02*
X60376480Y-103808958D01*
X60376480Y-103808958D02*
X60329233Y-103833032D01*
X60329233Y-103833032D02*
X60246326Y-103845518D01*
X60246326Y-103845518D02*
X60103685Y-103799172D01*
X60103685Y-103799172D02*
X60043952Y-103740338D01*
X60043952Y-103740338D02*
X60019878Y-103693091D01*
X60019878Y-103693091D02*
X60007392Y-103610184D01*
X60007392Y-103610184D02*
X60204365Y-103003961D01*
X59491162Y-102772227D02*
X59847764Y-102888094D01*
X59847764Y-102888094D02*
X59767557Y-103256283D01*
X59767557Y-103256283D02*
X59743484Y-103209036D01*
X59743484Y-103209036D02*
X59683750Y-103150202D01*
X59683750Y-103150202D02*
X59505449Y-103092269D01*
X59505449Y-103092269D02*
X59422542Y-103104756D01*
X59422542Y-103104756D02*
X59375295Y-103128829D01*
X59375295Y-103128829D02*
X59316462Y-103188563D01*
X59316462Y-103188563D02*
X59258528Y-103366864D01*
X59258528Y-103366864D02*
X59271015Y-103449771D01*
X59271015Y-103449771D02*
X59295088Y-103497018D01*
X59295088Y-103497018D02*
X59354822Y-103555851D01*
X59354822Y-103555851D02*
X59533123Y-103613785D01*
X59533123Y-103613785D02*
X59616030Y-103601298D01*
X59616030Y-103601298D02*
X59663277Y-103577224D01*
X45993447Y-78273072D02*
X45816866Y-77729611D01*
X44954100Y-78310359D02*
X45905157Y-78001342D01*
X44762804Y-77721609D02*
X45713861Y-77412592D01*
X45713861Y-77412592D02*
X45596140Y-77050285D01*
X45596140Y-77050285D02*
X45521421Y-76974423D01*
X45521421Y-76974423D02*
X45461418Y-76943850D01*
X45461418Y-76943850D02*
X45356126Y-76927992D01*
X45356126Y-76927992D02*
X45220261Y-76972137D01*
X45220261Y-76972137D02*
X45144399Y-77046856D01*
X45144399Y-77046856D02*
X45113826Y-77106859D01*
X45113826Y-77106859D02*
X45097967Y-77212151D01*
X45097967Y-77212151D02*
X45215688Y-77574458D01*
X45328982Y-76536254D02*
X45359555Y-76476251D01*
X45359555Y-76476251D02*
X45375413Y-76370959D01*
X45375413Y-76370959D02*
X45301838Y-76144517D01*
X45301838Y-76144517D02*
X45227119Y-76068655D01*
X45227119Y-76068655D02*
X45167116Y-76038082D01*
X45167116Y-76038082D02*
X45061824Y-76022224D01*
X45061824Y-76022224D02*
X44971247Y-76051654D01*
X44971247Y-76051654D02*
X44850097Y-76141088D01*
X44850097Y-76141088D02*
X44483217Y-76861130D01*
X44483217Y-76861130D02*
X44291921Y-76272380D01*
X48025448Y-77688872D02*
X47848867Y-77145411D01*
X46986101Y-77726159D02*
X47937158Y-77417142D01*
X46794805Y-77137409D02*
X47745862Y-76828392D01*
X47745862Y-76828392D02*
X47628141Y-76466085D01*
X47628141Y-76466085D02*
X47553422Y-76390223D01*
X47553422Y-76390223D02*
X47493419Y-76359650D01*
X47493419Y-76359650D02*
X47388127Y-76343792D01*
X47388127Y-76343792D02*
X47252262Y-76387937D01*
X47252262Y-76387937D02*
X47176400Y-76462656D01*
X47176400Y-76462656D02*
X47145827Y-76522659D01*
X47145827Y-76522659D02*
X47129968Y-76627951D01*
X47129968Y-76627951D02*
X47247689Y-76990258D01*
X47466275Y-75967913D02*
X47274979Y-75379163D01*
X47274979Y-75379163D02*
X47015677Y-75813903D01*
X47015677Y-75813903D02*
X46971532Y-75678038D01*
X46971532Y-75678038D02*
X46896813Y-75602176D01*
X46896813Y-75602176D02*
X46836810Y-75571603D01*
X46836810Y-75571603D02*
X46731518Y-75555744D01*
X46731518Y-75555744D02*
X46505076Y-75629320D01*
X46505076Y-75629320D02*
X46429214Y-75704039D01*
X46429214Y-75704039D02*
X46398641Y-75764042D01*
X46398641Y-75764042D02*
X46382782Y-75869334D01*
X46382782Y-75869334D02*
X46471073Y-76141064D01*
X46471073Y-76141064D02*
X46545792Y-76216926D01*
X46545792Y-76216926D02*
X46605795Y-76247499D01*
X62436607Y-90919515D02*
X62406034Y-90859512D01*
X62406034Y-90859512D02*
X62284884Y-90770078D01*
X62284884Y-90770078D02*
X62194307Y-90740648D01*
X62194307Y-90740648D02*
X62043727Y-90741791D01*
X62043727Y-90741791D02*
X61923720Y-90802937D01*
X61923720Y-90802937D02*
X61849001Y-90878799D01*
X61849001Y-90878799D02*
X61744852Y-91045238D01*
X61744852Y-91045238D02*
X61700707Y-91181103D01*
X61700707Y-91181103D02*
X61687135Y-91376972D01*
X61687135Y-91376972D02*
X61702993Y-91482263D01*
X61702993Y-91482263D02*
X61764140Y-91602270D01*
X61764140Y-91602270D02*
X61885290Y-91691704D01*
X61885290Y-91691704D02*
X61975867Y-91721134D01*
X61975867Y-91721134D02*
X62126447Y-91719991D01*
X62126447Y-91719991D02*
X62186451Y-91689418D01*
X62548758Y-91807139D02*
X62579331Y-91867142D01*
X62579331Y-91867142D02*
X62655193Y-91941861D01*
X62655193Y-91941861D02*
X62881635Y-92015436D01*
X62881635Y-92015436D02*
X62986927Y-91999578D01*
X62986927Y-91999578D02*
X63046930Y-91969005D01*
X63046930Y-91969005D02*
X63121649Y-91893143D01*
X63121649Y-91893143D02*
X63151079Y-91802566D01*
X63151079Y-91802566D02*
X63149936Y-91651986D01*
X63149936Y-91651986D02*
X62783056Y-90931944D01*
X62783056Y-90931944D02*
X63371805Y-91123240D01*
X75289007Y-87592115D02*
X75258434Y-87532112D01*
X75258434Y-87532112D02*
X75137284Y-87442678D01*
X75137284Y-87442678D02*
X75046707Y-87413248D01*
X75046707Y-87413248D02*
X74896127Y-87414391D01*
X74896127Y-87414391D02*
X74776120Y-87475537D01*
X74776120Y-87475537D02*
X74701401Y-87551399D01*
X74701401Y-87551399D02*
X74597252Y-87717838D01*
X74597252Y-87717838D02*
X74553107Y-87853703D01*
X74553107Y-87853703D02*
X74539535Y-88049572D01*
X74539535Y-88049572D02*
X74555393Y-88154863D01*
X74555393Y-88154863D02*
X74616540Y-88274870D01*
X74616540Y-88274870D02*
X74737690Y-88364304D01*
X74737690Y-88364304D02*
X74828267Y-88393734D01*
X74828267Y-88393734D02*
X74978847Y-88392591D01*
X74978847Y-88392591D02*
X75038851Y-88362018D01*
X75927617Y-88400448D02*
X76133629Y-87766410D01*
X75583455Y-88689179D02*
X75577739Y-87936278D01*
X75577739Y-87936278D02*
X76166488Y-88127574D01*
X56493348Y-87148071D02*
X56293223Y-87763993D01*
X56293223Y-87763993D02*
X56233448Y-87824682D01*
X56233448Y-87824682D02*
X56185445Y-87849141D01*
X56185445Y-87849141D02*
X56101212Y-87861828D01*
X56101212Y-87861828D02*
X55956289Y-87814739D01*
X55956289Y-87814739D02*
X55895600Y-87754964D01*
X55895600Y-87754964D02*
X55871141Y-87706962D01*
X55871141Y-87706962D02*
X55858454Y-87622728D01*
X55858454Y-87622728D02*
X56058580Y-87006806D01*
X55768734Y-86912629D02*
X55297735Y-86759592D01*
X55297735Y-86759592D02*
X55457173Y-87131843D01*
X55457173Y-87131843D02*
X55348481Y-87096526D01*
X55348481Y-87096526D02*
X55264247Y-87109213D01*
X55264247Y-87109213D02*
X55216245Y-87133672D01*
X55216245Y-87133672D02*
X55156470Y-87194361D01*
X55156470Y-87194361D02*
X55097609Y-87375515D01*
X55097609Y-87375515D02*
X55110296Y-87459748D01*
X55110296Y-87459748D02*
X55134755Y-87507751D01*
X55134755Y-87507751D02*
X55195444Y-87567526D01*
X55195444Y-87567526D02*
X55412828Y-87638158D01*
X55412828Y-87638158D02*
X55497062Y-87625472D01*
X55497062Y-87625472D02*
X55545065Y-87601013D01*
D11*
X66360728Y-92404745D02*
X66453562Y-92334769D01*
X66469420Y-92440061D02*
X66531224Y-92249850D01*
X66531224Y-92249850D02*
X66458762Y-92226305D01*
X66458762Y-92226305D02*
X66437704Y-92229477D01*
X66437704Y-92229477D02*
X66425703Y-92235592D01*
X66425703Y-92235592D02*
X66410760Y-92250764D01*
X66410760Y-92250764D02*
X66401931Y-92277937D01*
X66401931Y-92277937D02*
X66405102Y-92298996D01*
X66405102Y-92298996D02*
X66411217Y-92310996D01*
X66411217Y-92310996D02*
X66426389Y-92325940D01*
X66426389Y-92325940D02*
X66498851Y-92349484D01*
X66359128Y-92193932D02*
X66241378Y-92155673D01*
X66241378Y-92155673D02*
X66281238Y-92248736D01*
X66281238Y-92248736D02*
X66254065Y-92239907D01*
X66254065Y-92239907D02*
X66233006Y-92243078D01*
X66233006Y-92243078D02*
X66221006Y-92249193D01*
X66221006Y-92249193D02*
X66206062Y-92264365D01*
X66206062Y-92264365D02*
X66191347Y-92309654D01*
X66191347Y-92309654D02*
X66194518Y-92330712D01*
X66194518Y-92330712D02*
X66200633Y-92342713D01*
X66200633Y-92342713D02*
X66215805Y-92357656D01*
X66215805Y-92357656D02*
X66270151Y-92375314D01*
X66270151Y-92375314D02*
X66291210Y-92372143D01*
X66291210Y-92372143D02*
X66303211Y-92366028D01*
D13*
%TO.C,C3*%
X75219542Y-91895469D02*
X76018429Y-92155043D01*
X75992085Y-89517827D02*
X76790972Y-89777401D01*
%TO.C,C1*%
X62722378Y-88019290D02*
X63521265Y-88278864D01*
X63494921Y-85641648D02*
X64293808Y-85901222D01*
%TO.C,R1*%
X78684073Y-95723895D02*
X79254707Y-95909305D01*
X79002361Y-94744307D02*
X79572995Y-94929717D01*
%TO.C,U2*%
X71588755Y-101484084D02*
X77775378Y-103494239D01*
X72671860Y-98150631D02*
X71588755Y-101484084D01*
X77775378Y-103494239D02*
X78858483Y-100160786D01*
X78858483Y-100160786D02*
X72671860Y-98150631D01*
D14*
X72548659Y-96450971D02*
G75*
G02*
X72348661Y-96450971I-99999J0D01*
G01*
X72348661Y-96450971D02*
G75*
G02*
X72548659Y-96450971I99999J0D01*
G01*
D13*
%TO.C,U1*%
X59146198Y-97480165D02*
X65332821Y-99490320D01*
X60229303Y-94146712D02*
X59146198Y-97480165D01*
X65332821Y-99490320D02*
X66415926Y-96156867D01*
X66415926Y-96156867D02*
X60229303Y-94146712D01*
D14*
X60106102Y-92447052D02*
G75*
G02*
X59906104Y-92447052I-99999J0D01*
G01*
X59906104Y-92447052D02*
G75*
G02*
X60106102Y-92447052I99999J0D01*
G01*
D15*
%TO.C,U4*%
X31182303Y-110034974D02*
X33085848Y-104176466D01*
X31182303Y-110034974D02*
X48529574Y-115671444D01*
X38895367Y-86296604D02*
X39136400Y-85554780D01*
X39136400Y-85554780D02*
X40087457Y-85863797D01*
X48529574Y-115671444D02*
X50511918Y-109570417D01*
X56242638Y-91933074D02*
X56483671Y-91191250D01*
X56483671Y-91191250D02*
X55532615Y-90882233D01*
X33305130Y-103485405D02*
X33150621Y-103960933D01*
X32829602Y-103330897D01*
X33305130Y-103485405D01*
G36*
X33305130Y-103485405D02*
G01*
X33150621Y-103960933D01*
X32829602Y-103330897D01*
X33305130Y-103485405D01*
G37*
%TO.C,TP1*%
X43136149Y-79839972D02*
X43568772Y-81171451D01*
X43568772Y-81171451D02*
X44900251Y-80738828D01*
X44467628Y-79407349D02*
X43136149Y-79839972D01*
X44900251Y-80738828D02*
X44467628Y-79407349D01*
D13*
%TO.C,J2*%
X52476288Y-110668029D02*
X54360056Y-104870389D01*
X54360056Y-104870389D02*
X63781222Y-107931511D01*
X61897454Y-113729151D02*
X52476288Y-110668029D01*
X63781222Y-107931511D02*
X61897454Y-113729151D01*
D16*
X58248748Y-105347037D02*
G75*
G02*
X57948748Y-105347037I-150000J0D01*
G01*
X57948748Y-105347037D02*
G75*
G02*
X58248748Y-105347037I150000J0D01*
G01*
D13*
%TO.C,U5*%
X54685719Y-102999312D02*
X55470623Y-100583630D01*
X55470623Y-100583630D02*
X57108478Y-99717359D01*
X55501591Y-104662849D02*
X54685719Y-102999312D01*
X56063465Y-102111613D02*
X55459544Y-101915387D01*
X57108478Y-99717359D02*
X65582390Y-102470699D01*
X63975503Y-107416189D02*
X55501591Y-104662849D01*
X64264161Y-104408169D02*
X64047848Y-105073908D01*
X64493630Y-104850740D02*
X63827892Y-104634428D01*
X65582390Y-102470699D02*
X63975503Y-107416189D01*
D15*
%TO.C,TP2*%
X45041149Y-79230372D02*
X45473772Y-80561851D01*
X45473772Y-80561851D02*
X46805251Y-80129228D01*
X46372628Y-78797749D02*
X45041149Y-79230372D01*
X46805251Y-80129228D02*
X46372628Y-78797749D01*
%TO.C,TP3*%
X46946149Y-78595372D02*
X47378772Y-79926851D01*
X47378772Y-79926851D02*
X48710251Y-79494228D01*
X48277628Y-78162749D02*
X46946149Y-78595372D01*
X48710251Y-79494228D02*
X48277628Y-78162749D01*
D17*
%TO.C,C2*%
X62007891Y-89134188D02*
X62373953Y-89253129D01*
X62048249Y-90255542D02*
X61682187Y-90136601D01*
%TO.C,C4*%
X74527551Y-92980058D02*
X74893613Y-93098999D01*
X74567909Y-94101412D02*
X74201847Y-93982471D01*
D13*
%TO.C,U3*%
X56148467Y-86472736D02*
X56776164Y-86676688D01*
X57567715Y-85761498D02*
X57774756Y-85124290D01*
X57672313Y-83918624D02*
X57044616Y-83714672D01*
D14*
X54393876Y-85449558D02*
G75*
G02*
X54193876Y-85449558I-100000J0D01*
G01*
X54193876Y-85449558D02*
G75*
G02*
X54393876Y-85449558I100000J0D01*
G01*
D13*
%TO.C,R3*%
X66238073Y-91913895D02*
X66808707Y-92099305D01*
X66556361Y-90934307D02*
X67126995Y-91119717D01*
%TD*%
M02*
